<?xml version="1.0" encoding="UTF-8"?>
<svg id="Layer_1" xmlns="http://www.w3.org/2000/svg" version="1.1" viewBox="0 0 100 100">
  <!-- Generator: Adobe Illustrator 29.0.0, SVG Export Plug-In . SVG Version: 2.1.0 Build 186)  -->
  <defs>
    <style>
      .st0 {
        fill: #710000;
      }
    </style>
  </defs>
  <g>
    <path class="st0" d="M25.27,27.98c-.06.09-.09.23-.09.35.03.17,0,.26-.06.4-.17.26-.29.52-.46.72-.14.23-.32.49-.55.66-.37.32-.72.69-1.09,1.06-.11.09-.26.26-.43.29-.37.09-.66.32-.95.52l-1.35.86c-.11.06-.26.17-.37.03-.11-.12.06-.26.14-.35.81-.86,1.44-1.84,1.96-2.88.26-.52.58-.98.78-1.52.14-.32.26-.63.32-.98.12-.26,0-.4-.29-.46s-.58-.03-.83.03c-.09.03-.2.06-.29.06-.52,0-1.01.17-1.52.29-.29.09-.58.23-.86.37-.29.09-.58.23-.86.35-.37.26-.81.52-1.15.78-.35.23-.63.46-.92.72-.14.11-.35.29-.52.4-.46.49-.95,1.04-1.47,1.5-.26.23-.55.43-.75.78-.12.2-.26.46-.4.66-.17.23-.37.43-.58.66-.06.06-.12.11-.14.2-.35.49-.69.98-1.01,1.47-.09.14-.14.29-.26.43-.32.63-1.29,2.5-1.64,3.08-.4.75-.75,1.5-.98,2.36-.06.26-.2.52-.29.81-.17.69-.37,1.41-.4,2.13-.03.11-.03.23-.03.37.03.23,0,.46-.2.6l.37,1.78c.09.23.2.49.35.66.14.26.37.46.63.6.63.32,1.29.46,1.98.46.2,0,.4,0,.58-.06.6-.2,1.24-.37,1.81-.63.81-.37,1.55-.83,2.27-1.29.23-.14.4-.32.63-.46.81-.58,1.58-1.18,2.3-1.9.23-.26.52-.4.78-.63l.12-.12c.23-.2.37-.43.6-.63.14-.17.29-.23.49-.14.09.06.17.06.26-.06.09-.09.06-.17,0-.29-.03-.06,0-.11,0-.2.06,0,.17-.03.2,0,.2.14.29.06.4-.12-.09-.06-.14-.17-.2-.23.06-.09.09-.2.14-.23.26-.17.43-.49.6-.69.29-.29.52-.6.95-.72-.03-.29.12-.46.29-.6.26-.26.49-.55.72-.81.09-.12.17-.2.32-.29.12.17.06.35-.03.46-.26.35-.49.66-.75.98-.4.43-.78.86-1.15,1.29-.2.2-.26.4-.37.63-.06.17-.14.32-.29.49-.37.52-.83.98-1.15,1.55-.09.12-.26.26-.43.37-.29.29-.6.55-.92.83-.03,0-.06.03-.06.09,0,.29-.26.43-.4.66l-.23.23c-.09.12-.14.23-.29.32-.09.12-.17.2-.32.26-.12.06-.26.14-.35.29-.14.2-.32.29-.49.46-.46.4-.98.75-1.44,1.09-.52.43-1.04.78-1.7.98-.35.12-.69.32-1.09.46-.2.12-.4.14-.63.12h-.78c-.52-.03-1.04-.23-1.55-.4-.12-.06-.26-.06-.35-.09-.46-.09-.86-.26-1.24-.58-.14-.17-.32-.29-.52-.43-.29-.23-.52-.49-.69-.81-.23-.4-.52-.81-.75-1.21-.23-.37-.29-.81-.37-1.24-.23-1.09-.17-2.21,0-3.31.11-.92.37-1.78.66-2.65,0-.03.03-.06.03-.09,0-.43.26-.75.43-1.12.32-.69,1.35-2.67,1.7-3.37.2-.4.4-.78.63-1.12.34-.4.6-.86.89-1.29l.37-.58,1.84-2.33.26-.26,1.55-1.38c.32-.26.63-.52.95-.81.09-.06.12-.17.17-.23.06-.2.2-.32.35-.46.46-.37,1.01-.58,1.55-.72.17-.03.32-.12.49-.14.63-.26,1.29-.2,1.93-.03.17.03.29.06.46.06.81.09,1.61.17,2.33.46l.66.17c.34.09.66.32.95.55.12.09.17.2.23.32.17.26.32.52.55.66.12.09.17.14.23.2.14.17.14.29.06.49ZM17.62,45.26c.46.03.6-.09.66-.6l-.66.52v.09ZM18.57,44.4c.17.09.26,0,.4-.09-.17-.09-.26-.03-.4.09Z"/>
    <path class="st0" d="M34.88,35.31c-.09.23-.29.32-.37.49-.2.32-.4.63-.69.95-.4.35-.66.83-.89,1.29-.09.12-.14.29-.29.32q0,.06-.09.12c-.06.35-.29.63-.49.92-.11.2-.29.46-.35.72-.06.06-.11.17-.32.14.17.14,0,.23-.03.35-.06.14-.17.32-.29.43-.09.23-.12.4-.26.58-.2.2-.2.4-.34.55,0,.03-.06.14-.06.06-.12,0-.03-.03-.03-.03,0-.12-.09-.12-.12-.03-.11.03-.29.06-.29.26-.03.11-.06.26-.29.23-.03.03-.06.06-.09.12.03,0,.03.03.03.03.06-.06.17-.12.17-.06.06.11-.03.14-.12.17-.09.17-.06.37.03.4-.03-.23-.03-.29.2-.4.09-.06.26-.23.32-.37.09.12.06.14,0,.23-.14.26-.2.49-.4.75-.14.14-.12.4-.26.66-.06.12-.17.23-.2.35-.03.09-.03.12-.12.17.03.06.03.09.12.14,0,0,.06,0,.06-.06l2.62-2.44c.26-.23.52-.49.75-.63.23-.29.52-.46.78-.69.2-.2.43-.34.63-.58-.11.14-.14.32-.35.4-.09.03-.09.09-.11.17,0,.06,0,.12-.06.2.03.06-.06.09.06.09.06.06.11.06.14-.03.06-.14.35-.46.49-.46-.03.09-.03.17-.17.2-.09,0-.11.12-.17.2-.06.14-.17.23-.29.35l-.2.29c-.03.09-.09.14-.17.2-.14.09-.26.29-.4.49-.11.06-.17.14-.34.23l-.95.95c-.12.2-1.06,1.27-1.27,1.47-.09.17-.09.35-.29.4-.2,0-.32.2-.49.29-.03.06-.03.09-.03.17s0,.2-.14.09c-.09-.06-.17.06-.17.17-.03.17-.09.23-.2.29-.14.06-.2.23-.29.35-.17.12-.26.23-.37.29-.14.06-.14.26-.14.35s0,.17-.14.26c.03.14.03.35-.2.35-.09.03-.12.03-.14,0-.14-.09-.29-.14-.43-.17-.2-.12-.35-.2-.37-.43,0-.03-.03-.03-.12-.09-.03-.03-.09-.09,0-.2.09-.06.12-.17-.03-.29-.03,0-.03-.06-.03-.06.03-.23,0-.43.14-.58.09-.03.12-.09.12-.14.03-.29.17-.58.29-.83.23-.49.43-1.04.6-1.5.43-1.06,1.01-1.98,1.47-2.96.2-.49.52-.89.78-1.38.12-.32.32-.52.46-.78.06-.17.06-.32.14-.35v-.12s-.03,0-.09.03c-.14.17-.32.26-.46.46-.09.09-.17.2-.32.26-.11.06-.14.14-.2.29-.09.11-.14.35-.35.26-.03-.03-.03,0-.03.09s-.12.09-.2.09-.14.09-.2.14c-.32.26-.66.66-.89,1.04-.06.03-.09.03-.14.09-.03.03-.12.06-.12.23,0,.2-.09.37-.29.46-.03-.23.09-.26.17-.35,0,0,.06-.09.06-.11-.06-.06-.09,0-.09,0-.09.03-.12.03-.12.14-.06.06-.06.09-.12.09-.23.17-.34.46-.55.58-.09.03-.2.12-.11.2.11.06.11-.09.14-.11.14-.2.23-.2.32-.17-.03.09-.09.12-.14.12-.09,0-.03.09,0,.09.06.09.14.09.2,0,.03-.03,0-.03-.06-.09v-.12c.09.09.17.06.14-.03h.14c.09,0,.17.12.17-.03,0-.09,0-.11.03-.11q.06.03.06.11s-.06.14-.14.14c-.12,0-.23.06-.23.2.03.23-.17.37-.32.52-.17.23-.37.37-.55.6-.14.26-.35.49-.49.66-.12.14-.23.17-.32.29-.37.37-.58.55-.69.75-.23.29-.63.75-.86.89l-.2.14c-.2.09-.29.2-.43.35-.17.17-.29.23-.46.2-.14,0-.29.03-.35.14-.09.09-.2.09-.26.09-.2,0-.37-.2-.46-.4-.12-.26-.14-.55-.37-.72-.14-.06-.03-.35-.09-.49-.03-.26.09-.55.11-.78.09-.29.14-.49.2-.75.03-.26.14-.58.23-.86.11-.35.4-.83.49-1.12.23-.63.63-1.35.92-1.87.2-.49.37-.83.63-1.21.14-.29.32-.6.58-.83.17-.35.43-.72.66-1.06.12-.26.37-.37.49-.63.29-.4.66-.75.95-1.09l1.01-1.01c.78-.81,1.78-1.09,2.39-1.09.17-.06.29-.12.49-.03.03,0,.09.03.11,0,.46-.03.83.23,1.18.4.17.12.14-.03.26-.11.2.11.37.14.58.29.14.11.17.23.37.32.06,0,.06.03.09-.03.17-.17.29-.17.4,0,.03,0,.09.03.14.03.09-.03.17-.03.23.03.17.29.46.35.78.52.03,0,.12.03.12.06.03.32-.06.63-.12.86ZM22.23,43.88s0-.03-.06-.03-.06,0-.06.03c0,.06,0,.12.06.12s.06-.06.06-.12ZM22.34,43.34c-.09.06-.09.17-.09.26,0-.09.09-.17.09-.26ZM22.71,44.23c.06,0,0-.06-.03-.06-.12,0-.12.09-.14.14-.06,0-.06.06-.06.09,0,0-.06-.03-.06,0h.06c.14.09.11-.11.23-.17ZM32.55,34.74s-.03-.06-.12-.06c-.17-.12-.32-.17-.52-.14-.03,0-.12.03-.14,0-.09-.12-.17-.12-.32-.12-.35-.06-.63.03-.95.14-.26.09-.58.26-.89.4-.26.12-.46.4-.78.49-.32.12-.49.4-.66.58,0,.06-.03.06-.03.06-.2.12-.4.17-.49.37-.12.23-.29.35-.49.6-.14.2-.37.32-.52.55-.09.09-.17.09-.26.2-.06.14-.2.29-.23.46l-.26.4c-.14.17-.29.32-.34.46-.06.14-.09.26-.26.23,0,.11.06.14.03.2-.23.32-.29.69-.6.86v.12c-.09.32-.29.69-.55.86,0,.06.09.12.03.2-.09.12-.09.26-.14.4-.09.23-.37.69-.58.92-.03,0-.03.03-.03.09,0,.11-.17.35-.37.29-.12,0-.23,0-.23.2.23-.14.23.2.37.17-.09.06-.14.14-.03.29.03,0,.03.09-.06.09-.11.03-.06.17-.11.29-.12.11-.12.37-.4.46.2.09.29.12.4,0,.03.09,0,.12,0,.17s-.09.09.03.14c.06,0,.11,0,.11-.09,0-.06.06-.11.09-.11.14-.03.17-.12.29-.14.32-.23.43-.63.78-.81.23-.12.69-.55.75-.89l.06-.03c.17-.06.32-.17.6-.46.2-.11.32-.37.49-.49.29-.23.58-.6.92-.92.26-.2.52-.46.78-.78.37-.34.72-.66,1.06-1.04.29-.23.49-.52.75-.83.06-.06.14-.09.26-.09,0,0,.06,0,.06.03,0,.06-.06,0-.09,0-.09-.03-.09.06-.06.09,0,.12.09.14.2.14.03,0,.09-.09.09-.14,0-.09.09-.2-.09-.29v-.06c.06-.09.09-.09.17-.09.12-.03.06.06.06.09.03.11.09.11.14.11s0-.09,0-.09c0-.06.03-.09.03-.11h.14c.06,0,.12,0,.12-.03,0-.12-.06,0-.06-.09-.06-.03-.2-.03-.14-.14.14-.09.23-.2.35-.29.06.06.12.06.17.06.32,0,.23-.35.37-.49-.09.06-.2.14-.32.26,0,0-.06.06-.09.03,0-.09.03-.09.03-.12.06-.17.17-.11.23-.2.09-.23.32-.29.37-.49,0-.06.06-.09.09-.09.09-.03.17-.09.2-.17.29-.4.46-.83.72-1.29.14-.2.06-.26-.14-.35ZM22.66,43.16c.09-.09.17-.11.12-.32-.12.12-.12.2-.12.32ZM22.89,42.99c.09.09-.03.17.09.23.03,0,.09-.06.09-.06,0-.09-.06-.11-.17-.17ZM23.12,42.85l.23-.26v-.09c-.06,0-.06.09-.06.09,0,0-.2.26-.17.26ZM23.55,41.73s.03,0,.09,0c.06-.03.03-.14.06-.26-.06.12-.14.14-.14.26ZM23.61,41.87s-.09.09-.03.09c.03,0,.09-.03.09-.09h-.06ZM23.81,41.38c.06,0,.09,0,.14-.03,0,0,.14-.26.06-.26-.03,0-.2.26-.2.29ZM24.09,41.01c.09,0,.09-.03.09-.09-.06,0-.09,0-.09.09ZM24.33,41.09l-.12.26.2-.26h-.09ZM24.27,39.77c.11.03.23,0,.23,0l.06-.03c-.06,0-.17-.03-.29.03ZM24.41,40.4c.06-.09.12-.09.12-.23-.06.03-.12.12-.12.23ZM24.87,39.86c-.09,0-.12,0-.2.09.09-.06.12-.06.2-.09.29,0,0-.17.03-.2.09,0,.11.03.17,0-.06-.06-.09-.14-.17-.14-.06.03,0,.09,0,.14-.03,0-.12-.06-.14-.06,0-.09.09-.17.03-.2-.09.03-.12.11-.12.2h.09c-.09.14.03.17.12.26ZM25.1,39.31c.03-.14.14-.17.2-.26.06-.06.09-.09.06-.17-.06-.03-.09,0-.11.09-.12.09-.17.2-.14.35ZM25.62,38.45c.09,0,.09-.06.06-.09.17-.06.26-.2.26-.37-.17.14-.26.2-.26.37-.03.03-.06.03-.06.09ZM25.94,36.98c.09-.03.12-.12.12-.2,0,.09-.12.09-.12.2ZM26.05,37.3h-.09l.06.06s.12,0,.03-.06ZM26.08,37.76s-.09.06-.09.17c.09,0,.17-.09.17-.11,0-.06-.09-.06-.09-.06ZM26.22,42.99v.17q.09,0,.09-.06c.03-.06,0-.12-.09-.12ZM26.74,42.62h-.03q-.06.06-.06.12l.06.03c.03-.06.03-.12.03-.12v-.03c.06-.09.06-.11.06-.17,0,.06-.06.09-.06.17ZM26.91,35.95q.06-.03.12-.12c-.12,0-.14,0-.12.12ZM27,36.26c-.06,0-.06.03-.09.12,0,.03,0,.09.03.03.06,0,.12-.03.12-.11t-.06-.03ZM27.35,41.84c.06-.06.09-.06.09-.06,0,.06-.03.09-.03.17-.06,0-.09,0-.14-.09,0-.03.09-.03.09-.03ZM27.63,45.9c-.17.03-.2.12-.17.23l.17-.23ZM27.78,46.13s-.03-.03-.03-.03c-.03.03-.09.03-.03.09h.03s.03,0,.03-.06ZM27.92,44.98c-.09.03-.09.12-.17.17-.03.09-.03.12,0,.12.09.06.09,0,.12-.03,0-.12.06-.14.06-.26ZM28.01,40.72c-.12.03-.17.06-.17.23.09-.12.12-.17.17-.23ZM28.41,41.35c-.17,0-.2.09-.2.17.03.06-.03.09-.03.11-.06.09-.12.12-.14.12h-.09c0-.12.09-.12.11-.14.03-.11.14-.17.14-.26.03-.17.09-.11.2,0ZM32,37.07c-.03-.09-.03,0-.03.03-.12.06-.17.17-.2.2-.2.46-.43.86-.66,1.24-.06.06-.11.06-.11.12-.09.23-.2.37-.29.55-.17.35-.4.63-.55.98-.14.29-.26.58-.43.83-.09.03-.17.14-.17.32-.06.23-.2.43-.37.6-.09.09-.09.26,0,.4-.17,0-.29.12-.29.32-.03.06-.03.09-.09.14-.14.17-.2.46-.32.69-.12.29-.37.46-.29.78-.2.09-.09.29-.17.4.17-.2.29-.46.4-.75.14-.26.29-.49.35-.81.03-.03.12-.09.12-.2,0-.09.09-.2.17-.29.06-.09.12-.2.12-.29.11-.14.2-.32.29-.46.2-.32.35-.69.49-1.01.23-.4.46-.86.69-1.24.17-.32.35-.55.55-.89.12-.26.29-.52.4-.78l.4-.78s.09-.09,0-.12ZM28.41,41.18c-.06-.12.06-.12.12-.12,0-.03.09,0,.09.06s-.09.12-.09.14c-.06,0-.12-.03-.12-.09ZM28.75,44.57s-.03-.03-.03-.03c-.17.03-.11.11-.17.17q.03.06.03.09t.06-.03c0-.06.11-.12.11-.2ZM28.64,44.08c.06-.17.14-.2.2-.32-.14.03-.23.12-.23.26l.03.06ZM29.24,44.52q0-.09-.06-.12c-.06-.06-.09-.06-.09,0-.03.12-.14.23-.23.26-.06.12-.09.35-.06.43.06-.06.14-.14.17-.23.14-.12.14-.23.26-.35ZM29.21,40.43c-.09.09-.17.2-.26.23.11-.06.06-.32.26-.23ZM29.3,42.93s0-.14-.09-.14c-.03,0-.09.09-.09.11-.03.03-.03.14-.06.17.17.11.23,0,.23-.14ZM29.36,44.17c0-.09-.09-.09-.11-.09-.06,0-.12.09-.12.12,0,.06.06.06.12.06.03,0,.11-.06.11-.09ZM29.53,43.94q-.03-.06-.12-.06s-.09,0-.06.06c-.09.06,0,.11.03.11.06,0,.14-.06.14-.11ZM29.62,39.22c-.11-.14-.11-.09-.23,0h.23ZM29.47,42.36c.03.09,0,.2,0,.32.03-.12.17-.23,0-.32ZM29.67,42.16c.12-.12,0-.14,0-.26-.09.09-.09.11-.06.2,0,.09.06.11.06.06ZM29.9,41.84c0-.12-.06-.17-.14-.12,0,0-.09.03-.09.06.09.09.17.06.23.06ZM30.14,41.84c-.09,0-.14.06-.17.11-.03.12-.06.26-.29.26.03.09.03.12.14.12.06,0,.11,0,.11-.03,0-.2.09-.32.2-.46ZM29.96,38.71c-.09-.03-.14,0-.17.12.09,0,.11,0,.17-.03v-.09ZM30.6,41.64s-.03-.03-.06-.03c-.06.09-.23.14-.26.29q0,.06.03.06c.12-.06.29-.09.29-.26,0,0,.03-.06,0-.06ZM30.54,40.66s.03-.06,0-.14c-.06-.03-.06,0-.11.12,0,.03-.06.06-.06.17.09-.09.17-.03.17-.14ZM30.97,39.86c-.06-.06-.14-.06-.14,0,0,.03-.03.12,0,.12.12.03.12-.09.14-.12ZM31,41.09c0-.06-.03-.06-.03-.06-.09,0-.09.06-.09.06q0,.06.09.06s.03,0,.03-.06ZM30.94,39.77h.03s.06-.06,0-.14c-.03.03-.06.09-.03.14ZM31.98,38.04h-.06s-.03,0-.03.03l.03.06c.06,0,.06-.06.06-.09ZM32.93,42.27c.11-.03.14-.06.2-.14-.09,0-.12.03-.2.14ZM33.39,41.58c.09,0,.12,0,.17-.09-.09-.06-.17,0-.17.09Z"/>
    <path class="st0" d="M34.8,49.95c-.14-.17-.43-.26-.52-.55-.03-.14-.09-.35-.29-.35-.06-.06-.09-.11,0-.2l.2-.58c.09-.29.17-.55.4-1.18.09-.17.17-.29.2-.37.14-.29.17-.58.23-.86.09-.26.26-.6.37-.95.11-.17.2-.43.32-.69.09-.12.03-.26.11-.35.06-.09.12-.26.2-.29.03,0,.06-.03.03-.09-.06-.17.06-.29.12-.4.12-.06.2-.26.14-.37-.03-.12.09-.2.14-.23.06-.12.09-.12.03-.23-.03-.03,0-.11,0-.14l.14-.23.06-.14c.06-.14.12-.32.14-.49h.03s.06-.09.09-.12c0-.03-.03-.03-.03-.03-.03,0-.03.03-.06.03.03-.09.09-.17.11-.23.03-.06.06-.12.09-.14.09,0,.14.06.26.09.12.09.17-.03.17-.03-.06-.12.09-.23.06-.37l-.12.09c-.03.09-.03.23-.14.17-.09-.03-.03-.14-.03-.26.09-.09.09-.14.06-.23-.03-.17.03-.29.14-.37l-.03-.14c.14-.37.58-1.32.78-1.67.06-.17.09-.43.2-.66.11-.32.35-.69.46-.98.06-.09,0-.23.12-.34.14-.14.2-.4.32-.58.17-.26.32-.58.46-.86v.06s0,.03.06.09l.03-.09s-.03-.09-.03-.09h-.03l.2-.29.4-.78c-.14.03-.29.17-.46.17-.09-.03-.26.17-.32.2-.03.09-.12.14-.26.2-.14-.03-.29.12-.55,0-.32.03-.58-.23-.58-.49,0-.09.06-.2,0-.29-.11-.17-.09-.32-.14-.46,0-.09.06-.2.14-.26.32-.09.63-.14.98-.17.37-.11.81-.09,1.27-.11.2,0,.4-.03.6-.03.09-.09.78-1.29.78-1.44.09-.2.03-.43.17-.55.12-.09.14-.2.26-.32.17-.17.14-.35.35-.37.14-.09.03-.23.09-.35.14-.4,0-.2.32-.52.14-.26.49-.49.69-.92.17-.43.49-.69.89-.89.17-.09.43-.17.52-.4.06-.17.2-.06.32-.14.23-.09.46-.14.66-.26.49-.14.95.17,1.47.32l1.06.32c.23.03.89.6.95.78.06.2.06.4-.14.46-.14.06-.34.03-.43-.09-.09-.23-.95-.55-1.15-.52h-.06s-.03.03-.06.06l.06-.03s.06-.03.06-.03c-.11.06-1.04.58-1.38.81-.2.12-.4.35-.6.49-.17.17-.4.23-.55.4-.17.17-.17.37-.26.55-.11.17-.26.23-.29.37-.37.29-.46.49-1.15,2.1-.06.09-.17.14-.23.2.4.03.81.09,1.38.14.4.06.81.09,1.15.17.23.06.46.23.75.2,0-.03.09,0,.09,0,.03.12.2.26.23.4,0,.17-.63.23-1.04.06,0-.06-.09-.03-.2,0l-.09-.03c-.09-.03-.17-.03-.26.09,0,.06-.12.09-.14,0-.09-.09-.14-.03-.23-.03-.03.06-.12.06-.17.06-.29-.03-.55.06-.86.2-.23,0-.35.03-.49,0-.2-.06-.37-.06-.58,0-.06.06-.09.09-.17.09-.17-.03-.29-.03-.37-.03-.09.06-.14.17-.12.29l-.03.12c-.06.09-.17.14-.17.35,0,0-.03.06-.06.06-.37.4-.52.92-.92,1.41-.14.17-.63,1.15-.78,1.41-.09.17-.09.29-.11.49-.03.43-.58,1.41-.78,1.81-.09.12-.03.29-.11.37-.06.14-.14.32-.26.46-.06.09-.12.2-.2.23.09.2-.09.29-.14.49,0,.26-.17.43-.17.69,0,.17-.14.32-.23.46-.06.29-.23.49-.29.78,0,.14-.06.32-.09.4-.14.09-.14.26-.23.37-.03.29-.14.58-.2.92l-.89,2.3c-.35.75-.49,1.04-.52,1.41-.03.17-.11.35-.2.49-.14.23-.2.46-.2.69-.09.2-.14.37-.37.37-.17-.03-.4.06-.55-.06ZM35.49,43.11c.09.11.03.17,0,.23-.09-.09-.03-.12,0-.23ZM36.09,44.29c.14-.26.09-.6.23-.86.03-.03.09-.14.03-.17,0-.06-.09-.03-.09.03-.09.03.06.12.06.14-.12,0-.17.06-.2.14,0,.23-.14.46-.17.66-.03.06-.09.17-.03.2.06.09.12-.03.17-.14ZM36.09,41.64c.09.12.09.23,0,.32-.11-.14.03-.2,0-.32ZM36.12,42.3c.03.06,0,.09-.03.17-.09-.12-.03-.14.03-.17ZM36.21,42.73c.06.17,0,.23-.09.23,0-.06.03-.14.09-.23ZM36.32,41.06c0-.06-.03-.11.03-.11s.09-.03.11.03c.06.03,0,.09-.03.12-.06.06-.09.23-.2.03.09,0,.12-.03.09-.06ZM36.47,41.47c.03.12-.03.2-.06.23-.03-.09,0-.14.06-.23ZM36.7,41.76c-.03.06-.06.09-.06.14-.03.03-.06.06-.09.11q0-.14.14-.26ZM36.75,39.97s.12-.03.17.06c.06.06,0,.11-.03.17-.09.09-.12.14-.26.2.06-.17,0-.32.11-.43ZM36.64,41.06c0-.06.03-.06.09-.11,0,.06,0,.11-.06.17-.03,0-.03-.06-.03-.06ZM36.87,40.55c0,.12,0,.2-.03.23s-.09.03-.09,0c-.03-.06.06-.11.12-.23ZM36.9,39.74c-.03-.06.03-.14.03-.26,0-.03.06-.06.09-.03.03,0,.09,0,.09.09-.06.12-.03.2-.14.26,0,.03-.03.03-.03,0t-.03-.06ZM37.07,40.14c-.03.12-.06.17-.14.23.06-.09.06-.2.14-.23ZM37.1,41.76c.06-.03,0-.09-.03-.09-.09-.03-.09,0-.09.06-.03.06-.09.17-.03.29.06-.11.06-.17.14-.26ZM37.07,40.66c.09-.09.12-.14.12-.23.03-.06.03-.14.09-.09.06.03,0,.06,0,.09v.03c-.11.09-.14.17-.2.32-.03-.03-.06-.09,0-.11ZM37.3,41.38c-.03-.06-.11-.03-.14-.03-.12,0-.09.12-.09.17,0,.03.03.09.12.09.03-.09.11-.14.11-.23ZM37.1,39.17c.06-.2.49-.92.58-1.06,0-.09.06-.17.12-.23.03-.17.06-.29-.12-.46.2.12.29.06.29-.14,0-.09.12-.14.14-.23l.29-.2c-.17.29-.35.55-.46.95-.03.12-.2.17-.2.35,0,.14-.4.92-.43,1.12-.03.03-.03.14-.11.09-.06-.03-.06-.09-.09-.17ZM37.79,39.97c-.12.03-.09.17-.17.26.14-.03.2-.12.17-.26ZM38.05,38.88s.29-.69.32-.75c.09-.14.09-.29.14-.4.17-.12.2-.32.17-.52-.03.03-.06.09-.12.11-.14.26-.14.63-.32.86-.06,0-.35.69-.29.72,0,.06.03.03.09-.03ZM38.05,39.37c.2-.06.12-.23.14-.35-.12.09-.06.23-.14.35,0,0-.03.06,0,.09v-.09ZM38.33,37.35c.03.14-.06.26-.14.37,0-.2.06-.29.14-.37ZM38.54,36.89l.03.06c.06.11-.03.06-.09.11-.09-.11,0-.17.06-.17ZM38.51,36.29c0-.09.03-.12.14-.14,0,.09,0,.2-.12.2-.03.03-.06,0-.03-.06ZM38.82,37.76c0-.06,0-.12-.09-.09-.03.03-.03.06.03.12,0,.03,0,.06.06.03.03,0,.03-.03,0-.06ZM38.77,36.41c0-.11.09-.14.11-.17,0,.12-.03.17-.06.2-.03,0-.06-.03-.06-.03ZM39.26,37.44c-.03-.09-.14-.03-.2-.03-.2-.12-.23,0-.2.14,0,0,.06.03.09.03.09.06.14.11.2.03.03-.09.14-.09.12-.17ZM39.05,36.58c0-.06-.03-.06-.06-.06h-.06q0,.09.06.09s.06-.03.06-.03ZM39.17,36.81c-.11.12-.11.29-.14.43.32-.2.26-.52.14-.43ZM39.77,35.83c-.03.09-.06.12-.09.14.09,0,.17,0,.09-.14Z"/>
    <path class="st0" d="M45.9,46.24c-.55-.52-.89-1.15-1.09-1.84-.06-.14-.03-.35-.12-.46-.26-.43-.12-.86-.06-1.27.06-.37.14-.72.29-1.12v-.03c.23-.23.23-1.01.37-1.24.03-.06.03-.12.06-.14.58-1.04.72-1.52,1.01-1.9.17-.2.37-.4.43-.66.03-.09.09-.17.2-.23.03,0,.03-.03.03-.06.2-.55.66-.95,1.04-1.41.29-.37.66-.72.98-1.09.17-.23.4-.4.58-.66.17-.17.4-.29.6-.49.26-.23.55-.43.86-.6,0,0,.06-.03.09,0,.43-.09.89-.2,1.35-.06.26.09.58.06.78.2.09.06.14.03.2-.06,0-.03.03-.03.03-.06.03.17.17.29.32.35.09.03.12.06.2.06-.03.06-.03.09.03.14.23.26.69.63.6.95-.09.32-.32.63-.52.92-.06.09-.11.12-.2.14-.17.06-.2.14-.14.26t.06.03c-.2.06-.32.2-.37.35,0-.03-.03-.06-.06-.09,0-.09-.06-.06-.09,0l-.2.09c-.14.2-.35.26-.49.43-.14.14-.35.37-.6.37-.09,0-.14,0-.14.09-.09.17-.2.14-.34.26.34.12.66.12,1.01.14.35.03.69.17,1.04.09-.26.17-.58.14-.86.17-.23.03-.49,0-.69.17-.12.06-.26.03-.37.03-.34-.03-1.24,0-1.61,0-.09,0-.23-.06-.34-.03-.12.03-.23,0-.35.06-.06.06-.2.06-.29,0-.12-.06-.23-.09-.35-.03-.14.03-.29.12-.49.12-.11,0-.09.09-.03.11.12.09.03.14,0,.23-.17.2-.32.4-.4.63-.03,0-.03.03-.35.75-.17.17-.29.37-.37.6q-.11.2-.4.17c.06.06.14.03.2.14,0,.06-.03.09-.09.14-.03.09-.09.09-.14.09-.12-.03-.2.43-.32.52v.03c.09.09.26,0,.23.09-.03.14-.12.26-.17.37-.09.17-.14.32-.14.46-.06.09-.12.17-.17.2-.03.06-.2.12-.03.2,0,0,.03.06,0,.09-.12.09-.12.29-.14.4-.03.14-.03.32-.12.46,0,.03.03.03.06.06.06.03.06.12.06.14-.12.11-.03.23-.03.34,0,.03,0,.12-.03.12-.06.09,0,.12.06.17.09.12.06.26.12.37.06.09.09.2.14.26.06.09.14.17.14.35.03.06.23.17.32.26.4.17.83.26,1.24.23.32,0,.63-.17.95-.23.29-.06.58-.2.83-.32.29-.14.55-.14.8-.26.12-.03.26-.11.37-.17.09-.06.2.03.26-.06.09.14-.11.26-.09.43,0,.03-.12-.03-.2.03.09.09.23.17,0,.2-.03.12.06.12.12.09.17-.09.37-.09.46-.23h.03c.29-.06.43-.37.72-.4.14-.06.2-.17.03-.29-.06-.06-.06-.12,0-.23.14-.34.23-.4.58-.32.12.03.35-.03.46-.17.06-.12.26-.2.14-.37.23.09.34,0,.52-.14.32-.26.66-.89.89-1.21.26-.26.52-.52.81-.75.2-.17.49-.35.69-.49.09-.06.12.03.2.06-.17.12-.26.32-.49.35-.06-.03-.06,0-.06,0-.09.26-.29.37-.46.55l-.32.32-.52.49c-.26.69-.49.98-.81,1.18-.17.14-.26.26-.4.4l-.26.14c-.26.17-.52.37-.72.63l-.12.12c-.23.12-.46.35-.72.49-.23.12-.43.26-.63.37-.14.09-.23.14-.4.12-.14-.06-.26.06-.4.14-.32.2-.66.35-1.01.35-.12,0-.23.06-.32.09-.35.09-.66.23-1.01,0-.03,0-.06-.03-.09,0-.14.23-.37.06-.52,0-.52-.14-.95-.4-1.32-.78ZM51.6,36.35l.49-.46c.12-.14.29-.26.43-.37.26-.32.63-.6.8-.98.06-.12-.23-.52-.58-.29-.06-.09-.12-.06-.2,0-.09.12-.17.2-.32.29-.37.2-.75.37-1.01.75-.14.2-.34.35-.52.52-.17.14-.4.26-.55.43-.09.12-.14.26-.34.2-.06,0-.06.06-.06.09.06.14-.03.23-.14.32-.03.06-.06.06-.09.14,0,.06.03.06.03.11.12,0,.2.09.29.03.43-.26,1.35-.49,1.75-.78ZM50.65,45.03c0,.09-.09.09-.14.06.03-.03.06-.06.14-.06ZM50.76,44.98s.03-.09.06-.11c.06-.06.14-.12.23-.12,0,.12-.14.14-.17.26l-.12-.03ZM51.42,44.8c-.09-.12-.26-.03-.37-.06.12-.11.23-.23.46-.26-.14.09-.23.2-.06.26.06,0,.09.06.03.09-.03.06-.03,0-.06-.03ZM51.57,44.29c.11-.03.23-.14.32-.23.26-.2.52-.34.8-.49.2-.09.37-.2.49-.4.03-.11.14-.26.29-.23,0,.06-.12.12.03.14-.14.17-.34.32-.55.46-.26.2-.55.37-.83.55-.2.12-.37.29-.6.35-.03-.09,0-.11.06-.14ZM52.86,30.14c.09-.43.75-.89,1.38-1.29.55-.37,1.96-2.13,2.67-2.27.23-.03.46-.11.66-.14.2-.06.46.17.52.29.52.32.63.75.12,1.35-.32.29-.66.6-1.18.78-.29.12-.52.29-.72.49-.34.35-2.16,1.18-2.82,1.64-.2.12-.72-.32-.63-.83ZM53.47,42.93c.03-.12.11-.14.23-.14.06,0,.14-.06.2-.06-.14.09-.2.26-.34.29-.06,0-.06-.06-.09-.09ZM54.73,41.55s.06-.03.06-.06.03-.06.06-.03c.03.06,0,.06-.03.06h.03s-.03.06-.06.06c-.03.06-.09.09-.11.06,0-.06.03-.06.06-.09ZM55.11,41.06c-.09.12-.11.14-.2.12l.2-.12ZM55.36,40.95c0,.23-.14.23-.26.23.03-.09.2-.12.26-.23ZM55.57,28.41c.46-.4,1.01-.63,1.52-.98.2-.12.46-.23.58-.46.06-.03.09,0,.11-.06l-.11.06c-.09.09-.23.2-.4,0-.03-.09-.14-.11-.17,0,0,.06-.06.09-.12.03-.14-.12-.2.03-.37.17.17,0,.14.11.17.14.06.06,0,.09,0,.09-.35-.06-.58.14-.75.32-.35.2-.89.32-.89.89.17,0,.32-.06.43-.2ZM55.74,40.6c.14.2-.09.2-.17.29,0-.17.11-.2.17-.29ZM55.91,40.52c-.06.09-.09.12-.17.09.03-.03.09-.03.17-.09ZM56,40.14c-.03.12-.06.14-.17.17l.17-.17ZM56.34,39.91c-.06.06-.14.14-.29.17.12-.11.17-.17.29-.17ZM56.49,40.92c0,.06,0,.11-.06.14,0,.03-.06,0-.06,0,0-.09.03-.11.12-.14Z"/>
  </g>
  <g>
    <path class="st0" d="M38.68,37.96c-.17.4-.06-.26-.26.14-.26.46-.49.92-.72,1.41-.14.43-.4.83-.58,1.27-.09.14-.2.26-.23.43-.06.11,0,.29-.06.43-.12.26-.2.49-.23.75-.09.23-.17.43-.23.66-.03.06-.06.11-.09.11-.2,0-.32.09-.4.29-.09.14-.23.29-.29.43l-.03.03c0,.43-.29.75-.37,1.12-.14.23-.26.46-.35.72.12.06.2.09.29.09.52.09,1.04.11,1.55.17.29.03.58.09.86.09.09,0,.17,0,.2.17v.03c.09.06.12.09.14.14-.06.03-.12.09-.2.11-.23.03-.46.06-.72.03-.03,0-.06,0-.06-.03-.17-.23-.43-.23-.66-.23-.55-.06-1.04-.12-1.55-.14-.09.23-.23.46-.37.66-.12.29-.17.6-.29.89-.03.09-.09.14-.12.2-.14-.12-.03-.17.03-.29-.06,0-.12-.06-.14-.06.12-.17.17-.4.23-.6.11-.17.32-.35.4-.52-.03-.09-.03-.14-.09-.2-.03-.03-.06-.09-.12-.09-.17-.06-.32-.03-.49-.06-.2,0-.4-.03-.6-.03-.2.03-.4.03-.6.06.12.11.17.32.4.37.09,0,.17.09.2.17.09.35.2.75.06,1.12-.03.17-.11.32-.23.46-.14.32-.29.58-.43.86-.14.26-.23.52-.34.81-.06.14-.14.32-.14.49,0,.06-.03.11-.06.14-.11.09-.17.2-.17.32s-.03.2-.09.29c0,.09-.06.14-.03.29.03.03-.11.2-.52,1.35-.14.14-.29.37-.2.58.03.06.03.09.03.12-.11.11-.14.26-.23.4-.03.03-.09.06-.09.12.03.17-.06.29-.11.4-.03.06-.06.09-.03.14-.09.17-.17.32-.2.46h-.03c-.32.09-.2.43-.32.63-.12.23-.2.49-.29.72-.03.09-.03.17-.03.26.03.14.06.26.11.4-.2-.14-.2-.12-.29.09-.03.06-.72,1.5-.72,1.55-.03.03-.09.03-.14.03l-.12.03c.09.17.14.37.2.57-.06.03-.12.09-.17.17,0,.09.06.2.06.29-.03.06-.11.09-.17.14-.06.03-.09.06-.09.12-.12.2-.14.43-.17.66-.03.03-.03.06-.06.06-.17.12-.29.29-.29.49,0,.03-.03.06-.03.09-.03.12-.06.29-.12.4-.06.06-.11.12-.2.14q-.14.11-.09.32c.03.14-.03.29-.11.43-.06.32-.17.58-.32.89-.03.32-.09.63-.14.95,0,.06-.06.12-.09.17-.11.06-.09.17-.09.29-.06.14-.06.32-.06.46,0,.06-.09.12-.12.2-.09.26-.17.49-.23.69-.09.14-.2.26-.23.4.09.35-.06.63-.09.98.12-.03.23.03.32,0,.06,0,.12-.06.12-.12.11-.17.17-.35.23-.52.06-.32.17-.66.26-.98.14-.32.2-.66.37-.92.03.03.06.06.03.06-.03.23-.12.46-.17.66-.06.17-.09.32-.11.49-.12.32-.23.6-.29.92-.03.09-.03.2-.06.32.23,0,.46,0,.66-.03.34-.03.63-.03.92-.03.32-.03.63.03.92.06.06,0,.11.03.2,0,.23,0,.4.09.6.12.14.03.35.09.52.06.14,0,.26.03.35.17l.2.17c-.03.09-.09.17-.26.23-.29.06-.55-.03-.75.26-.06-.06-.09-.09-.09-.14-.17.23-.46,0-.66.09-.09.03-.2.03-.32.03-.52,0-.98.03-1.52,0h-.81c-.12,0-.2,0-.29.03-.03,0-.09.06-.09.09-.09.32-.17.63-.23,1.01-.09.17-.23.37-.23.58-.06.11-.06.23-.09.32-.06.34-.09.69-.17,1.01-.06.09-.03.17-.03.29-.06.14-.14.26-.23.4-.06-.23-.09-.49,0-.69.09-.32.23-.6.14-.92-.03-.03,0-.06,0-.06.14-.23.17-.55.29-.81l.35-1.15v-.06c-.37-.14-.69-.09-1.04-.09-.29.03-.58-.03-.86-.06-.26.06-.49.03-.75-.06-.11,0-.23.06-.35.09-.26.03-.52.09-.78,0-.17-.03-.32.03-.49.03-.29-.03-.58-.09-.89-.06-.11.03-.23.12-.32.14.03-.03,0-.06.06-.14l-.46.09v.03h.23c-.03.2-.2.14-.35.17.06-.14-.03-.2-.17-.23-.09,0-.2-.14-.23-.23-.03-.09.03-.26.03-.34.35-.06.69-.17,1.01-.23.12-.03.26,0,.4,0,.2.03.37.03.58,0,.26,0,.55.03.81,0,.43,0,.86,0,1.29-.03.2.03.4,0,.6,0,.17,0,.2,0,.14-.2-.09-.03-.14-.03-.23-.12-.03,0-.06-.09-.06-.14-.03-.06,0-.11,0-.17-.12-.14-.17-.29-.09-.49,0,0-.03-.03-.03-.06-.09.14-.14.23-.2.37-.12-.2-.17-.32-.2-.46,0-.2-.03-.37-.11-.52,0-.06,0-.12.06-.14.2-.2.23-.49.35-.78.09-.17.14-.34.2-.52.2-.63.43-1.24.6-1.87.14-.29.2-.63.37-.95.12-.4.26-.81.37-1.18l.09-.29c.14-.32.2-.69.4-.98l1.06-2.7c.12-.2.2-.37.23-.6.06-.29.26-.49.35-.78l.09-.37c.06-.23.2-.4.2-.66,0-.12.14-.2.14-.34.03-.06,0-.14.03-.26,0-.03,0-.06.03-.09.23-.2.63-1.61.75-1.9l.49-1.29c.06-.14.14-.32.2-.49.03-.06-.03-.12-.03-.17.06-.06.12-.14.14-.2.17-.37.29-.75.46-1.12.14-.37.29-.78.4-1.18.11-.2.2-.4.29-.66.03-.17-.03-.23-.23-.26-.49.03-.98.03-1.47.09-.4,0-.81.03-1.21.06-.11.03-.26,0-.4.03-.03,0-.06.03-.06.06.06.09.06.14.12.2v.06c-.55-.17-1.18-.09-1.7-.4.06-.26.23-.29.43-.29.52,0,1.04-.03,1.52-.03.26-.03.52-.03.78,0,.03,0,.06,0,.12.03-.09.03-.12.06-.17.06v.03c.09,0,.17,0,.26-.03,0-.06,0-.09-.03-.14.03,0,.06,0,.09.03.26-.03.55-.09.81-.09.26-.03.49-.03.78-.03.12.03.2.03.35,0,.2-.09.4-.03.58-.03.12.03.2,0,.32,0,.52,0,1.06.03,1.58.03.32,0,.63.03.95.06.11,0,.23.09.37-.06.06-.09.09-.14.11-.23.06-.09.12-.14.2-.23-.06-.06-.09-.09-.14-.12.26-.4.4-.83.6-1.27.03-.09.09-.17.2-.32-.03-.03-.09-.06-.14-.06-.2-.09-.23-.09-.17-.32,0-.11-.03-.26-.03-.37l.09-.83c.03-.26.12-.52.12-.75,0-.12.06-.17.14-.14.14.03.32-.03.4.17,0,.03.03.06.03.06.2.06.52-.06.63-.17.03-.06.09-.09.09-.09.03-.11.06-.17.09-.26.09-.23.17-.4.29-.6.17-.29.29-.55.46-.81.06-.14.09-.29.14-.4.12-.26.29-.55.43-.81.2-.46.09.2.26-.23.06-.11.14-.11.23,0ZM24.68,65.17s-.06,0-.11-.03c0,.14-.03.32-.09.46.03.03.06.03.09.03.03-.14.09-.29.11-.46ZM25.37,63.16v-.03c.09-.2.17-.4.32-.6-.17-.06-.2-.06-.29.11,0,.09-.03.17-.06.23,0,.12.03.17.03.26-.03,0-.09.03-.09.06-.17.23-.23.49-.32.75-.03.06,0,.14.03.23h.03c.09-.2.14-.4.2-.55.09-.14.29-.26.14-.46ZM26.06,64.25l.11-.03-.09-.11s-.06,0-.09,0c-.06.03-.14.06-.2.03.03-.06.03-.12.06-.17v-.03c-.11-.03-.17.03-.2.14-.03.06-.06.12-.12.17-.11.17-.06.2.09.29.06-.03.12-.06.12-.11.03-.17.14-.26.32-.17ZM25.62,62.41c.17-.55.43-1.06.66-1.61-.03-.03-.06-.03-.06-.03-.12.06-.23.06-.29.2-.09.37-.23.72-.35,1.09-.03.12-.06.2.03.35ZM25.91,63.76q.17.14.37-.06c-.14-.03-.32-.14-.37.06ZM26.49,64.71c-.09-.12-.11-.26-.32-.26,0,.09-.03.14-.06.14l.2.12c.06.03.11.03.17.06v-.06ZM26.6,59.79s-.06.03-.09.09l-.09.17c-.23.11-.26.29-.17.55.29-.17.26-.55.35-.8ZM27.18,58.73c-.09-.06-.14-.14-.17-.2-.03,0-.06-.03-.06-.03-.03.12-.03.2-.06.35.12-.06.2-.09.29-.12ZM27.26,65.14s-.06-.06-.06-.06c.12-.14.14-.26.2-.43.14.23.06.37-.14.49ZM27.52,59.04l-.2.34c.29-.03.32-.03.2-.34ZM27.55,64.39c.03-.2.09-.43.2-.58.06.14-.11.52-.2.58ZM28.01,56.28c-.14.14-.2.29-.29.43.23-.09.32-.26.29-.43ZM28.56,54.81s-.03,0-.06-.06c-.06.14-.09.26-.14.37t.06.03c.06-.12.17-.2.14-.35ZM28.96,60.48c.17,0,.35.06.52.06,0,0,0,.03.03.06-.09.03-.17.14-.26.09-.23,0-.29.17-.4.37-.03.14-.14.26-.23.4h-.03c.12-.29.23-.63.32-.92,0,0,.03-.06.06-.06ZM29.02,55.79l-.17-.12-.06.06c.06.06.11.12.17.14.03-.03.06-.06.06-.09ZM29.11,53.92c-.09.03-.14.06-.26.09.09.14.14.2.17.29l.09-.09v-.29ZM29.51,59.39c-.09.12-.09.23-.14.37,0,.03-.06.03-.09.03,0,0-.06-.09-.03-.09.09-.26.2-.58.32-.86t.03-.03c.09.17.09.32-.03.43-.06.03-.06.09-.06.14ZM29.8,58.61l.23-.55c-.06.14-.12.35-.23.58-.03,0,0-.03,0-.03ZM33.28,49.46c0,.06.03.11.03.14-.06.2-.17.35-.26.52-.12.2-.12.46-.23.66-.12.37-.2.66-.69,2.07-.09.26-.2.49-.32.75-.03.2-.14.4-.23.63v.12c.06,0,.11.03.2.03-.12.12-.2.26-.35.4-.09.06-.11.17-.14.29-.14.4-.35.8-.43,1.24-.12.26-.29.52-.75,1.55.29-.72.26-.75.23-.8l-.09.06c.03-.14.09-.29.14-.46v-.03c.14-.12.23-.29.26-.46.03-.17.03-.29.06-.43v-.09c.26-.06.17-.34.37-.49.09-.06.09-.14-.03-.2.17-.26.23-.46.35-.69,0-.03.03-.06,0-.11-.06-.14.06-.2.14-.29.09-.06.14-.14.09-.26-.03-.06.06-.11.09-.14-.03-.17-.03-.32.2-.37l.37-1.5c.03-.06.09-.09.12-.14.14-.12.03-.34.12-.49.03-.09.09-.14.17-.23-.06-.14.03-.29.09-.43.09-.06.11-.2.11-.32.03-.17.09-.23.23-.17,0-.12-.06-.2,0-.29,0-.03.09-.03.14-.06ZM33.94,47.94c-.03.2-.14.46-.29.69-.03.2-.12.43-.2.63-.03.06-.12.11-.14.11-.09,0-.14-.09-.12-.2.09-.12.12-.23.17-.32.06-.2.2-.46.29-.66.06-.17.14-.26.29-.26ZM41.1,33.96c-.03.06-.03.17-.03.26-.06.06-.06.14-.06.26-.03,0-.06-.03-.06-.03,0,.09.03.11.03.14-.06.14-.26.23-.4.17-.06,0-.11.03-.17.06-.09.11-.14.26-.23.37-.14.2-.32.4-.37.6-.09.12-.12.26-.2.37-.17.4-.37.81-.58,1.18-.06.12-.09.26-.17.35-.03.03-.12.06-.17.09,0-.09,0-.17.03-.23.14-.29.32-.58.49-.86.03-.06.03-.14.09-.2,0-.09.06-.17.14-.26.14-.2.12-.46.29-.72.12-.06.14-.2.2-.32.14-.17.26-.35.29-.55.03-.09.14-.23.11-.35,0-.2.06-.35.2-.46.2-.17.4-.29.63-.35.12.17.06.29-.06.46Z"/>
    <path class="st0" d="M46.48,62.26c.09.03.14.11.23.17-.12.32-.29.58-.37.89,0,.09-.09.12-.09.14-.12.09-.14.2-.09.37.03.14-.03.23-.14.26-.06.06-.17.09-.29-.06-.06-.12-.12,0-.12.06-.03.14-.06.23-.23.26-.03,0-.09.09-.14.14.29.09.34-.23.6-.26.06.58-.23.89-.55,1.18-.06.06-.09.09-.14.17,0,.12-.95,1.21-1.06,1.29-.14.17-.35.32-.49.52-.12.17-.34.23-.52.32-.17.11-.35.26-.49.43-.23.26-.49.37-.81.49-.06,0-.12,0-.14.03-.2.23-.37.17-.63.11-.14-.06-.35-.06-.49-.09-.32-.03-.49-.17-.78-.37-.17-.14-.37-.29-.49-.52-.14-.26-.32-.43-.43-.66-.2-.26-.14-.58-.09-.83,0-.29.09-.58.23-.83.03,0,.06-.03.03-.03-.17-.26.06-.37.12-.55.23-.58.6-1.01.75-1.61.06-.17.17-.35.32-.46.09-.17.12-.29.17-.43.11-.29.29-.55.46-.81.2-.26.35-.55.43-.86.12-.29.23-.58.46-.78.03-.03.06-.06.06-.09.37-.8.92-1.52,1.38-2.3.34-.63.78-1.24,1.12-1.9.09-.06.17-.12.17-.26-.12.03-.2.09-.32.14-.03.03-.06.03,0,.06-.26.06-.49.17-.66.43-.06.09-.17.09-.32.12-.06.03-.09.03-.12.12,0,0,0,.03.03.03.06.06.12.03.14-.03,0-.03.03-.03.06-.03.03.09.06.14,0,.17-.29.12-.43.37-.72.49-.09,0-.14.09-.23.14-.06-.12.03-.14.09-.17.12-.12.23-.14.35-.26.03-.03.09-.03.06-.12-.03-.06-.09-.03-.14,0-.14.09-.29.17-.43.29l-.23.17c-.06.03-.09.12-.06.17.09.2-.06.26-.17.35-.32.37-.69.66-1.01,1.04l-.46.69c-.2.29-.4.55-.63.81-.49.55-.89.92-1.38,1.47-.46.49-.95.92-1.35,1.41-.26.26-.55.8-.81,1.09-.26.2-.46.49-.69.69-.2.17-1.04,1.55-1.27,1.7-.09.12-.14.32-.23.46-.17.4-.4.78-.63,1.18-.06.09-.14.14-.2.23-.14-.06-.23,0-.37,0-.29.03-.52-.14-.66-.35-.12-.14-.26-.2-.4-.37-.14-.26-.17-.52-.09-.8.23-.37.52-.75.66-1.18.2-.32,1.12-1.84,1.27-2.19.09-.23.2-.46.29-.72.17-.34.43-.6.49-1.01,0-.06.03-.09.06-.12.12-.09.12-.2.17-.32.2-.26.26-.6.43-.83.09-.09.72-.78.75-.89.26-.43.49-.83.63-1.29.12-.29.26-.55.4-.83.14-.66.46-1.24.58-1.9.06-.03.09-.09,0-.12-.06-.03-.09,0-.12.03-.14.03-.32-.37-.12-.69.29-.09.58-.14.86.09.14.11.32.23.52.34.17.09.37.12.58.23.12.03.26.14.35.29,0,0,.03.06.03.09.06.12.09.26.03.34-.06.17-.12.38-.14.52-.06.11-.09.23-.14.37t-.03.03c-.12.32-.23.6-.37.89-.17.35-.29.75-.49,1.06-.09.23-.2.52-.32.72-.14.14-.75.92-.83,1.01-.17.23-.17.52-.32.75-.09.17-.2.43-.26.66.23-.26.43-.55.66-.8.6-.6,1.12-1.21,1.7-1.84.46-.52.92-1.06,1.41-1.55.49-.49,1.01-.95,1.55-1.29.12-.03.14-.17.29-.2.37-.09.58-.43.92-.57.37-.12.69-.43,1.12-.55.2-.06.4-.17.58-.32.26-.2.52-.14.72.17.17.2.34.32.52.4.32.14.58.37.58.78,0,.06,0,.09-.03.12-.23.32-.4.69-.63,1.01-.17.23-.29.52-.49.69-.14.12-.17.32-.29.46-.34.52-.69,1.01-1.06,1.52-.11.14-.14.35-.34.4v.06c.12.32-.14.43-.29.6-.06.12-.14.2-.23.32-.03.12-.06.2-.17.23-.09.03-.12.03-.09.2.03.06-.03.2-.09.29-.14.14-.2.32-.37.43-.03,0-.06.03-.06.03.06.23.03.35-.14.4,0,0-.03.03,0,.06.12.17-.03.2-.11.26-.06.06-.2.17-.12.26,0,.2-.09.23-.17.32l-.26.26s-.06-.06-.12,0c.06.03.09,0,.12,0-.03.09-.03.2-.06.32s-.09.26-.23.2c-.17,0-.12.14-.12.17.17.2-.03.37-.09.52-.09.26-.23.55-.32.81,0,.03-.03.06-.03.06-.2.11-.17.37-.26.58-.03.11-.06.23-.11.29-.14.14-.03.32-.09.46.03.03.14.09.17.03.2-.23.55-.06.75-.2.29-.23.63-.37.95-.58.06-.06.14-.14.17-.32-.03-.14.17-.26.29-.37.26-.29.58-.58.86-.83.17-.17.32-.37.58-.49.06-.03.09-.17.09-.23.98-1.24,1.21-1.32,1.32-1.52.03-.06.09-.06.12.03.06.06.14.09.17.12-.03.09-.09.09-.17.06-.09,0-.12.03-.12.09,0,.03,0,.09-.03.09-.17-.03-.17.17-.29.26-.12.14-1.12,1.27-1.29,1.38-.35.32-.66.69-1.06,1.04,0,.03-.09.06-.03.12.03.06.06,0,.11,0,.06-.06.14-.09.2.06.03.09.14.03.2,0,.43-.43,1.78-1.87,2.13-2.39.17-.29.49-.49.58-.83,0-.09.12-.03.17-.12-.06-.09-.14-.03-.23-.09,0-.06.09-.14,0-.23.09-.06.2.17.23,0,.03-.11-.14-.06-.17-.14.09.03.17-.03.29.06.09.12.12.06.23,0,.03-.03.03-.06,0-.12-.11-.06-.23-.12-.29-.17-.03.17-.17.11-.23.23,0,.06-.03.09-.06.14-.03-.03-.03-.06-.03-.09.03-.23.29-.37.55-.29h-.06v.03l.06-.03ZM32.65,66.15c-.26.06-.12.32-.23.46-.03.03,0,.12.14.14.03-.2.23-.34.09-.6ZM32.62,66.09s.03.03.03.03c.03,0,.03-.03.03-.06v-.09c-.03-.06-.06-.06-.09,0-.06.06,0,.09.03.12ZM32.82,65.86c.06-.03.14-.06.12-.14,0-.06-.06-.09-.12-.09-.06.03-.11.09-.09.17,0,.03.03.06.09.06ZM33.19,64.91s.03-.03.06-.03c.03.06,0,.09-.06.17-.03-.03-.03-.06-.03-.09l-.26.46v.03c.06-.03.12-.03.17-.06.14-.03.75-1.38.78-1.5.03-.03-.03-.06-.06-.06-.06.03-.09.12-.11.2l-.49.86ZM33.6,64.33c-.03-.09.03-.14.11-.23,0,.11-.09.2-.11.23ZM33.68,63.24s.03.03.06.03.06-.03.06-.06c-.03-.03-.03-.06-.06-.06,0,0-.06.03-.06.09ZM34.06,63.59s0-.09-.06-.06c-.06.03-.17.06-.17.17.03.09.09.09.14.09.09-.06.11-.12.09-.2ZM34.06,63.62c0,.06-.03.12-.09.17-.03,0-.03-.06-.03-.06.03-.06.06-.06.11-.12ZM34.17,63.33l.06-.09v.09c.06,0,.11,0,.17-.09-.06-.06-.11,0-.14-.06,0-.06.03-.12.06-.12.06-.09.09-.17.14-.2-.09,0-.14,0-.17.06-.12.12-.17.23-.17.4h.06ZM34.23,62.15c.11-.09.26-.12.35-.2.03,0,.09.03.09-.03,0,.03-.06.03-.09.03h-.09c-.23-.09-.2.09-.26.2ZM34.49,62.87c-.03.09-.06.12-.09.14.06,0,.12-.03.14-.11-.03,0-.06,0-.06-.03ZM34.46,62.61c.06.06.09.03.12-.03-.06-.03-.12-.03-.12.03ZM34.75,62.09c-.09.03-.12.06-.12.12v.06l-.03.03v.09c.14-.06.2-.11.2-.23l-.06-.06ZM37.08,61.8c-.03.06-.17-.06-.2.06,0,.03.03.06.06.06.09.03.17,0,.14-.12ZM37.79,60.91c-.23.12-.26.32-.37.46-.11,0-.17.06-.17.17.03.03.06.03.09.03.11-.03.09-.12.09-.2.14.03.23-.06.35-.09.17-.09-.09-.23.03-.37ZM38.17,60.97c-.09-.12-.17-.23-.26-.23-.06,0-.12.09-.06.14.06.12.14.09.32.09ZM38.28,60.51c-.12.06-.2,0-.23.09,0,.09.12.06.17.09,0-.06.03-.09.06-.17ZM39.78,58.73c-.17.23-.35.35-.46.52-.09.17-.26.26-.37.4-.14.12-.32.26-.4.43-.09.14-.23.23-.32.35q.2.09.23-.06c.03-.06.09-.09.12-.09.2-.12.46-.23.55-.52.09-.14.06-.43.35-.4-.03-.03-.03-.06-.03-.06q0-.06.06-.09c.11-.03.29-.26.29-.49ZM39.18,66.15c-.12.14-.17.34-.17.55.03.09.03.14.09.14.06.03.03-.03.06-.09.03-.09.03-.14.06-.17.14-.14.14-.29-.03-.43ZM39.32,65.83c-.09.06-.09.12-.09.14s.03.06,0,.06h.03s-.03-.03-.03-.06c.12,0,.12-.06.09-.14ZM39.64,65.37c0-.06-.03-.06-.09-.06-.09,0-.11.06-.14.11.03.06.09.09.09.09.14,0,.17-.06.14-.14ZM39.87,65.03c-.11-.03-.2-.03-.2.17.09-.06.17-.12.2-.17ZM40.24,65c-.09-.12-.09-.35-.29-.29-.03,0-.12-.03-.12.09,0,.06.03.06.09.12.06.03.14.06.2.14,0,0,.03.03.06,0,.03,0,.06-.06.06-.06ZM40.35,58.12c-.06-.06-.14-.06-.14.03-.09.17-.23.32-.32.49.09-.03.23.06.26-.03-.03-.17.12-.23.17-.35.03-.06.09-.09.03-.14ZM39.98,64.57s.06.03.12.03c.09-.03.03-.14.06-.2.06-.06.12-.14,0-.23-.03-.06-.09-.06-.09-.03-.09.09,0,.12.03.17-.06,0-.12-.06-.17.03-.03.09,0,.14.06.23ZM40.41,64.51s.03-.03.03-.06c.03-.03.03-.06,0-.06-.06,0-.06.06-.03.12ZM40.53,63.1c.06.03.06-.03.09-.06.23-.35.43-.72.63-1.12-.06.03-.09.03-.09.03-.29.32-.52.63-.66,1.01-.03.06-.03.09.03.14ZM45.16,64.82c0-.06-.92.86-.98.86-.03,0-.03.06-.03.09.03.03.03.09.09.09,0,0,.92-1.01.92-1.04ZM47.17,61.2c-.03.09-.03.17-.14.17.03.26-.12.43-.26.58-.09.11-.17-.06-.29-.06.06-.09.09-.09.14-.06.06.03.14,0,.14-.03-.09-.2.09-.26.12-.43,0-.09.06-.03.12,0t.03-.06c-.03-.09,0-.14.09-.17.03-.03.06.03.06.06ZM47.46,60.83c-.06.09-.09.23-.29.29.06-.17.17-.26.2-.4,0,0,.06-.03.06,0,.06,0,.03.06.03.12Z"/>
    <path class="st0" d="M47.38,68.88c-.43-.17-.66-.6-1.06-.83-.2-.12-.32-.35-.37-.6-.2-.92-.09-1.84.29-2.73.06-.12.12-.23.12-.34,0-.17.03-.32.11-.4.23-.29.29-.66.37-1.01.06-.26.23-.46.32-.69.23-.52.6-1.01.69-1.58.03-.14.12-.23.2-.35.14-.14.72-1.18.75-1.41.06-.26.23-.49.34-.72.2-.37.69-1.06.83-1.47.06-.14-.06-.12-.14-.12-.72.2-.11.12-.83.2-.37.03-.8.09-1.15-.2-.2-.14-.17-.37-.26-.55-.03-.09.2-.2.37-.23.55-.14,1.12-.14,1.67-.17.75-.03.14-.12.86-.17.2-.03.32-.11.4-.29.14-.26.35-.49.49-.75.06-.14-.06,0,.06-.14.46-.66.69-1.41,1.15-2.07.34-.46.26-.78.81-1.52.17-.23.2-.26.17-.37-.12-.26.03-.37.2-.49.17-.09.37-.2.49-.37.09-.09-.06-.12.09-.06.2.09.43.09.6.17.2.03.34.03.69.06.43.03.66.75.58,1.12-.09.32-.17.66-.43.89-.29.26-.4.63-.72.86-.17.14-.32.37-.29.72-.12.26-.32.46-.52.69-.34.35-.26.52-.4.86-.06.09-.17.12-.2.23-.12.26-.09.32.2.35.63.06,1.27-.03,1.9,0,.49.03.98-.03,1.47.09.17.03.34-.06.52-.06.29-.03.58.06.83.14v.09l-4.17.17c.14.23.46.14.66.29-.4.03-.81,0-1.21.09-.32.06-.32-.09-.6.17-.06.06-.14.09-.17.17-.09.4-.55,1.01-.92,1.24-.12.06-.29.23-.32.43,0,.09-.06.14-.14.17-.09,0-.09-.09-.12-.14s-.09-.14-.23-.09c.17.17.06.4.26.55.12.09,0,.14-.06.2-.06.09-.14.17-.26.2.14.14-.29,1.12-.52,1.21-.06,0-.09.03-.09.09,0,.23-.17.35-.32.49-.09.09-.12.2-.26.14-.14-.09-.09-.2-.03-.32-.17-.03-.34-.03-.49.03,0,.14.12.06.14.14-.09.09-.17.2-.34.17q-.35-.03-.23.26v.17c0,.26.12.32.32.2.17-.06.26.09.34.14.06.06,0,.17-.06.26-.06.14-.17.09-.29.03-.09-.03-.17-.03-.26-.03.06-.12-.14-.46-.26-.46-.03,0-.06.03-.09.03-.03.09-.03.17-.11.23-.06.06-.12.11-.2.17-.03-.03-.06-.06-.06-.09-.06-.06-.06-.2-.17-.12-.12.09.03.12.06.17.06.17,0,.37-.06.52-.12.17-.12.35-.09.55.14-.06.2-.23.37-.23-.06.2-.03.35.23.35-.12-.43.17-1.01.69-.92l-.17.49c-.12-.06-.09-.17-.14-.23-.17.17-.32.35-.06.55.06.03,0,.09-.03.14-.2.49-.49.95-.78,1.41-.14.2-.29.37-.14.66.03.06,0,.17-.06.23-.26.26-.2.66-.37.95-.2.35.03.6.06.92.03.4.09.37.46.23.49-.17.98-.37,1.5-.55.26-.12.43-.37.66-.55.29-.2.66-.34.92-.6.03,0,.06,0,.09-.03q.26-.14.43,0l.03-.03c-.17-.23-.06-.32.09-.52.26-.35.6-.55.86-.86.14-.14.35-.2.52-.32.17-.12.23.03.2.2.26.06.46.03.58-.26,0-.03.03-.06.09-.09.66-.4,1.12-1.01,1.7-1.5.03-.06.09-.09.23-.09-.98,1.21-2.24,2.01-3.25,3.11.12.03.26.03.26.2,0,.06,0,.12-.03.12-.4.14-.43.66-.83.78-.06.03-.09.09-.06.14.03.06.09.06.12.06.14,0,.2-.12.32-.2.06-.06.14-.09.26-.12-.17.23-.4.37-.63.55-.43.32-.89.63-1.35.95-.32.23-.69.34-1.04.46-.34.12-.6.37-.95.43-.17.43-.52.14-.78.2-.29.06-.55-.14-.83-.26ZM46.83,64.19c-.23.17-.17.49-.29.72.2-.2.26-.46.29-.72ZM46.8,66.55s-.03-.03-.03-.06l-.06.06s.03.06.06.06c0,0,.03-.03.03-.06ZM47.46,64.77c-.06-.06-.49,0-.63.17.23-.09.32,0,.37.12.06.06.09.23.2.09.09-.09.2-.23.06-.37ZM47.09,63.73s.03-.09,0-.14c-.06,0-.09.03-.12.06-.03.09-.14.17-.06.29,0,.03.03.03.06.03.12-.03.06-.14.12-.23ZM47.26,65.51c.06-.03.17-.09.06-.14-.09-.09-.2-.06-.23.03-.06.17-.12.37-.09.63.14-.2.09-.43.26-.52ZM50.88,56.54c-.23.09-.32.23-.4.37-.2.29-.58.95-.78,1.24-.23.26-.35.58-.49.86-.78,1.44-1.01,2.07-1.38,2.59-.14.2-.26.4-.26.66,0,.14-.06.23-.14.32-.23.23-.23.52-.23.83.98-1.9,2.7-4.95,3.68-6.87ZM47.35,64.05s-.03-.06-.09-.06c-.03,0-.06.03-.06.06.03.06.03.09.09.06.03,0,.06-.03.06-.06ZM47.63,64.22c.06-.03.09-.06.06-.14h-.03c-.06.03-.03.09-.03.14-.12.03-.2.06-.26.14-.03.11,0,.2.12.17.17-.03.23-.17.14-.32ZM47.63,63.33c0-.06,0-.09-.06-.09-.03,0-.06.03-.06.03,0,.06,0,.09.03.12.06,0,.09-.03.09-.06ZM47.78,65.11c-.2.06-.06.23-.12.32.06-.09.14-.17.12-.32ZM47.98,63.62c0-.09.03-.2-.11-.2-.12.03-.2.09-.17.2,0,.12.03.26.17.23.11,0,.11-.11.11-.23ZM47.98,62.75c0-.06-.03-.09-.09-.09s-.09.03-.09.09.03.09.09.09c.03,0,.06-.03.09-.09ZM48.09,63.21s-.03-.06-.06-.09-.06,0-.09.09c0,0,.03.03.06.03.06,0,.09,0,.09-.03ZM48.44,63.64s-.03-.09-.06-.06c-.12.06-.12.17-.14.26,0,.03,0,.06-.03.12.2-.06.2-.2.23-.32ZM48.58,63.33c-.06-.09-.12-.11-.17-.09-.03,0-.06.06-.03.09.06.03.11.06.2,0ZM48.76,63.64s-.03-.06-.09-.09c-.03.03-.06.06-.06.09,0,.06.06.09.12.09.03,0,.03-.06.03-.09ZM48.84,62c0-.06.06-.09.12-.09s.09.06.09.09c-.03.09-.06.12-.12.12s-.09-.06-.09-.12ZM49.85,60.39c0-.09-.06-.12-.12-.12s-.09.03-.09.09.03.11.09.11.12-.03.12-.09ZM49.91,61.11c-.09.14-.09.26-.23.32,0-.14,0-.29.23-.32ZM50.25,60.19c0-.12.29-1.01.23-1.09-.12.03-.6.95-.63,1.04,0,.09.06.2.17.17.09-.03.23,0,.23-.12ZM50.34,60.39s-.03.06-.03.09c.03.06.03.12.12.06.03-.03-.03-.09-.09-.14ZM51.37,58.99c-.09-.26-.29-.32-.35-.46-.06-.09-.17-.2-.32-.09-.2.14-.14.32-.06.52.12.17.17.09.26.06.14-.06.26-.17.46-.03ZM51.03,66.72c0-.06-.06-.06-.11-.06-.03,0-.09.03-.06.06,0,.06.03.09.09.09s.09-.03.09-.09ZM51.34,66.38c-.06,0-.11.03-.11.09,0,.17.11.09.2.12,0-.09.06-.17-.09-.2ZM51.66,55.3c.14-.17.26-.37.32-.6.03,0,.09,0,.09-.06,0-.03-.03-.03-.03-.03-.06,0-.06.06-.06.09-.14.17-.34.32-.46.52-.03.06-.09.12-.03.14.09.09.14,0,.17-.06ZM52.15,66.58s.06,0,.06-.06l-.06.06c-.06-.03-.03-.17-.14-.09-.06.03-.06.09,0,.12.06.09.12.03.14-.03ZM52.55,65.49c.03-.2.32-.14.35-.32.12.06.2.06.2-.06.03-.11-.06-.2-.14-.26-.09-.06-.23,0-.23.09-.06.2-.2.29-.34.4-.06.03-.09.06-.06.14,0,.06.06.12.14.12.06.03.06-.06.09-.12ZM53.5,66.03l-.2.17c0-.14.09-.2.2-.17ZM53.85,63.88c0-.12.03-.17.12-.17.06,0,.11.03.09.09-.06.06-.03.14-.12.14-.09.03-.06-.06-.09-.06Z"/>
    <path class="st0" d="M55.46,69.02c-.2-.03-.29-.12-.32-.32-.03-.12.14-.06.14-.14-.09-.06-.12-.17-.14-.29-.03-.09-.06-.12-.14-.14-.2-.06-.26-.26-.23-.43l.12-.29c.14-.23.23-.52.29-.75.06-.2.14-.37.23-.58.12-.29.29-.6.32-.98.06-.17.17-.32.29-.46.17-.4.4-.78.58-1.18l.75-1.55c.09-.12.17-.26.29-.4.06-.12.12-.23.12-.37-.03-.03,0-.09-.03-.12l.81-1.75c.32-.29.43-.72.78-1.01.23-.2.14-.43.32-.66.23-.29.09-.09.2-.46.17-.29.35-.52.49-.78.14-.26.29-.46.34-.72l.03-.09c.26-.17.4-.46.49-.8.12-.4.55-.49.95-.38.14.03.29-.03.43.09.23.17.58.11.81.29.2.14.46.49.43.69-.03.35-.17.6-.4.83l-.78.86c-.26.26-.06.03-.32.26-.14.17-.2.43-.37.58-.09.09-.14.2-.23.29-.12.09-.2.26-.23.4-.12.2-.2.4-.34.58-.12.09-.12.26-.26.35-.2.17-.23.43-.4.6-.06.06-.09.14-.26.06.12.14.14.23,0,.26-.12,0-.09.14-.14.2-.06.09-.06.17-.2.12-.09-.06-.23,0-.35-.03v.06c-.09-.03-.12.06-.17.12-.06-.06-.11-.12-.14-.17-.03-.03-.06-.09-.12-.03s-.06.12-.03.14c.03.03.06.06.12.09.12.03.12.09.09.17,0,.03-.03.09,0,.12.06,0,.09-.03.12-.06,0-.03-.03-.12.06-.09.09-.09.12-.17.09-.29.09.03.14.06.09.17,0,.06.06.14.06.2h.03s-.03,0-.03.03c-.2,0-.23.06-.06.26-.17-.06-.2.06-.29.2.03-.14-.32-.09-.03-.34-.17.03-.26.14-.35.2-.03-.06,0-.12,0-.17-.14-.09-.26.06-.34.14-.06-.09-.06-.29-.17-.17-.14.17-.26.37-.34.58.11-.03.17-.06.23-.2.06-.14.14-.2.29-.09.06.03.09.03.09.03.03.03.03.09.09.06v-.03s-.06-.03-.09-.03c.06-.12.17-.06.26-.12,0,.17.14.14.26.2-.17.06-.06.2-.12.32-.06.09-.11.23-.14.32-.06.06-.12.14-.06.17.09.06.12-.03.14-.06t.09-.03c-.03.23-.09.4-.17.58-.17.26-.37.46-.46.72-.06.06-.06.11-.14.14-.23-.03-.29.06-.29.29,0,.09.03.29-.12.37-.03,0-.09,0-.09.03.03.17-.03.32-.2.4.09.26-.06.46-.14.69-.11.17-.26.37-.32.6-.06.14-.11.26-.14.4-.06.12-.12.17-.26.12-.03,0-.06-.03-.12.03,0,.06.06.09.09.12.11.26.06.55-.03.81,0,.03-.03.06-.03.09.34-.17.78-.29,1.09-.49.46-.23.81-.52,1.24-.72.26-.17.6-.46.86-.58.4-.29.89-.75,1.29-1.04.43-.29.66-.58,1.09-.89.23-.29.49-.52.72-.75.06-.03.12-.09.14-.06-.03.12-.14.17-.2.29l-.09.03c-.06.09-.17.14-.09.26.06.09.17.06.26-.03.03-.03.06-.03.09.03.03.03.03.06,0,.09-.29.17-.4.4-.6.63-.26.29-.52.58-.83.83-.23.14-.4.37-.6.55-.23.2-.69.6-.95.78-.14.12-.26.32-.46.4-.34.12-.63.4-.92.6-.46.29-.95.6-1.41.83-.35.14-.69.35-1.01.43-.2.09-.46.14-.63,0-.09-.03-.14-.06-.2-.06ZM55.55,67.18s.06-.03.06-.06c.03-.06.06-.17,0-.2-.09-.06-.06.06-.09.09l-.09.09c-.03.06-.09.14-.03.2s.12-.06.14-.12ZM55.75,67.53s.06-.09.03-.14c-.03-.03-.06-.03-.09-.03-.03.12-.09.2-.11.32-.03.03,0,.06.03.06.12-.03.12-.12.14-.2ZM55.69,66.72c.09-.14.14-.32.23-.49.03-.06.03-.17.17-.06.09.12.17.12.23-.06,0-.09,0-.17.03-.26l-.09.09c-.09.2-.11.2-.29.03l.06-.06c.06,0,.12-.03.06-.09-.03-.03-.09-.03-.12,0-.2.26-.35.52-.37.86,0,.03-.03.09.03.09s.06-.03.06-.06ZM55.89,66.92c-.09.06-.17.12-.14.26,0,.03.06.06.09.06.11-.09.06-.17.06-.32ZM56.04,67.5c.12-.06.12-.17.14-.32-.09.09-.17.14-.2.23-.03.03-.06.06-.03.11.03.03.09,0,.09-.03ZM56.15,66.49v-.09s-.06-.03-.09,0c-.09.09-.2.17-.06.34l.14-.26ZM56.15,67.9c-.06,0-.09-.03-.17.06.12.03.17.06.17-.06ZM56.12,67.76c.09-.03.14-.06.09-.14l-.09.14.06.12c0-.06,0-.09-.06-.12ZM56.26,65.54c.09-.23.17-.43.29-.63t.03-.06s-.06-.03-.09-.03c-.06.06-.09.09-.12.14-.03.17-.12.32-.17.43-.03.06-.09.14-.03.2.06.03.09,0,.09-.06ZM56.5,65.63s-.12.09-.17.17l.03.03c.09-.03.2-.06.14-.2ZM56.67,66.72c-.06-.17.09-.37.12-.43.17-.14.03-.2-.06-.29-.03-.03-.09-.06-.03-.11.06-.03.06.03.09.06.09.09.14.03.2,0,.09-.03.12-.14.06-.17-.03-.06-.12-.09-.06-.17.03-.06.12-.03.2-.03.09.03.2.06.12-.12h.03c-.09,0-.29-.06-.23-.12.03-.14-.03-.26-.03-.37-.06,0-.12.03-.14-.03-.03-.06-.03-.14.06-.17.03,0,.03-.09-.03-.14-.03-.03-.09,0-.12.06-.06.03-.06.09-.11.11-.06.12-.06.23.09.29.03.03.09.06.06.12-.06.12-.03.32-.14.43-.2.17-.14.43-.32.58-.03.03-.03.14.03.23.09,0,.06-.17.2-.17-.06.26-.12.46-.2.66.14-.06.26-.17.23-.2ZM56.78,63.96s.03-.09,0-.12c-.03-.03-.09,0-.14.03-.09.09-.06.2,0,.29l.14-.2ZM56.81,64.36s-.03-.06-.06-.03c-.09.06-.09.14-.03.23.06-.09.11-.12.09-.2ZM56.93,63.99c-.09.09-.2.09-.17.2,0,.03.03.09.09.06.09-.03.09-.12.09-.26ZM57.1,64.48s-.09-.06-.12-.03c0,.03.03.06.03.06.03.03.09.06.09-.03ZM57.01,63.88c.06,0,.14-.03.2,0,.14.17.26,0,.4-.03-.14-.06-.09-.17.03-.23-.03-.09,0-.14.06-.2.06-.03.12-.09.12-.14.03-.26.12-.32.34-.29-.11.06-.11.17-.11.29-.03.12-.06.17-.14.2,0,.03.03.06.03.09v.06s-.06.06-.03.09c.03.06.06.06.09.03.03-.03.03-.06,0-.09,0-.03-.06-.06-.06-.09.14,0,.23-.12.2-.23.03-.14.14-.23.23-.34.14-.09.14-.17.09-.32-.17,0-.17.2-.35.17,0-.09.14-.03.09-.14,0-.03-.03-.09-.06-.11-.09,0-.14.06-.17.11l-.03.03c-.09.2-.17.43-.37.6-.09.12-.12.2-.14.32-.03.14-.09.26-.26.17-.09-.06-.11,0-.14.06,0,.03-.03.03,0,.06v-.06ZM57.24,63.01c-.14.03-.2.14-.23.29.17-.03.2-.17.23-.29ZM57.3,64.82c.03-.14.14-.12.26-.14.17.03.2-.17.2-.26.06-.12-.09-.06-.12-.12v-.03c.17-.03.23-.14.29-.23.03-.03,0-.09-.03-.14,0-.06-.09-.09-.12-.06-.11.09-.26.17-.32.37-.03.09-.09.29.17.32-.29,0-.4.2-.58.35.09.03.23.03.23-.06ZM57.24,64.05l-.06-.03c-.09.06-.06.14-.06.26.09-.09.14-.14.12-.23ZM57.42,63.18c.09-.06.09-.12.11-.2-.11.03-.11.12-.11.2-.03.09-.14.09-.12.2.12,0,.14-.09.12-.2ZM57.59,61.08s.06-.06.12-.06l-.14.26c.03-.06,0-.14.03-.2ZM57.7,62.24c.12-.17.14-.34.32-.52.03-.03,0-.09-.03-.12-.06-.03-.09,0-.12.03-.06.2-.12.37-.26.55,0,.03,0,.09.06.09,0,0,.03,0,.03-.03ZM57.85,62.32c.06,0,.14,0,.17-.03-.03-.06.06-.12,0-.23l-.17.26c-.09.09-.11.2-.11.32.11-.06.23-.11.11-.32ZM57.88,60.97c.03-.17.17-.29.32-.43v-.09s0-.06-.03-.06t-.03,0c-.14.17-.26.35-.37.55-.03.03.03.06.06.09.03.03.06-.03.06-.06ZM58.39,62.26c0-.06-.03-.12-.09-.09-.06.03-.14.09-.14.17,0,.06.03.12.09.12.09-.09.12-.12.14-.2ZM58.39,59.99s-.12-.03-.12-.03c-.14.09.03.14,0,.23.06-.06.12-.12.12-.2ZM58.37,60.88s.11,0,.09-.09c-.09-.03-.09.06-.09.09-.06.03-.12.12-.12.23.12-.09.12-.17.12-.23ZM58.57,59.73c-.12-.03-.12.06-.14.14.12.03.12-.03.14-.14ZM58.62,60.51s-.03-.03-.06-.03c0,0-.03.03-.06.03.03.03.03.06.06.06s.03-.03.06-.06ZM58.68,61.06c0-.12.03-.23.12-.29.12-.12.17-.23.26-.34-.06-.06-.09,0-.11,0-.14.03-.12.2-.17.26-.14.09-.17.23-.23.34-.03.03-.03.09.03.09s.09,0,.11-.06ZM58.71,62.93c0-.06,0-.12-.09-.12s-.03.06-.03.12c-.03.06-.06.12.03.12.03,0,.09-.06.09-.12ZM58.97,61.03v-.09h-.03s0,.03-.03.06c0,.03-.03.06-.03.06-.03.06-.09.11,0,.14.09,0,.06-.12.09-.17ZM59.49,60.51s.03-.03.06,0c.12.03.09-.09.12-.12.03-.06,0-.09-.03-.09-.06.09-.2-.06-.26.03-.03.03-.11.09-.03.17.03.06.09.17.14,0ZM59.77,59.99c-.06-.03-.09.03-.09.06-.03.03,0,.06.03.06.06,0,.06-.03.06-.12ZM59.95,60.14h-.09s-.06,0-.06.03c.03.06.06.06.09.03.03,0,.06-.03.06-.06ZM60.46,59.93s0-.14-.09-.14c-.09-.03-.09.06-.09.12s.03.11.12.14c.06.03.06-.06.06-.12ZM62.59,64.36c0-.12.14-.14.14-.29-.14,0-.26.12-.26.23,0,.03.06.06.06.06h.06ZM63.34,63.1c0,.12-.03.17-.14.23.06-.14.09-.2.14-.23ZM63.37,63.5c.03-.06.06-.09.12-.12.06,0,.06.06.06.09,0,.06-.03.11-.09.11-.03-.03-.06-.03-.09-.09ZM63.66,63.21c0,.06.03.14-.09.14-.03-.09.09-.09.09-.14ZM63.94,62.98q0,.14-.11.23c.03-.09.03-.17.11-.23ZM64.84,50.41s0-.2,0-.26c.17-.63.49-1.21.72-1.78.26-.66.6-1.29.89-1.93l.26-.63c.09-.2.32-.23.52-.23.26.09.46.2.72.11h.03c.09.26.34.12.46.12s.2.09.29.17c.06.12.14.2.26.32.03.06.09.12.06.14-.12.37-.14.72-.46.98-.26.14-.49.4-.66.75-.12.2-.32.26-.37.46-.2.32-.58.49-.75.83-.09.17-.37.2-.52.35-.09.06-.12.06-.17.14,0,.06-.03.09-.09.09-.4.09-.55.43-.75.75-.03,0-.03.03-.06.06,0,0-.06,0-.09.03-.03-.17.09-.26.09-.43-.23.14-.43.26-.55.57-.03.06-.06.12-.14.12.17-.23.12-.52.32-.72ZM64.98,61.75c.03.06.06.09-.03.14-.03-.09,0-.12.03-.14ZM65.12,61.6c-.03.06-.06.12-.14.14.06-.09.06-.11.14-.14ZM66.19,60.16c-.03.09-.06.14-.17.17.03-.12.06-.17.17-.17ZM66.56,59.27c.06-.03.09-.14.14-.06.09.09-.03.09-.06.12-.12.17-.14.4-.32.58-.03.06-.06.11-.17.11.2-.23.23-.52.4-.75ZM66.79,58.99c.03-.12.06-.2.2-.23-.03.11-.14.14-.09.26,0,.03-.03.06-.09.06-.03-.03-.03-.06-.03-.09Z"/>
    <path class="st0" d="M74.59,59.39c-.11.17-.17.4-.29.55-.14.32-.29.63-.52.89-.14.17-.17.43-.29.63-.09.12-.14.14-.23.14,0,.2-.09.35-.2.49-.06.06-.09.12-.09.2-.03.26-.23.34-.4.43q.14.2.34-.06c.26-.4.58-.83.92-1.21.03.12,0,.17-.12.26-.12.12-.14.29-.26.43-.32.43-.69.8-.89,1.27-.12.17-.23.26-.35.4,0,.06.09,0,.09.09-.23,0-.26.23-.29.32-.26.66-.06.03-.26.66-.12.34-.32.66-.4,1.01-.06.23-.17.37-.29.6-.03.09-.09.2-.26.12-.17-.03-.32,0-.49-.03-.43-.03-.63-.14-.78-.58-.03-.14-.03-.37-.29-.17-.03.03-.06-.09-.06-.12-.09-.2,0-.37.09-.52.17-.26.29-.52.43-.75.12-.26.2-.52.34-.75.14-.23.29-.49.43-.78.23-.4.43-.86.69-1.29.23-.49.49-.98.75-1.47.17-.55.37-1.04.75-1.5.2-.26.29-.58.4-.89.2-.46.43-.89.6-1.35.14-.46.29-.95.4-1.41.03-.09,0-.2-.14-.09-.11.03-.17.09-.29.12-.09.03-.17.23-.35.06-.06-.06-.17.09-.26.2-.23.2-.4.49-.69.72-.03.03-.06.06-.09.12,0,0,0,.06.03.09,0,.06.03,0,.06,0,.06-.09.09-.14.23-.14-.26.26-.46.55-.72.78.09-.23.26-.35.37-.55-.26.03-.35.14-.46.34-.06.09-.09.2-.14.32-.06.09-.14.03-.23-.06,0,.06-.03.06-.03.09-.03.23-.12.4-.37.49-.09.03-.09.2-.17.34-.06.03-.06.14-.14.03-.03-.03-.06.03-.06.06.03.17-.03.23-.14.26-.14.03-.14.17-.14.29-.06.09.06,0,.09.09-.23.03-.43.12-.46.37-.17.12-.43.43-.49.6.09-.09.17-.14.23-.26-.06.17-.14.29-.32.34-.12,0,.03.11-.03.17-.17.14-.23.46-.52.58-.06,0-.06.03-.06.09.03.09-.06.12-.14.2-.06-.03,0-.09,0-.14-.14.14-.34.29-.32.55,0,.06-.06.09-.09.14-.35.55-.72,1.04-1.06,1.58-.43.69-.89,1.32-1.24,1.96-.17.26-.23.58-.34.86-.17.46-.46.89-.69,1.29-.06.09-.09.14-.09.2-.06.2-.09.34-.32.49-.12.03-.2.14-.23.32,0,.06-.09.12-.14.12-.29-.06-.58.06-.86-.06-.17-.12-.43-.2-.46-.46-.03-.06-.03-.12-.06-.12-.14-.09-.14-.17-.03-.23.09-.09.09-.17.03-.29,0-.09-.03-.12-.14-.03-.06.03-.09.03-.12,0-.06-.09-.09-.14-.03-.17.06-.12.11-.23.29-.26.26,0,.4-.09.6-.26.03-.06.06-.09.12-.09.03-.03.09-.06.09-.11,0-.37.34-.63.43-.98.37-.14.29-.6.52-.81h.09s-.06.06,0,.06c.03-.03,0-.03,0-.06,0-.06-.06-.17-.12-.2,0-.09.03-.17,0-.32-.03-.03,0-.06.03-.06.2.06.23-.06.32-.09.09-.03.12-.14.09-.2-.12-.14.03-.29.14-.37.09-.09.17-.26.17-.37-.06-.14.09-.12.12-.23.12-.2.23-.43.4-.6.03-.06.06-.14.12-.23.03-.17.09-.34.14-.55.09-.2.32-.43.29-.72,0-.06.12-.09.14-.14.12-.23.17-.49.2-.69.03-.17.17-.26.2-.4.03-.09.03-.14,0-.17-.03-.03-.09-.06-.14-.03-.06.03-.03.09-.06.12,0,.2-.14.29-.23.46-.12.23-.95,1.58-1.06,1.9-.09.23-.17.49-.29.69-.11.11-.11.26-.26.32-.09.06-.14.2-.2.34-.09-.06-.06-.14,0-.17.17-.34.26-.72.52-1.04.12-.2.14-.4.23-.58.2-.35.95-1.7.95-2.07l.06-.09c.32-.26.4-.69.58-1.04.06-.17.23-.34.26-.49.03-.23.09-.43.14-.63.03-.14.12-.23.17-.37.06-.09.03-.14-.03-.2-.12-.14-.14-.06-.23,0-.63.2-.98.17-.66-.14.26-.14.55-.29.69-.52.03-.12.17-.09.23-.09.2-.03.46-.09.72,0,.09.12.23.17.37.14.12-.03.14.09.23.14.06.03.09.14.14.14.29-.06.37.17.52.34.2.17.09.43.03.6-.09.17-.09.32-.12.49-.03.17-.06.34-.17.49-.09.17-.14.35-.2.55-.14.26-.23.58-.43.8-.26.46-.37.92-.63,1.29-.14.29-.26.58-.34.86-.12.06-.17.11-.26.26.14-.06.23-.14.26-.26.03,0,.09-.06.09,0,.23.14.26-.06.32-.17.2-.17.43-.4.55-.63.14-.17.34-.37.46-.63.12-.17.26-.37.46-.52.2-.23.35-.43.52-.63.17-.26.49-.46.6-.78.26-.03.17-.29.37-.4.06-.09.12-.14.29-.2-.03-.03-.03-.09,0-.12.17-.26.4-.55.66-.75.09-.12.14-.29.32-.4.26-.12.37-.4.58-.63.2-.17.46-.43.69-.58.11-.14.09-.26.26-.32.14-.14.32-.14.46-.14h.03c.37-.06.58.23.83.4.06.09.09.12.17.12.14,0,.23.06.26.17.06.12.09.14.17.17.14.06.17.17.17.35.06.26.06.43.06.69-.06.35-.23.66-.35,1.01-.12.43-.29.8-.46,1.18-.17.4-.37.81-.55,1.15ZM62.82,66.15v-.09s.03,0,.06-.03v.06c0,.06-.03.06-.06.06ZM63.03,65.8c0-.09,0-.12.06-.12,0,0,.03,0,.03.03s-.03.09-.09.09ZM63.49,64.74c-.03-.09.03-.12.03-.17.03-.06.06-.12.14-.09.09.03.06.09,0,.14-.09,0-.09.17-.17.12ZM65.36,63.24c-.17.12-.29.32-.37.6.26-.2.35-.34.37-.6ZM65.82,62.26c-.32.2-.34.37-.23.63.14-.14.29-.49.23-.63ZM66.28,61.6s-.03-.03-.06-.03c-.09.06-.14.17-.23.26.14-.03.23-.12.29-.23ZM66.97,58.58s0-.03-.03-.03-.03.03-.03.09c-.03,0,0,.03,0,.03.03,0,.06-.03.06-.09ZM67.28,61.49c-.03.12-.14.12-.14.26.12-.03.12-.14.14-.26ZM68.72,59.76c-.09.12-.09.17-.17.17.03-.06.09-.09.17-.17ZM70.01,59.04s0-.06-.03-.12c.03,0,.06-.03.12-.03-.03.03-.03.14-.09.14ZM70.99,63.36c-.23.14-.26.23-.26.43.12-.17.2-.29.26-.43ZM71.31,62.35c-.23.2-.35.4-.35.72,0,.03-.03.12.06.14.06,0,.09-.06.09-.14,0-.12,0-.29.09-.32.17-.12.09-.29.12-.4ZM71.51,62.29c.09-.09.12-.17.17-.29-.17.06-.23.14-.29.26,0,0,.03.03.03.06.03,0,.09,0,.09-.03ZM71.65,61.8s.03.03.06.03c.06-.06.03-.12.03-.2-.06.09-.12.11-.09.17ZM72.23,61.08c-.09-.09-.17-.2-.23-.2-.06-.03-.2.12-.12.2,0,.06.06.17.17.2.17,0,.09-.12.17-.2ZM72.4,60.71c-.03-.06,0-.17-.09-.09-.06.09-.09.14-.09.23l.17-.14ZM72.89,59.24c-.14.12-.23.14-.23.2-.06.29-.29.43-.34.69-.03.17.03.12.11.12-.03.12-.03.14-.03.17-.03.03-.03.06,0,.09.03,0,.06-.03.12-.03.06-.17.17-.29.2-.4.03-.17.06-.23-.12-.17.03-.2.23-.38.29-.66ZM73.32,55.33c-.26.23-.49.49-.75.75,0-.06.03-.09.06-.14.2-.23.4-.46.63-.63.03,0,.03.03.06.03ZM73.64,54.93c-.11,0-.14.03-.14.09.09.03.12,0,.14-.09ZM73.84,61.46c.09-.09.14-.26.29-.35.06.29.03.32-.29.35ZM82.99,62.98c-.29.32-.49.66-.75,1.01-.09.17-.23.29-.37.37-.17.23-.32.49-.37.72-.26.06-.2.29-.29.43l-.37.4c-.17.12-.26.26-.35.43-.32.37-.66.75-1.06,1.06-.17.17-.23.34-.4.52-.23.12-.4.29-.58.43-.23.26-.49.43-.78.58-.35.12-.66.17-1.09.17-.14-.03-.35,0-.46.06-.17.09-.29.09-.43,0-.06-.06-.17-.09-.23.09-.06.09-.23-.03-.29-.14-.12-.06-.23-.17-.4-.32l-.03-.03c.03-.17-.06-.34-.2-.46-.09-.09-.12-.32-.17-.52,0-.12.12-.17.23-.26.06-.03.09-.11.06-.17,0-.17.03-.35.12-.52.23-.63.55-1.27.86-1.87.09-.14.17-.34.4-.4.09-.03,0-.09.03-.2.17-.37.4-.78.63-1.15.14-.37.4-.78.49-1.21.03-.06.09-.11.17-.17.17-.26.32-.63.43-.95.23-.4.37-.81.6-1.27.14-.26.32-.55.46-.89.11-.46.4-.81.58-1.21.11-.23.17-.55.17-.83-.03-.17-.2-.26-.37-.11-.32.26-.66.43-.98.66-.12.12-.23.17-.4.29-.06.03-.09.03-.09.11,0,.06-.03.09-.06.09-.34.09-.43.46-.69.63-.17.09-.26.14-.43.17.17-.2.4-.37.58-.55.32-.29.63-.58.95-.83.26-.23.46-.46.6-.75.03-.03.06-.03.09-.03.06,0,.09,0,.06-.03.11-.29.37-.46.63-.52.23,0,.55-.03.75.14.23.09.4.09.63.12.09,0,.23.03.26.14.06.14.17.17.35.23.23.17.37.63.14.89-.12.17-.12.43-.17.66-.03.12-.03.23-.14.34-.2.29-.2.63-.37.92-.09.32-.32.6-.43.89-.11.26-.26.49-.26.81,0,.12-.03.23-.09.32-.46.46-.63,1.04-.89,1.58-.14.29-.23.6-.4.83-.14.2-.32.32-.32.55,0,.12-.09.29-.12.4-.06.29-.32.49-.4.72-.11.34-.29.66-.43,1.01-.06.12-.14.2-.17.32-.14.29-.32.6-.43.92-.12.09-.2.23-.26.37-.06.09-.17.26-.06.34.06.06.17,0,.32-.03.34-.09.6-.35.86-.58.37-.29.72-.58,1.06-.86.46-.37.92-.83,1.32-1.27.06-.09.2-.2.32-.09.03,0,.06,0,.06-.03,0-.06,0-.09-.03-.09-.12,0-.09-.09-.03-.14.09-.09.23-.26.35-.35.06-.06.17-.23.26-.06.03,0,.06,0,.06-.03.06-.23.32-.29.4-.52.03-.03,0-.06-.03-.09.32-.06.52-.34.66-.6.2-.14.34-.35.52-.52.06-.09.14-.12.23-.12ZM75.85,59.19c.09-.06.17-.09.23,0,.03.03-.03.06-.09.09-.32.34-.69.66-.95,1.04-.2.2-.32.43-.58.58-.06.06-.12.06-.12-.03.14-.03.12-.14.17-.29.26-.32.55-.55.83-.83.14-.2.34-.34.49-.55ZM76.11,59.07s0-.14.06-.17c.14-.06.2-.14.35-.23-.06.17-.12.26-.2.4-.09.03-.14.06-.2,0ZM76.11,64.65s0,.03.03.03.06-.03.06-.06c0,0,0-.03-.03-.03l-.06.06ZM78.41,63.93c-.06.03-.06.06-.06.2.06-.12.09-.14.06-.2ZM80.89,65.08c-.06,0-.12.06-.14.14,0,.03.03.03.06.03.06,0,.09-.06.09-.17ZM83.04,62.78c.09.12-.06.14-.06.2-.03-.06,0-.12.06-.2ZM83.3,62.29s-.03.03-.09.03c0,0-.03-.03-.03-.06s.03-.03.09-.03c.03,0,.03.03.03.06ZM83.79,61.52c-.2.12-.17.4-.4.49-.03.06-.06.12-.12.09-.06-.03.03-.09.03-.14.14-.29.37-.49.55-.81.06.17-.03.34-.06.37Z"/>
    <path class="st0" d="M83.22,67.41c-.55-.52-.89-1.15-1.09-1.84-.06-.14-.03-.35-.12-.46-.26-.43-.12-.86-.06-1.27.06-.37.14-.72.29-1.12v-.03c.23-.23.23-1.01.37-1.24.03-.06.03-.12.06-.14.58-1.04.72-1.52,1.01-1.9.17-.2.37-.4.43-.66.03-.09.09-.17.2-.23.03,0,.03-.03.03-.06.2-.55.66-.95,1.04-1.41.29-.38.66-.72.98-1.09.17-.23.4-.4.58-.66.17-.17.4-.29.6-.49.26-.23.55-.43.86-.6,0,0,.06-.03.09,0,.43-.09.89-.2,1.35-.06.26.09.58.06.78.2.09.06.14.03.2-.06,0-.03.03-.03.03-.06.03.17.17.29.32.34.09.03.12.06.2.06-.03.06-.03.09.03.14.23.26.69.63.6.95-.09.32-.32.63-.52.92-.06.09-.11.12-.2.14-.17.06-.2.14-.14.26t.06.03c-.2.06-.32.2-.37.34,0-.03-.03-.06-.06-.09,0-.09-.06-.06-.09,0l-.2.09c-.14.2-.35.26-.49.43-.14.14-.35.37-.6.37-.09,0-.14,0-.14.09-.09.17-.2.14-.34.26.34.12.66.12,1.01.14.35.03.69.17,1.04.09-.26.17-.58.14-.86.17-.23.03-.49,0-.69.17-.12.06-.26.03-.37.03-.34-.03-1.24,0-1.61,0-.09,0-.23-.06-.34-.03-.12.03-.23,0-.35.06-.06.06-.2.06-.29,0-.12-.06-.23-.09-.35-.03-.14.03-.29.12-.49.12-.11,0-.09.09-.03.11.12.09.03.14,0,.23-.17.2-.32.4-.4.63-.03,0-.03.03-.35.75-.17.17-.29.37-.37.6q-.11.2-.4.17c.06.06.14.03.2.14,0,.06-.03.09-.09.14-.03.09-.09.09-.14.09-.12-.03-.2.43-.32.52v.03c.09.09.26,0,.23.09-.03.14-.12.26-.17.37-.09.17-.14.32-.14.46-.06.09-.12.17-.17.2-.03.06-.2.12-.03.2,0,0,.03.06,0,.09-.12.09-.12.29-.14.4-.03.14-.03.32-.12.46,0,.03.03.03.06.06.06.03.06.11.06.14-.12.12-.03.23-.03.34,0,.03,0,.12-.03.12-.06.09,0,.12.06.17.09.12.06.26.12.37.06.09.09.2.14.26.06.09.14.17.14.34.03.06.23.17.32.26.4.17.83.26,1.24.23.32,0,.63-.17.95-.23.29-.06.58-.2.83-.32.29-.14.55-.14.8-.26.12-.03.26-.12.37-.17.09-.06.2.03.26-.06.09.14-.11.26-.09.43,0,.03-.12-.03-.2.03.09.09.23.17,0,.2-.03.12.06.12.12.09.17-.09.37-.09.46-.23h.03c.29-.06.43-.37.72-.4.14-.06.2-.17.03-.29-.06-.06-.06-.12,0-.23.14-.34.23-.4.58-.32.12.03.35-.03.46-.17.06-.12.26-.2.14-.37.23.09.34,0,.52-.14.32-.26.66-.89.89-1.21.26-.26.52-.52.81-.75.2-.17.49-.35.69-.49.09-.06.12.03.2.06-.17.12-.26.32-.49.34-.06-.03-.06,0-.06,0-.09.26-.29.37-.46.55l-.32.32-.52.49c-.26.69-.49.98-.81,1.18-.17.14-.26.26-.4.4l-.26.14c-.26.17-.52.37-.72.63l-.12.11c-.23.12-.46.35-.72.49-.23.12-.43.26-.63.37-.14.09-.23.14-.4.12-.14-.06-.26.06-.4.14-.32.2-.66.35-1.01.35-.12,0-.23.06-.32.09-.35.09-.66.23-1.01,0-.03,0-.06-.03-.09,0-.14.23-.37.06-.52,0-.52-.14-.95-.4-1.32-.78ZM88.92,57.52l.49-.46c.12-.14.29-.26.43-.38.26-.32.63-.6.8-.98.06-.11-.23-.52-.58-.29-.06-.09-.12-.06-.2,0-.09.12-.17.2-.32.29-.37.2-.75.37-1.01.75-.14.2-.34.34-.52.52-.17.14-.4.26-.55.43-.09.12-.14.26-.34.2-.06,0-.06.06-.06.09.06.14-.03.23-.14.32-.03.06-.06.06-.09.14,0,.06.03.06.03.11.12,0,.2.09.29.03.43-.26,1.35-.49,1.75-.78ZM87.97,66.21c0,.09-.09.09-.14.06.03-.03.06-.06.14-.06ZM88.08,66.15s.03-.09.06-.12c.06-.06.14-.12.23-.12,0,.12-.14.14-.17.26l-.12-.03ZM88.74,65.97c-.09-.12-.26-.03-.37-.06.12-.12.23-.23.46-.26-.14.09-.23.2-.06.26.06,0,.09.06.03.09-.03.06-.03,0-.06-.03ZM88.89,65.46c.11-.03.23-.14.32-.23.26-.2.52-.34.8-.49.2-.09.37-.2.49-.4.03-.12.14-.26.29-.23,0,.06-.11.11.03.14-.14.17-.34.32-.55.46-.26.2-.55.37-.83.55-.2.12-.37.29-.6.34-.03-.09,0-.12.06-.14ZM90.79,64.11c.03-.12.12-.14.23-.14.06,0,.14-.06.2-.06-.14.09-.2.26-.34.29-.06,0-.06-.06-.09-.09ZM92.05,62.72s.06-.03.06-.06.03-.06.06-.03c.03.06,0,.06-.03.06h.03s-.03.06-.06.06c-.03.06-.09.09-.11.06,0-.06.03-.06.06-.09ZM92.42,62.24c-.09.12-.11.14-.2.12l.2-.12ZM92.68,62.12c0,.23-.14.23-.26.23.03-.09.2-.12.26-.23ZM93.06,61.78c.14.2-.09.2-.17.29,0-.17.11-.2.17-.29ZM93.23,61.69c-.06.09-.09.11-.17.09.03-.03.09-.03.17-.09ZM93.32,61.32c-.03.11-.06.14-.17.17l.17-.17ZM93.66,61.08c-.06.06-.14.14-.29.17.12-.12.17-.17.29-.17ZM93.81,62.09c0,.06,0,.12-.06.14,0,.03-.06,0-.06,0,0-.09.03-.12.12-.14Z"/>
  </g>
</svg>