<?xml version="1.0" encoding="UTF-8"?>
<svg id="Layer_1" xmlns="http://www.w3.org/2000/svg" version="1.1" viewBox="0 0 432.26 213.58">
  <!-- Generator: Adobe Illustrator 29.0.0, SVG Export Plug-In . SVG Version: 2.1.0 Build 186)  -->
  <defs>
    <style>
      .st0 {
        fill: #702020;
      }
    </style>
  </defs>
  <g>
    <path class="st0" d="M107.05,24.99c-.26.39-.39,1.04-.39,1.56.13.78,0,1.17-.26,1.82-.78,1.17-1.3,2.34-2.08,3.25-.65,1.04-1.43,2.21-2.47,2.99-1.69,1.43-3.25,3.12-4.94,4.81-.52.39-1.17,1.17-1.95,1.3-1.69.39-2.99,1.43-4.29,2.34l-6.11,3.9c-.52.26-1.17.78-1.69.13-.52-.52.26-1.17.65-1.56,3.64-3.9,6.5-8.32,8.84-13,1.17-2.34,2.6-4.42,3.51-6.89.65-1.43,1.17-2.86,1.43-4.42.52-1.17,0-1.82-1.3-2.08-1.3-.26-2.6-.13-3.77.13-.39.13-.91.26-1.3.26-2.34,0-4.55.78-6.89,1.3-1.3.39-2.6,1.04-3.9,1.69-1.3.39-2.6,1.04-3.9,1.56-1.69,1.17-3.64,2.34-5.2,3.51-1.56,1.04-2.86,2.08-4.16,3.25-.65.52-1.56,1.3-2.34,1.82-2.08,2.21-4.29,4.68-6.63,6.76-1.17,1.04-2.47,1.95-3.38,3.51-.52.91-1.17,2.08-1.82,2.99-.78,1.04-1.69,1.95-2.6,2.99-.26.26-.52.52-.65.91-1.56,2.21-3.12,4.42-4.55,6.63-.39.65-.65,1.3-1.17,1.95-1.43,2.86-5.85,11.31-7.41,13.91-1.82,3.38-3.38,6.76-4.42,10.66-.26,1.17-.91,2.34-1.3,3.64-.78,3.12-1.69,6.37-1.82,9.62-.13.52-.13,1.04-.13,1.69.13,1.04,0,2.08-.91,2.73l1.69,8.06c.39,1.04.91,2.21,1.56,2.99.65,1.17,1.69,2.08,2.86,2.73,2.86,1.43,5.85,2.08,8.97,2.08.91,0,1.82,0,2.6-.26,2.73-.91,5.59-1.69,8.19-2.86,3.64-1.69,7.02-3.77,10.27-5.85,1.04-.65,1.82-1.43,2.86-2.08,3.64-2.6,7.15-5.33,10.4-8.58,1.04-1.17,2.34-1.82,3.51-2.86l.52-.52c1.04-.91,1.69-1.95,2.73-2.86.65-.78,1.3-1.04,2.21-.65.39.26.78.26,1.17-.26.39-.39.26-.78,0-1.3-.13-.26,0-.52,0-.91.26,0,.78-.13.91,0,.91.65,1.3.26,1.82-.52-.39-.26-.65-.78-.91-1.04.26-.39.39-.91.65-1.04,1.17-.78,1.95-2.21,2.73-3.12,1.3-1.3,2.34-2.73,4.29-3.25-.13-1.3.52-2.08,1.3-2.73,1.17-1.17,2.21-2.47,3.25-3.64.39-.52.78-.91,1.43-1.3.52.78.26,1.56-.13,2.08-1.17,1.56-2.21,2.99-3.38,4.42-1.82,1.95-3.51,3.9-5.2,5.85-.91.91-1.17,1.82-1.69,2.86-.26.78-.65,1.43-1.3,2.21-1.69,2.34-3.77,4.42-5.2,7.02-.39.52-1.17,1.17-1.95,1.69-1.3,1.3-2.73,2.47-4.16,3.77-.13,0-.26.13-.26.39,0,1.3-1.17,1.95-1.82,2.99l-1.04,1.04c-.39.52-.65,1.04-1.3,1.43-.39.52-.78.91-1.43,1.17-.52.26-1.17.65-1.56,1.3-.65.91-1.43,1.3-2.21,2.08-2.08,1.82-4.42,3.38-6.5,4.94-2.34,1.95-4.68,3.51-7.67,4.42-1.56.52-3.12,1.43-4.94,2.08-.91.52-1.82.65-2.86.52h-3.51c-2.34-.13-4.68-1.04-7.02-1.82-.52-.26-1.17-.26-1.56-.39-2.08-.39-3.9-1.17-5.59-2.6-.65-.78-1.43-1.3-2.34-1.95-1.3-1.04-2.34-2.21-3.12-3.64-1.04-1.82-2.34-3.64-3.38-5.46-1.04-1.69-1.3-3.64-1.69-5.59-1.04-4.94-.78-10.01,0-14.95.52-4.16,1.69-8.06,2.99-11.96,0-.13.13-.26.13-.39,0-1.95,1.17-3.38,1.95-5.07,1.43-3.12,6.11-12.09,7.67-15.21.91-1.82,1.82-3.51,2.86-5.07,1.56-1.82,2.73-3.9,4.03-5.85l1.69-2.6,8.32-10.53,1.17-1.17,7.02-6.24c1.43-1.17,2.86-2.34,4.29-3.64.39-.26.52-.78.78-1.04.26-.91.91-1.43,1.56-2.08,2.08-1.69,4.55-2.6,7.02-3.25.78-.13,1.43-.52,2.21-.65,2.86-1.17,5.85-.91,8.71-.13.78.13,1.3.26,2.08.26,3.64.39,7.28.78,10.53,2.08l2.99.78c1.56.39,2.99,1.43,4.29,2.47.52.39.78.91,1.04,1.43.78,1.17,1.43,2.34,2.47,2.99.52.39.78.65,1.04.91.65.78.65,1.3.26,2.21ZM72.47,103.12c2.08.13,2.73-.39,2.99-2.73l-2.99,2.34v.39ZM76.76,99.22c.78.39,1.17,0,1.82-.39-.78-.39-1.17-.13-1.82.39Z"/>
    <path class="st0" d="M150.47,58.14c-.39,1.04-1.3,1.43-1.69,2.21-.91,1.43-1.82,2.86-3.12,4.29-1.82,1.56-2.99,3.77-4.03,5.85-.39.52-.65,1.3-1.3,1.43q0,.26-.39.52c-.26,1.56-1.3,2.86-2.21,4.16-.52.91-1.3,2.08-1.56,3.25-.26.26-.52.78-1.43.65.78.65,0,1.04-.13,1.56-.26.65-.78,1.43-1.3,1.95-.39,1.04-.52,1.82-1.17,2.6-.91.91-.91,1.82-1.56,2.47,0,.13-.26.65-.26.26-.52,0-.13-.13-.13-.13,0-.52-.39-.52-.52-.13-.52.13-1.3.26-1.3,1.17-.13.52-.26,1.17-1.3,1.04-.13.13-.26.26-.39.52.13,0,.13.13.13.13.26-.26.78-.52.78-.26.26.52-.13.65-.52.78-.39.78-.26,1.69.13,1.82-.13-1.04-.13-1.3.91-1.82.39-.26,1.17-1.04,1.43-1.69.39.52.26.65,0,1.04-.65,1.17-.91,2.21-1.82,3.38-.65.65-.52,1.82-1.17,2.99-.26.52-.78,1.04-.91,1.56-.13.39-.13.52-.52.78.13.26.13.39.52.65,0,0,.26,0,.26-.26l11.83-11.05c1.17-1.04,2.34-2.21,3.38-2.86,1.04-1.3,2.34-2.08,3.51-3.12.91-.91,1.95-1.56,2.86-2.6-.52.65-.65,1.43-1.56,1.82-.39.13-.39.39-.52.78,0,.26,0,.52-.26.91.13.26-.26.39.26.39.26.26.52.26.65-.13.26-.65,1.56-2.08,2.21-2.08-.13.39-.13.78-.78.91-.39,0-.52.52-.78.91-.26.65-.78,1.04-1.3,1.56l-.91,1.3c-.13.39-.39.65-.78.91-.65.39-1.17,1.3-1.82,2.21-.52.26-.78.65-1.56,1.04l-4.29,4.29c-.52.91-4.81,5.72-5.72,6.63-.39.78-.39,1.56-1.3,1.82-.91,0-1.43.91-2.21,1.3-.13.26-.13.39-.13.78s0,.91-.65.39c-.39-.26-.78.26-.78.78-.13.78-.39,1.04-.91,1.3-.65.26-.91,1.04-1.3,1.56-.78.52-1.17,1.04-1.69,1.3-.65.26-.65,1.17-.65,1.56s0,.78-.65,1.17c.13.65.13,1.56-.91,1.56-.39.13-.52.13-.65,0-.65-.39-1.3-.65-1.95-.78-.91-.52-1.56-.91-1.69-1.95,0-.13-.13-.13-.52-.39-.13-.13-.39-.39,0-.91.39-.26.52-.78-.13-1.3-.13,0-.13-.26-.13-.26.13-1.04,0-1.95.65-2.6.39-.13.52-.39.52-.65.13-1.3.78-2.6,1.3-3.77,1.04-2.21,1.95-4.68,2.73-6.76,1.95-4.81,4.55-8.97,6.63-13.39.91-2.21,2.34-4.03,3.51-6.24.52-1.43,1.43-2.34,2.08-3.51.26-.78.26-1.43.65-1.56v-.52q-.13,0-.39.13c-.65.78-1.43,1.17-2.08,2.08-.39.39-.78.91-1.43,1.17-.52.26-.65.65-.91,1.3-.39.52-.65,1.56-1.56,1.17-.13-.13-.13,0-.13.39s-.52.39-.91.39-.65.39-.91.65c-1.43,1.17-2.99,2.99-4.03,4.68-.26.13-.39.13-.65.39-.13.13-.52.26-.52,1.04,0,.91-.39,1.69-1.3,2.08-.13-1.04.39-1.17.78-1.56,0,0,.26-.39.26-.52-.26-.26-.39,0-.39,0-.39.13-.52.13-.52.65-.26.26-.26.39-.52.39-1.04.78-1.56,2.08-2.47,2.6-.39.13-.91.52-.52.91.52.26.52-.39.65-.52.65-.91,1.04-.91,1.43-.78-.13.39-.39.52-.65.52-.39,0-.13.39,0,.39.26.39.65.39.91,0,.13-.13,0-.13-.26-.39v-.52c.39.39.78.26.65-.13h.65c.39,0,.78.52.78-.13,0-.39,0-.52.13-.52q.26.13.26.52c0,.13-.26.65-.65.65-.52,0-1.04.26-1.04.91.13,1.04-.78,1.69-1.43,2.34-.78,1.04-1.69,1.69-2.47,2.73-.65,1.17-1.56,2.21-2.21,2.99-.52.65-1.04.78-1.43,1.3-1.69,1.69-2.6,2.47-3.12,3.38-1.04,1.3-2.86,3.38-3.9,4.03l-.91.65c-.91.39-1.3.91-1.95,1.56-.78.78-1.3,1.04-2.08.91-.65,0-1.3.13-1.56.65-.39.39-.91.39-1.17.39-.91,0-1.69-.91-2.08-1.82-.52-1.17-.65-2.47-1.69-3.25-.65-.26-.13-1.56-.39-2.21-.13-1.17.39-2.47.52-3.51.39-1.3.65-2.21.91-3.38.13-1.17.65-2.6,1.04-3.9.52-1.56,1.82-3.77,2.21-5.07,1.04-2.86,2.86-6.11,4.16-8.45.91-2.21,1.69-3.77,2.86-5.46.65-1.3,1.43-2.73,2.6-3.77.78-1.56,1.95-3.25,2.99-4.81.52-1.17,1.69-1.69,2.21-2.86,1.3-1.82,2.99-3.38,4.29-4.94l4.55-4.55c3.51-3.64,8.06-4.94,10.79-4.94.78-.26,1.3-.52,2.21-.13.13,0,.39.13.52,0,2.08-.13,3.77,1.04,5.33,1.82.78.52.65-.13,1.17-.52.91.52,1.69.65,2.6,1.3.65.52.78,1.04,1.69,1.43.26,0,.26.13.39-.13.78-.78,1.3-.78,1.82,0,.13,0,.39.13.65.13.39-.13.78-.13,1.04.13.78,1.3,2.08,1.56,3.51,2.34.13,0,.52.13.52.26.13,1.43-.26,2.86-.52,3.9ZM93.26,96.88s0-.13-.26-.13-.26,0-.26.13c0,.26,0,.52.26.52s.26-.26.26-.52ZM93.79,94.41c-.39.26-.39.78-.39,1.17,0-.39.39-.78.39-1.17ZM95.48,98.44c.26,0,0-.26-.13-.26-.52,0-.52.39-.65.65-.26,0-.26.26-.26.39,0,0-.26-.13-.26,0h.26c.65.39.52-.52,1.04-.78ZM139.94,55.54c-.13,0-.13-.26-.52-.26-.78-.52-1.43-.78-2.34-.65-.13,0-.52.13-.65,0-.39-.52-.78-.52-1.43-.52-1.56-.26-2.86.13-4.29.65-1.17.39-2.6,1.17-4.03,1.82-1.17.52-2.08,1.82-3.51,2.21-1.43.52-2.21,1.82-2.99,2.6,0,.26-.13.26-.13.26-.91.52-1.82.78-2.21,1.69-.52,1.04-1.3,1.56-2.21,2.73-.65.91-1.69,1.43-2.34,2.47-.39.39-.78.39-1.17.91-.26.65-.91,1.3-1.04,2.08l-1.17,1.82c-.65.78-1.3,1.43-1.56,2.08-.26.65-.39,1.17-1.17,1.04,0,.52.26.65.13.91-1.04,1.43-1.3,3.12-2.73,3.9v.52c-.39,1.43-1.3,3.12-2.47,3.9,0,.26.39.52.13.91-.39.52-.39,1.17-.65,1.82-.39,1.04-1.69,3.12-2.6,4.16-.13,0-.13.13-.13.39,0,.52-.78,1.56-1.69,1.3-.52,0-1.04,0-1.04.91,1.04-.65,1.04.91,1.69.78-.39.26-.65.65-.13,1.3.13,0,.13.39-.26.39-.52.13-.26.78-.52,1.3-.52.52-.52,1.69-1.82,2.08.91.39,1.3.52,1.82,0,.13.39,0,.52,0,.78s-.39.39.13.65c.26,0,.52,0,.52-.39,0-.26.26-.52.39-.52.65-.13.78-.52,1.3-.65,1.43-1.04,1.95-2.86,3.51-3.64,1.04-.52,3.12-2.47,3.38-4.03l.26-.13c.78-.26,1.43-.78,2.73-2.08.91-.52,1.43-1.69,2.21-2.21,1.3-1.04,2.6-2.73,4.16-4.16,1.17-.91,2.34-2.08,3.51-3.51,1.69-1.56,3.25-2.99,4.81-4.68,1.3-1.04,2.21-2.34,3.38-3.77.26-.26.65-.39,1.17-.39,0,0,.26,0,.26.13,0,.26-.26,0-.39,0-.39-.13-.39.26-.26.39,0,.52.39.65.91.65.13,0,.39-.39.39-.65,0-.39.39-.91-.39-1.3v-.26c.26-.39.39-.39.78-.39.52-.13.26.26.26.39.13.52.39.52.65.52s0-.39,0-.39c0-.26.13-.39.13-.52h.65c.26,0,.52,0,.52-.13,0-.52-.26,0-.26-.39-.26-.13-.91-.13-.65-.65.65-.39,1.04-.91,1.56-1.3.26.26.52.26.78.26,1.43,0,1.04-1.56,1.69-2.21-.39.26-.91.65-1.43,1.17,0,0-.26.26-.39.13,0-.39.13-.39.13-.52.26-.78.78-.52,1.04-.91.39-1.04,1.43-1.3,1.69-2.21,0-.26.26-.39.39-.39.39-.13.78-.39.91-.78,1.3-1.82,2.08-3.77,3.25-5.85.65-.91.26-1.17-.65-1.56ZM95.21,93.63c.39-.39.78-.52.52-1.43-.52.52-.52.91-.52,1.43ZM96.25,92.85c.39.39-.13.78.39,1.04.13,0,.39-.26.39-.26,0-.39-.26-.52-.78-.78ZM97.3,92.2l1.04-1.17v-.39c-.26,0-.26.39-.26.39,0,0-.91,1.17-.78,1.17ZM99.25,87.13c0,.13.13,0,.39,0,.26-.13.13-.65.26-1.17-.26.52-.65.65-.65,1.17ZM99.5,87.78c-.13.13-.39.39-.13.39.13,0,.39-.13.39-.39h-.26ZM100.42,85.57c.26,0,.39,0,.65-.13,0,0,.65-1.17.26-1.17-.13,0-.91,1.17-.91,1.3ZM101.72,83.88c.39,0,.39-.13.39-.39-.26,0-.39,0-.39.39ZM102.76,84.27l-.52,1.17.91-1.17h-.39ZM102.5,78.29c.52.13,1.04,0,1.04,0l.26-.13c-.26,0-.78-.13-1.3.13ZM103.15,81.15c.26-.39.52-.39.52-1.04-.26.13-.52.52-.52,1.04ZM105.23,78.68c-.39,0-.52,0-.91.39.39-.26.52-.26.91-.39,1.3,0,0-.78.13-.91.39,0,.52.13.78,0-.26-.26-.39-.65-.78-.65-.26.13,0,.39,0,.65-.13,0-.52-.26-.65-.26,0-.39.39-.78.13-.91-.39.13-.52.52-.52.91h.39c-.39.65.13.78.52,1.17ZM106.27,76.21c.13-.65.65-.78.91-1.17.26-.26.39-.39.26-.78-.26-.13-.39,0-.52.39-.52.39-.78.91-.65,1.56ZM108.61,72.31c.39,0,.39-.26.26-.39.78-.26,1.17-.91,1.17-1.69-.78.65-1.17.91-1.17,1.69-.13.13-.26.13-.26.39ZM110.04,65.68c.39-.13.52-.52.52-.91,0,.39-.52.39-.52.91ZM110.56,67.11h-.39l.26.26c.13,0,.52,0,.13-.26ZM110.69,69.19c-.13,0-.39.26-.39.78.39,0,.78-.39.78-.52,0-.26-.39-.26-.39-.26ZM111.34,92.85v.78q.39,0,.39-.26c.13-.26,0-.52-.39-.52ZM113.68,91.16h-.13q-.26.26-.26.52l.26.13c.13-.26.13-.52.13-.52v-.13c.26-.39.26-.52.26-.78,0,.26-.26.39-.26.78ZM114.46,61q.26-.13.52-.52c-.52,0-.65,0-.52.52ZM114.85,62.43c-.26,0-.26.13-.39.52,0,.13,0,.39.13.13.26,0,.52-.13.52-.52q0-.13-.26-.13ZM116.41,87.65c.26-.26.39-.26.39-.26,0,.26-.13.39-.13.78-.26,0-.39,0-.65-.39,0-.13.39-.13.39-.13ZM117.71,105.98c-.78.13-.91.52-.78,1.04l.78-1.04ZM118.36,107.02c-.13,0-.13-.13-.13-.13-.13.13-.39.13-.13.39h.13s.13,0,.13-.26ZM119.01,101.82c-.39.13-.39.52-.78.78-.13.39-.13.52,0,.52.39.26.39,0,.52-.13,0-.52.26-.65.26-1.17ZM119.4,82.58c-.52.13-.78.26-.78,1.04.39-.52.52-.78.78-1.04ZM121.22,85.44c-.78,0-.91.39-.91.78.13.26-.13.39-.13.52-.26.39-.52.52-.65.52h-.39c0-.52.39-.52.52-.65.13-.52.65-.78.65-1.17.13-.78.39-.52.91,0ZM137.47,66.07c-.13-.39-.13,0-.13.13-.52.26-.78.78-.91.91-.91,2.08-1.95,3.9-2.99,5.59-.26.26-.52.26-.52.52-.39,1.04-.91,1.69-1.3,2.47-.78,1.56-1.82,2.86-2.47,4.42-.65,1.3-1.17,2.6-1.95,3.77-.39.13-.78.65-.78,1.43-.26,1.04-.91,1.95-1.69,2.73-.39.39-.39,1.17,0,1.82-.78,0-1.3.52-1.3,1.43-.13.26-.13.39-.39.65-.65.78-.91,2.08-1.43,3.12-.52,1.3-1.69,2.08-1.3,3.51-.91.39-.39,1.3-.78,1.82.78-.91,1.3-2.08,1.82-3.38.65-1.17,1.3-2.21,1.56-3.64.13-.13.52-.39.52-.91,0-.39.39-.91.78-1.3.26-.39.52-.91.52-1.3.52-.65.91-1.43,1.3-2.08.91-1.43,1.56-3.12,2.21-4.55,1.04-1.82,2.08-3.9,3.12-5.59.78-1.43,1.56-2.47,2.47-4.03.52-1.17,1.3-2.34,1.82-3.51l1.82-3.51c0-.13.39-.39,0-.52ZM121.22,84.66c-.26-.52.26-.52.52-.52,0-.13.39,0,.39.26s-.39.52-.39.65c-.26,0-.52-.13-.52-.39ZM122.78,100c-.13,0-.13-.13-.13-.13-.78.13-.52.52-.78.78q.13.26.13.39.26,0,.26-.13c0-.26.52-.52.52-.91ZM122.26,97.79c.26-.78.65-.91.91-1.43-.65.13-1.04.52-1.04,1.17l.13.26ZM124.99,99.74q0-.39-.26-.52c-.26-.26-.39-.26-.39,0-.13.52-.65,1.04-1.04,1.17-.26.52-.39,1.56-.26,1.95.26-.26.65-.65.78-1.04.65-.52.65-1.04,1.17-1.56ZM124.86,81.28c-.39.39-.78.91-1.17,1.04.52-.26.26-1.43,1.17-1.04ZM125.25,92.59c0-.13,0-.65-.39-.65-.13,0-.39.39-.39.52-.13.13-.13.65-.26.78.78.52,1.04,0,1.04-.65ZM125.51,98.18c0-.39-.39-.39-.52-.39-.26,0-.52.39-.52.52,0,.26.26.26.52.26.13,0,.52-.26.52-.39ZM126.29,97.14q-.13-.26-.52-.26c-.13,0-.39,0-.26.26-.39.26,0,.52.13.52.26,0,.65-.26.65-.52ZM126.68,75.82c-.52-.65-.52-.39-1.04,0h1.04ZM126.03,89.99c.13.39,0,.91,0,1.43.13-.52.78-1.04,0-1.43ZM126.94,89.08c.52-.52,0-.65,0-1.17-.39.39-.39.52-.26.91,0,.39.26.52.26.26ZM127.98,87.65c0-.52-.26-.78-.65-.52,0,0-.39.13-.39.26.39.39.78.26,1.04.26ZM129.02,87.65c-.39,0-.65.26-.78.52-.13.52-.26,1.17-1.3,1.17.13.39.13.52.65.52.26,0,.52,0,.52-.13,0-.91.39-1.43.91-2.08ZM128.24,73.48c-.39-.13-.65,0-.78.52.39,0,.52,0,.78-.13v-.39ZM131.1,86.74c0-.13-.13-.13-.26-.13-.26.39-1.04.65-1.17,1.3q0,.26.13.26c.52-.26,1.3-.39,1.3-1.17,0,0,.13-.26,0-.26ZM130.84,82.32c0-.13.13-.26,0-.65-.26-.13-.26,0-.52.52,0,.13-.26.26-.26.78.39-.39.78-.13.78-.65ZM132.79,78.68c-.26-.26-.65-.26-.65,0,0,.13-.13.52,0,.52.52.13.52-.39.65-.52ZM132.92,84.27c0-.26-.13-.26-.13-.26-.39,0-.39.26-.39.26q0,.26.39.26.13,0,.13-.26ZM132.66,78.29h.13s.26-.26,0-.65c-.13.13-.26.39-.13.65ZM137.34,70.49h-.26s-.13,0-.13.13l.13.26c.26,0,.26-.26.26-.39ZM141.63,89.6c.52-.13.65-.26.91-.65-.39,0-.52.13-.91.65ZM143.71,86.48c.39,0,.52,0,.78-.39-.39-.26-.78,0-.78.39Z"/>
    <path class="st0" d="M150.07,124.31c-.65-.78-1.95-1.17-2.34-2.47-.13-.65-.39-1.56-1.3-1.56-.26-.26-.39-.52,0-.91l.91-2.6c.39-1.3.78-2.47,1.82-5.33.39-.78.78-1.3.91-1.69.65-1.3.78-2.6,1.04-3.9.39-1.17,1.17-2.73,1.69-4.29.52-.78.91-1.95,1.43-3.12.39-.52.13-1.17.52-1.56.26-.39.52-1.17.91-1.3.13,0,.26-.13.13-.39-.26-.78.26-1.3.52-1.82.52-.26.91-1.17.65-1.69-.13-.52.39-.91.65-1.04.26-.52.39-.52.13-1.04-.13-.13,0-.52,0-.65l.65-1.04.26-.65c.26-.65.52-1.43.65-2.21h.13c.13,0,.26-.39.39-.52,0-.13-.13-.13-.13-.13-.13,0-.13.13-.26.13.13-.39.39-.78.52-1.04.13-.26.26-.52.39-.65.39,0,.65.26,1.17.39.52.39.78-.13.78-.13-.26-.52.39-1.04.26-1.69l-.52.39c-.13.39-.13,1.04-.65.78-.39-.13-.13-.65-.13-1.17.39-.39.39-.65.26-1.04-.13-.78.13-1.3.65-1.69l-.13-.65c.65-1.69,2.6-5.98,3.51-7.54.26-.78.39-1.95.91-2.99.52-1.43,1.56-3.12,2.08-4.42.26-.39,0-1.04.52-1.56.65-.65.91-1.82,1.43-2.6.78-1.17,1.43-2.6,2.08-3.9v.26q0,.13.26.39l.13-.39c0-.13-.13-.39-.13-.39h-.13l.91-1.3,1.82-3.51c-.65.13-1.3.78-2.08.78-.39-.13-1.17.78-1.43.91-.13.39-.52.65-1.17.91-.65-.13-1.3.52-2.47,0-1.43.13-2.6-1.04-2.6-2.21,0-.39.26-.91,0-1.3-.52-.78-.39-1.43-.65-2.08,0-.39.26-.91.65-1.17,1.43-.39,2.86-.65,4.42-.78,1.69-.52,3.64-.39,5.72-.52.91,0,1.82-.13,2.73-.13.39-.39,3.51-5.85,3.51-6.5.39-.91.13-1.95.78-2.47.52-.39.65-.91,1.17-1.43.78-.78.65-1.56,1.56-1.69.65-.39.13-1.04.39-1.56.65-1.82,0-.91,1.43-2.34.65-1.17,2.21-2.21,3.12-4.16.78-1.95,2.21-3.12,4.03-4.03.78-.39,1.95-.78,2.34-1.82.26-.78.91-.26,1.43-.65,1.04-.39,2.08-.65,2.99-1.17,2.21-.65,4.29.78,6.63,1.43l4.81,1.43c1.04.13,4.03,2.73,4.29,3.51.26.91.26,1.82-.65,2.08-.65.26-1.56.13-1.95-.39-.39-1.04-4.29-2.47-5.2-2.34h-.26c-.13,0-.13.13-.26.26l.26-.13c.13-.13.26-.13.26-.13-.52.26-4.68,2.6-6.24,3.64-.91.52-1.82,1.56-2.73,2.21-.78.78-1.82,1.04-2.47,1.82-.78.78-.78,1.69-1.17,2.47-.52.78-1.17,1.04-1.3,1.69-1.69,1.3-2.08,2.21-5.2,9.49-.26.39-.78.65-1.04.91,1.82.13,3.64.39,6.24.65,1.82.26,3.64.39,5.2.78,1.04.26,2.08,1.04,3.38.91,0-.13.39,0,.39,0,.13.52.91,1.17,1.04,1.82,0,.78-2.86,1.04-4.68.26,0-.26-.39-.13-.91,0l-.39-.13c-.39-.13-.78-.13-1.17.39,0,.26-.52.39-.65,0-.39-.39-.65-.13-1.04-.13-.13.26-.52.26-.78.26-1.3-.13-2.47.26-3.9.91-1.04,0-1.56.13-2.21,0-.91-.26-1.69-.26-2.6,0-.26.26-.39.39-.78.39-.78-.13-1.3-.13-1.69-.13-.39.26-.65.78-.52,1.3l-.13.52c-.26.39-.78.65-.78,1.56,0,0-.13.26-.26.26-1.69,1.82-2.34,4.16-4.16,6.37-.65.78-2.86,5.2-3.51,6.37-.39.78-.39,1.3-.52,2.21-.13,1.95-2.6,6.37-3.51,8.19-.39.52-.13,1.3-.52,1.69-.26.65-.65,1.43-1.17,2.08-.26.39-.52.91-.91,1.04.39.91-.39,1.3-.65,2.21,0,1.17-.78,1.95-.78,3.12,0,.78-.65,1.43-1.04,2.08-.26,1.3-1.04,2.21-1.3,3.51,0,.65-.26,1.43-.39,1.82-.65.39-.65,1.17-1.04,1.69-.13,1.3-.65,2.6-.91,4.16l-4.03,10.4c-1.56,3.38-2.21,4.68-2.34,6.37-.13.78-.52,1.56-.91,2.21-.65,1.04-.91,2.08-.91,3.12-.39.91-.65,1.69-1.69,1.69-.78-.13-1.82.26-2.47-.26ZM153.19,93.37c.39.52.13.78,0,1.04-.39-.39-.13-.52,0-1.04ZM155.92,98.7c.65-1.17.39-2.73,1.04-3.9.13-.13.39-.65.13-.78,0-.26-.39-.13-.39.13-.39.13.26.52.26.65-.52,0-.78.26-.91.65,0,1.04-.65,2.08-.78,2.99-.13.26-.39.78-.13.91.26.39.52-.13.78-.65ZM155.92,86.74c.39.52.39,1.04,0,1.43-.52-.65.13-.91,0-1.43ZM156.05,89.73c.13.26,0,.39-.13.78-.39-.52-.13-.65.13-.78ZM156.44,91.68c.26.78,0,1.04-.39,1.04,0-.26.13-.65.39-1.04ZM156.96,84.14c0-.26-.13-.52.13-.52s.39-.13.52.13c.26.13,0,.39-.13.52-.26.26-.39,1.04-.91.13.39,0,.52-.13.39-.26ZM157.61,85.96c.13.52-.13.91-.26,1.04-.13-.39,0-.65.26-1.04ZM158.65,87.26c-.13.26-.26.39-.26.65-.13.13-.26.26-.39.52q0-.65.65-1.17ZM158.91,79.2c.13.13.52-.13.78.26.26.26,0,.52-.13.78-.39.39-.52.65-1.17.91.26-.78,0-1.43.52-1.95ZM158.39,84.14c0-.26.13-.26.39-.52,0,.26,0,.52-.26.78-.13,0-.13-.26-.13-.26ZM159.43,81.8c0,.52,0,.91-.13,1.04-.13.13-.39.13-.39,0-.13-.26.26-.52.52-1.04ZM159.56,78.16c-.13-.26.13-.65.13-1.17,0-.13.26-.26.39-.13.13,0,.39,0,.39.39-.26.52-.13.91-.65,1.17,0,.13-.13.13-.13,0q-.13,0-.13-.26ZM160.34,79.98c-.13.52-.26.78-.65,1.04.26-.39.26-.91.65-1.04ZM160.47,87.26c.26-.13,0-.39-.13-.39-.39-.13-.39,0-.39.26-.13.26-.39.78-.13,1.3.26-.52.26-.78.65-1.17ZM160.34,82.32c.39-.39.52-.65.52-1.04.13-.26.13-.65.39-.39.26.13,0,.26,0,.39v.13c-.52.39-.65.78-.91,1.43-.13-.13-.26-.39,0-.52ZM161.38,85.57c-.13-.26-.52-.13-.65-.13-.52,0-.39.52-.39.78,0,.13.13.39.52.39.13-.39.52-.65.52-1.04ZM160.47,75.56c.26-.91,2.21-4.16,2.6-4.81,0-.39.26-.78.52-1.04.13-.78.26-1.3-.52-2.08.91.52,1.3.26,1.3-.65,0-.39.52-.65.65-1.04l1.3-.91c-.78,1.3-1.56,2.47-2.08,4.29-.13.52-.91.78-.91,1.56,0,.65-1.82,4.16-1.95,5.07-.13.13-.13.65-.52.39-.26-.13-.26-.39-.39-.78ZM163.59,79.2c-.52.13-.39.78-.78,1.17.65-.13.91-.52.78-1.17ZM164.76,74.26c0-.13,1.3-3.12,1.43-3.38.39-.65.39-1.3.65-1.82.78-.52.91-1.43.78-2.34-.13.13-.26.39-.52.52-.65,1.17-.65,2.86-1.43,3.9-.26,0-1.56,3.12-1.3,3.25,0,.26.13.13.39-.13ZM164.76,76.47c.91-.26.52-1.04.65-1.56-.52.39-.26,1.04-.65,1.56,0,0-.13.26,0,.39v-.39ZM166.06,67.37c.13.65-.26,1.17-.65,1.69,0-.91.26-1.3.65-1.69ZM166.97,65.29l.13.26c.26.52-.13.26-.39.52-.39-.52,0-.78.26-.78ZM166.84,62.56c0-.39.13-.52.65-.65,0,.39,0,.91-.52.91-.13.13-.26,0-.13-.26ZM168.27,69.19c0-.26,0-.52-.39-.39-.13.13-.13.26.13.52,0,.13,0,.26.26.13.13,0,.13-.13,0-.26ZM168.01,63.08c0-.52.39-.65.52-.78,0,.52-.13.78-.26.91-.13,0-.26-.13-.26-.13ZM170.22,67.76c-.13-.39-.65-.13-.91-.13-.91-.52-1.04,0-.91.65,0,0,.26.13.39.13.39.26.65.52.91.13.13-.39.65-.39.52-.78ZM169.31,63.86c0-.26-.13-.26-.26-.26h-.26q0,.39.26.39c.13,0,.26-.13.26-.13ZM169.84,64.9c-.52.52-.52,1.3-.65,1.95,1.43-.91,1.17-2.34.65-1.95ZM172.57,60.48c-.13.39-.26.52-.39.65.39,0,.78,0,.39-.65Z"/>
    <path class="st0" d="M200.25,107.54c-2.47-2.34-4.03-5.2-4.94-8.32-.26-.65-.13-1.56-.52-2.08-1.17-1.95-.52-3.9-.26-5.72.26-1.69.65-3.25,1.3-5.07v-.13c1.04-1.04,1.04-4.55,1.69-5.59.13-.26.13-.52.26-.65,2.6-4.68,3.25-6.89,4.55-8.58.78-.91,1.69-1.82,1.95-2.99.13-.39.39-.78.91-1.04.13,0,.13-.13.13-.26.91-2.47,2.99-4.29,4.68-6.37,1.3-1.69,2.99-3.25,4.42-4.94.78-1.04,1.82-1.82,2.6-2.99.78-.78,1.82-1.3,2.73-2.21,1.17-1.04,2.47-1.95,3.9-2.73,0,0,.26-.13.39,0,1.95-.39,4.03-.91,6.11-.26,1.17.39,2.6.26,3.51.91.39.26.65.13.91-.26,0-.13.13-.13.13-.26.13.78.78,1.3,1.43,1.56.39.13.52.26.91.26-.13.26-.13.39.13.65,1.04,1.17,3.12,2.86,2.73,4.29-.39,1.43-1.43,2.86-2.34,4.16-.26.39-.52.52-.91.65-.78.26-.91.65-.65,1.17q.13.13.26.13c-.91.26-1.43.91-1.69,1.56,0-.13-.13-.26-.26-.39,0-.39-.26-.26-.39,0l-.91.39c-.65.91-1.56,1.17-2.21,1.95-.65.65-1.56,1.69-2.73,1.69-.39,0-.65,0-.65.39-.39.78-.91.65-1.56,1.17,1.56.52,2.99.52,4.55.65s3.12.78,4.68.39c-1.17.78-2.6.65-3.9.78-1.04.13-2.21,0-3.12.78-.52.26-1.17.13-1.69.13-1.56-.13-5.59,0-7.28,0-.39,0-1.04-.26-1.56-.13s-1.04,0-1.56.26c-.26.26-.91.26-1.3,0-.52-.26-1.04-.39-1.56-.13-.65.13-1.3.52-2.21.52-.52,0-.39.39-.13.52.52.39.13.65,0,1.04-.78.91-1.43,1.82-1.82,2.86-.13,0-.13.13-1.56,3.38-.78.78-1.3,1.69-1.69,2.73q-.52.91-1.82.78c.26.26.65.13.91.65,0,.26-.13.39-.39.65-.13.39-.39.39-.65.39-.52-.13-.91,1.95-1.43,2.34v.13c.39.39,1.17,0,1.04.39-.13.65-.52,1.17-.78,1.69-.39.78-.65,1.43-.65,2.08-.26.39-.52.78-.78.91-.13.26-.91.52-.13.91,0,0,.13.26,0,.39-.52.39-.52,1.3-.65,1.82-.13.65-.13,1.43-.52,2.08,0,.13.13.13.26.26.26.13.26.52.26.65-.52.52-.13,1.04-.13,1.56,0,.13,0,.52-.13.52-.26.39,0,.52.26.78.39.52.26,1.17.52,1.69.26.39.39.91.65,1.17.26.39.65.78.65,1.56.13.26,1.04.78,1.43,1.17,1.82.78,3.77,1.17,5.59,1.04,1.43,0,2.86-.78,4.29-1.04,1.3-.26,2.6-.91,3.77-1.43,1.3-.65,2.47-.65,3.64-1.17.52-.13,1.17-.52,1.69-.78.39-.26.91.13,1.17-.26.39.65-.52,1.17-.39,1.95,0,.13-.52-.13-.91.13.39.39,1.04.78,0,.91-.13.52.26.52.52.39.78-.39,1.69-.39,2.08-1.04h.13c1.3-.26,1.95-1.69,3.25-1.82.65-.26.91-.78.13-1.3-.26-.26-.26-.52,0-1.04.65-1.56,1.04-1.82,2.6-1.43.52.13,1.56-.13,2.08-.78.26-.52,1.17-.91.65-1.69,1.04.39,1.56,0,2.34-.65,1.43-1.17,2.99-4.03,4.03-5.46,1.17-1.17,2.34-2.34,3.64-3.38.91-.78,2.21-1.56,3.12-2.21.39-.26.52.13.91.26-.78.52-1.17,1.43-2.21,1.56-.26-.13-.26,0-.26,0-.39,1.17-1.3,1.69-2.08,2.47l-1.43,1.43-2.34,2.21c-1.17,3.12-2.21,4.42-3.64,5.33-.78.65-1.17,1.17-1.82,1.82l-1.17.65c-1.17.78-2.34,1.69-3.25,2.86l-.52.52c-1.04.52-2.08,1.56-3.25,2.21-1.04.52-1.95,1.17-2.86,1.69-.65.39-1.04.65-1.82.52-.65-.26-1.17.26-1.82.65-1.43.91-2.99,1.56-4.55,1.56-.52,0-1.04.26-1.43.39-1.56.39-2.99,1.04-4.55,0-.13,0-.26-.13-.39,0-.65,1.04-1.69.26-2.34,0-2.34-.65-4.29-1.82-5.98-3.51ZM225.99,62.82l2.21-2.08c.52-.65,1.3-1.17,1.95-1.69,1.17-1.43,2.86-2.73,3.64-4.42.26-.52-1.04-2.34-2.6-1.3-.26-.39-.52-.26-.91,0-.39.52-.78.91-1.43,1.3-1.69.91-3.38,1.69-4.55,3.38-.65.91-1.56,1.56-2.34,2.34-.78.65-1.82,1.17-2.47,1.95-.39.52-.65,1.17-1.56.91-.26,0-.26.26-.26.39.26.65-.13,1.04-.65,1.43-.13.26-.26.26-.39.65,0,.26.13.26.13.52.52,0,.91.39,1.3.13,1.95-1.17,6.11-2.21,7.93-3.51ZM221.7,102.08c0,.39-.39.39-.65.26.13-.13.26-.26.65-.26ZM222.22,101.82c-.13-.13.13-.39.26-.52.26-.26.65-.52,1.04-.52,0,.52-.65.65-.78,1.17l-.52-.13ZM225.21,101.04c-.39-.52-1.17-.13-1.69-.26.52-.52,1.04-1.04,2.08-1.17-.65.39-1.04.91-.26,1.17.26,0,.39.26.13.39-.13.26-.13,0-.26-.13ZM225.86,98.7c.52-.13,1.04-.65,1.43-1.04,1.17-.91,2.34-1.56,3.64-2.21.91-.39,1.69-.91,2.21-1.82.13-.52.65-1.17,1.3-1.04,0,.26-.52.52.13.65-.65.78-1.56,1.43-2.47,2.08-1.17.91-2.47,1.69-3.77,2.47-.91.52-1.69,1.3-2.73,1.56-.13-.39,0-.52.26-.65ZM231.71,34.74c.39-1.95,3.38-4.03,6.24-5.85,2.47-1.69,8.84-9.62,12.09-10.27,1.04-.13,2.08-.52,2.99-.65.91-.26,2.08.78,2.34,1.3,2.34,1.43,2.86,3.38.52,6.11-1.43,1.3-2.99,2.73-5.33,3.51-1.3.52-2.34,1.3-3.25,2.21-1.56,1.56-9.75,5.33-12.74,7.41-.91.52-3.25-1.43-2.86-3.77ZM234.44,92.59c.13-.52.52-.65,1.04-.65.26,0,.65-.26.91-.26-.65.39-.91,1.17-1.56,1.3-.26,0-.26-.26-.39-.39ZM240.16,86.35c.13-.13.26-.13.26-.26s.13-.26.26-.13c.13.26,0,.26-.13.26h.13c-.13.13-.13.26-.26.26-.13.26-.39.39-.52.26,0-.26.13-.26.26-.39ZM241.85,84.14c-.39.52-.52.65-.91.52l.91-.52ZM243.02,83.62c0,1.04-.65,1.04-1.17,1.04.13-.39.91-.52,1.17-1.04ZM243.93,26.94c2.08-1.82,4.55-2.86,6.89-4.42.91-.52,2.08-1.04,2.6-2.08.26-.13.39,0,.52-.26l-.52.26c-.39.39-1.04.91-1.82,0-.13-.39-.65-.52-.78,0,0,.26-.26.39-.52.13-.65-.52-.91.13-1.69.78.78,0,.65.52.78.65.26.26,0,.39,0,.39-1.56-.26-2.6.65-3.38,1.43-1.56.91-4.03,1.43-4.03,4.03.78,0,1.43-.26,1.95-.91ZM244.72,82.06c.65.91-.39.91-.78,1.3,0-.78.52-.91.78-1.3ZM245.49,81.67c-.26.39-.39.52-.78.39.13-.13.39-.13.78-.39ZM245.89,79.98c-.13.52-.26.65-.78.78l.78-.78ZM247.44,78.94c-.26.26-.65.65-1.3.78.52-.52.78-.78,1.3-.78ZM248.09,83.49c0,.26,0,.52-.26.65,0,.13-.26,0-.26,0,0-.39.13-.52.52-.65Z"/>
  </g>
  <g>
    <path class="st0" d="M174.28,58.49c-.78,1.82-.26-1.17-1.17.65-1.17,2.08-2.21,4.16-3.25,6.37-.65,1.95-1.82,3.77-2.6,5.72-.39.65-.91,1.17-1.04,1.95-.26.52,0,1.3-.26,1.95-.52,1.17-.91,2.21-1.04,3.38-.39,1.04-.78,1.95-1.04,2.99-.13.26-.26.52-.39.52-.91,0-1.43.39-1.82,1.3-.39.65-1.04,1.3-1.3,1.95l-.13.13c0,1.95-1.3,3.38-1.69,5.07-.65,1.04-1.17,2.08-1.56,3.25.52.26.91.39,1.3.39,2.34.39,4.68.52,7.02.78,1.3.13,2.6.39,3.9.39.39,0,.78,0,.91.78v.13c.39.26.52.39.65.65-.26.13-.52.39-.91.52-1.04.13-2.08.26-3.25.13-.13,0-.26,0-.26-.13-.78-1.04-1.95-1.04-2.99-1.04-2.47-.26-4.68-.52-7.02-.65-.39,1.04-1.04,2.08-1.69,2.99-.52,1.3-.78,2.73-1.3,4.03-.13.39-.39.65-.52.91-.65-.52-.13-.78.13-1.3-.26,0-.52-.26-.65-.26.52-.78.78-1.82,1.04-2.73.52-.78,1.43-1.56,1.82-2.34-.13-.39-.13-.65-.39-.91-.13-.13-.26-.39-.52-.39-.78-.26-1.43-.13-2.21-.26-.91,0-1.82-.13-2.73-.13-.91.13-1.82.13-2.73.26.52.52.78,1.43,1.82,1.69.39,0,.78.39.91.78.39,1.56.91,3.38.26,5.07-.13.78-.52,1.43-1.04,2.08-.65,1.43-1.3,2.6-1.95,3.9-.65,1.17-1.04,2.34-1.56,3.64-.26.65-.65,1.43-.65,2.21,0,.26-.13.52-.26.65-.52.39-.78.91-.78,1.43s-.13.91-.39,1.3c0,.39-.26.65-.13,1.3.13.13-.52.91-2.34,6.11-.65.65-1.3,1.69-.91,2.6.13.26.13.39.13.52-.52.52-.65,1.17-1.04,1.82-.13.13-.39.26-.39.52.13.78-.26,1.3-.52,1.82-.13.26-.26.39-.13.65-.39.78-.78,1.43-.91,2.08h-.13c-1.43.39-.91,1.95-1.43,2.86-.52,1.04-.91,2.21-1.3,3.25-.13.39-.13.78-.13,1.17.13.65.26,1.17.52,1.82-.91-.65-.91-.52-1.3.39-.13.26-3.25,6.76-3.25,7.02-.13.13-.39.13-.65.13l-.52.13c.39.78.65,1.69.91,2.6-.26.13-.52.39-.78.78,0,.39.26.91.26,1.3-.13.26-.52.39-.78.65-.26.13-.39.26-.39.52-.52.91-.65,1.95-.78,2.99-.13.13-.13.26-.26.26-.78.52-1.3,1.3-1.3,2.21,0,.13-.13.26-.13.39-.13.52-.26,1.3-.52,1.82-.26.26-.52.52-.91.65q-.65.52-.39,1.43c.13.65-.13,1.3-.52,1.95-.26,1.43-.78,2.6-1.43,4.03-.13,1.43-.39,2.86-.65,4.29,0,.26-.26.52-.39.78-.52.26-.39.78-.39,1.3-.26.65-.26,1.43-.26,2.08,0,.26-.39.52-.52.91-.39,1.17-.78,2.21-1.04,3.12-.39.65-.91,1.17-1.04,1.82.39,1.56-.26,2.86-.39,4.42.52-.13,1.04.13,1.43,0,.26,0,.52-.26.52-.52.52-.78.78-1.56,1.04-2.34.26-1.43.78-2.99,1.17-4.42.65-1.43.91-2.99,1.69-4.16.13.13.26.26.13.26-.13,1.04-.52,2.08-.78,2.99-.26.78-.39,1.43-.52,2.21-.52,1.43-1.04,2.73-1.3,4.16-.13.39-.13.91-.26,1.43,1.04,0,2.08,0,2.99-.13,1.56-.13,2.86-.13,4.16-.13,1.43-.13,2.86.13,4.16.26.26,0,.52.13.91,0,1.04,0,1.82.39,2.73.52.65.13,1.56.39,2.34.26.65,0,1.17.13,1.56.78l.91.78c-.13.39-.39.78-1.17,1.04-1.3.26-2.47-.13-3.38,1.17-.26-.26-.39-.39-.39-.65-.78,1.04-2.08,0-2.99.39-.39.13-.91.13-1.43.13-2.34,0-4.42.13-6.89,0h-3.64c-.52,0-.91,0-1.3.13-.13,0-.39.26-.39.39-.39,1.43-.78,2.86-1.04,4.55-.39.78-1.04,1.69-1.04,2.6-.26.52-.26,1.04-.39,1.43-.26,1.56-.39,3.12-.78,4.55-.26.39-.13.78-.13,1.3-.26.65-.65,1.17-1.04,1.82-.26-1.04-.39-2.21,0-3.12.39-1.43,1.04-2.73.65-4.16-.13-.13,0-.26,0-.26.65-1.04.78-2.47,1.3-3.64l1.56-5.2v-.26c-1.69-.65-3.12-.39-4.68-.39-1.3.13-2.6-.13-3.9-.26-1.17.26-2.21.13-3.38-.26-.52,0-1.04.26-1.56.39-1.17.13-2.34.39-3.51,0-.78-.13-1.43.13-2.21.13-1.3-.13-2.6-.39-4.03-.26-.52.13-1.04.52-1.43.65.13-.13,0-.26.26-.65l-2.08.39v.13h1.04c-.13.91-.91.65-1.56.78.26-.65-.13-.91-.78-1.04-.39,0-.91-.65-1.04-1.04-.13-.39.13-1.17.13-1.56,1.56-.26,3.12-.78,4.55-1.04.52-.13,1.17,0,1.82,0,.91.13,1.69.13,2.6,0,1.17,0,2.47.13,3.64,0,1.95,0,3.9,0,5.85-.13.91.13,1.82,0,2.73,0,.78,0,.91,0,.65-.91-.39-.13-.65-.13-1.04-.52-.13,0-.26-.39-.26-.65-.13-.26,0-.52,0-.78-.52-.65-.78-1.3-.39-2.21,0,0-.13-.13-.13-.26-.39.65-.65,1.04-.91,1.69-.52-.91-.78-1.43-.91-2.08,0-.91-.13-1.69-.52-2.34,0-.26,0-.52.26-.65.91-.91,1.04-2.21,1.56-3.51.39-.78.65-1.56.91-2.34.91-2.86,1.95-5.59,2.73-8.45.65-1.3.91-2.86,1.69-4.29.52-1.82,1.17-3.64,1.69-5.33l.39-1.3c.65-1.43.91-3.12,1.82-4.42l4.81-12.22c.52-.91.91-1.69,1.04-2.73.26-1.3,1.17-2.21,1.56-3.51l.39-1.69c.26-1.04.91-1.82.91-2.99,0-.52.65-.91.65-1.56.13-.26,0-.65.13-1.17,0-.13,0-.26.13-.39,1.04-.91,2.86-7.28,3.38-8.58l2.21-5.85c.26-.65.65-1.43.91-2.21.13-.26-.13-.52-.13-.78.26-.26.52-.65.65-.91.78-1.69,1.3-3.38,2.08-5.07.65-1.69,1.3-3.51,1.82-5.33.52-.91.91-1.82,1.3-2.99.13-.78-.13-1.04-1.04-1.17-2.21.13-4.42.13-6.63.39-1.82,0-3.64.13-5.46.26-.52.13-1.17,0-1.82.13-.13,0-.26.13-.26.26.26.39.26.65.52.91v.26c-2.47-.78-5.33-.39-7.67-1.82.26-1.17,1.04-1.3,1.95-1.3,2.34,0,4.68-.13,6.89-.13,1.17-.13,2.34-.13,3.51,0,.13,0,.26,0,.52.13-.39.13-.52.26-.78.26v.13c.39,0,.78,0,1.17-.13,0-.26,0-.39-.13-.65.13,0,.26,0,.39.13,1.17-.13,2.47-.39,3.64-.39,1.17-.13,2.21-.13,3.51-.13.52.13.91.13,1.56,0,.91-.39,1.82-.13,2.6-.13.52.13.91,0,1.43,0,2.34,0,4.81.13,7.15.13,1.43,0,2.86.13,4.29.26.52,0,1.04.39,1.69-.26.26-.39.39-.65.52-1.04.26-.39.52-.65.91-1.04-.26-.26-.39-.39-.65-.52,1.17-1.82,1.82-3.77,2.73-5.72.13-.39.39-.78.91-1.43-.13-.13-.39-.26-.65-.26-.91-.39-1.04-.39-.78-1.43,0-.52-.13-1.17-.13-1.69l.39-3.77c.13-1.17.52-2.34.52-3.38,0-.52.26-.78.65-.65.65.13,1.43-.13,1.82.78,0,.13.13.26.13.26.91.26,2.34-.26,2.86-.78.13-.26.39-.39.39-.39.13-.52.26-.78.39-1.17.39-1.04.78-1.82,1.3-2.73.78-1.3,1.3-2.47,2.08-3.64.26-.65.39-1.3.65-1.82.52-1.17,1.3-2.47,1.95-3.64.91-2.08.39.91,1.17-1.04.26-.52.65-.52,1.04,0ZM110.97,181.47c-.13,0-.26,0-.52-.13,0,.65-.13,1.43-.39,2.08.13.13.26.13.39.13.13-.65.39-1.3.52-2.08ZM114.09,172.37v-.13c.39-.91.78-1.82,1.43-2.73-.78-.26-.91-.26-1.3.52,0,.39-.13.78-.26,1.04,0,.52.13.78.13,1.17-.13,0-.39.13-.39.26-.78,1.04-1.04,2.21-1.43,3.38-.13.26,0,.65.13,1.04h.13c.39-.91.65-1.82.91-2.47.39-.65,1.3-1.17.65-2.08ZM117.21,177.31l.52-.13-.39-.52c-.13-.13-.26,0-.39,0-.26.13-.65.26-.91.13.13-.26.13-.52.26-.78v-.13c-.52-.13-.78.13-.91.65-.13.26-.26.52-.52.78-.52.78-.26.91.39,1.3.26-.13.52-.26.52-.52.13-.78.65-1.17,1.43-.78ZM115.26,168.99c.78-2.47,1.95-4.81,2.99-7.28-.13-.13-.26-.13-.26-.13-.52.26-1.04.26-1.3.91-.39,1.69-1.04,3.25-1.56,4.94-.13.52-.26.91.13,1.56ZM116.56,175.1q.78.65,1.69-.26c-.65-.13-1.43-.65-1.69.26ZM119.16,179.39c-.39-.52-.52-1.17-1.43-1.17,0,.39-.13.65-.26.65l.91.52c.26.13.52.13.78.26v-.26ZM119.68,157.16c-.13,0-.26.13-.39.39l-.39.78c-1.04.52-1.17,1.3-.78,2.47,1.3-.78,1.17-2.47,1.56-3.64ZM122.28,152.35c-.39-.26-.65-.65-.78-.91-.13,0-.26-.13-.26-.13-.13.52-.13.91-.26,1.56.52-.26.91-.39,1.3-.52ZM122.67,181.34c0-.13-.26-.26-.26-.26.52-.65.65-1.17.91-1.95.65,1.04.26,1.69-.65,2.21ZM123.84,153.78l-.91,1.56c1.3-.13,1.43-.13.91-1.56ZM123.97,177.96c.13-.91.39-1.95.91-2.6.26.65-.52,2.34-.91,2.6ZM126.05,141.3c-.65.65-.91,1.3-1.3,1.95,1.04-.39,1.43-1.17,1.3-1.95ZM128.52,134.67s-.13,0-.26-.26c-.26.65-.39,1.17-.65,1.69q.13.13.26.13c.26-.52.78-.91.65-1.56ZM130.34,160.28c.78,0,1.56.26,2.34.26,0,0,0,.13.13.26-.39.13-.78.65-1.17.39-1.04,0-1.3.78-1.82,1.69-.13.65-.65,1.17-1.04,1.82h-.13c.52-1.3,1.04-2.86,1.43-4.16,0,0,.13-.26.26-.26ZM130.6,139.09l-.78-.52-.26.26c.26.26.52.52.78.65.13-.13.26-.26.26-.39ZM130.99,130.64c-.39.13-.65.26-1.17.39.39.65.65.91.78,1.3l.39-.39v-1.3ZM132.81,155.34c-.39.52-.39,1.04-.65,1.69,0,.13-.26.13-.39.13,0,0-.26-.39-.13-.39.39-1.17.91-2.6,1.43-3.9q0-.13.13-.13c.39.78.39,1.43-.13,1.95-.26.13-.26.39-.26.65ZM134.11,151.83l1.04-2.47c-.26.65-.52,1.56-1.04,2.6-.13,0,0-.13,0-.13ZM149.84,110.49c0,.26.13.52.13.65-.26.91-.78,1.56-1.17,2.34-.52.91-.52,2.08-1.04,2.99-.52,1.69-.91,2.99-3.12,9.36-.39,1.17-.91,2.21-1.43,3.38-.13.91-.65,1.82-1.04,2.86v.52c.26,0,.52.13.91.13-.52.52-.91,1.17-1.56,1.82-.39.26-.52.78-.65,1.3-.65,1.82-1.56,3.64-1.95,5.59-.52,1.17-1.3,2.34-3.38,7.02,1.3-3.25,1.17-3.38,1.04-3.64l-.39.26c.13-.65.39-1.3.65-2.08v-.13c.65-.52,1.04-1.3,1.17-2.08s.13-1.3.26-1.95v-.39c1.17-.26.78-1.56,1.69-2.21.39-.26.39-.65-.13-.91.78-1.17,1.04-2.08,1.56-3.12,0-.13.13-.26,0-.52-.26-.65.26-.91.65-1.3.39-.26.65-.65.39-1.17-.13-.26.26-.52.39-.65-.13-.78-.13-1.43.91-1.69l1.69-6.76c.13-.26.39-.39.52-.65.65-.52.13-1.56.52-2.21.13-.39.39-.65.78-1.04-.26-.65.13-1.3.39-1.95.39-.26.52-.91.52-1.43.13-.78.39-1.04,1.04-.78,0-.52-.26-.91,0-1.3,0-.13.39-.13.65-.26ZM152.83,103.6c-.13.91-.65,2.08-1.3,3.12-.13.91-.52,1.95-.91,2.86-.13.26-.52.52-.65.52-.39,0-.65-.39-.52-.91.39-.52.52-1.04.78-1.43.26-.91.91-2.08,1.3-2.99.26-.78.65-1.17,1.3-1.17ZM185.2,40.42c-.13.26-.13.78-.13,1.17-.26.26-.26.65-.26,1.17-.13,0-.26-.13-.26-.13,0,.39.13.52.13.65-.26.65-1.17,1.04-1.82.78-.26,0-.52.13-.78.26-.39.52-.65,1.17-1.04,1.69-.65.91-1.43,1.82-1.69,2.73-.39.52-.52,1.17-.91,1.69-.78,1.82-1.69,3.64-2.6,5.33-.26.52-.39,1.17-.78,1.56-.13.13-.52.26-.78.39,0-.39,0-.78.13-1.04.65-1.3,1.43-2.6,2.21-3.9.13-.26.13-.65.39-.91,0-.39.26-.78.65-1.17.65-.91.52-2.08,1.3-3.25.52-.26.65-.91.91-1.43.65-.78,1.17-1.56,1.3-2.47.13-.39.65-1.04.52-1.56,0-.91.26-1.56.91-2.08.91-.78,1.82-1.3,2.86-1.56.52.78.26,1.3-.26,2.08Z"/>
    <path class="st0" d="M209.51,168.34c.39.13.65.52,1.04.78-.52,1.43-1.3,2.6-1.69,4.03,0,.39-.39.52-.39.65-.52.39-.65.91-.39,1.69.13.65-.13,1.04-.65,1.17-.26.26-.78.39-1.3-.26-.26-.52-.52,0-.52.26-.13.65-.26,1.04-1.04,1.17-.13,0-.39.39-.65.65,1.3.39,1.56-1.04,2.73-1.17.26,2.6-1.04,4.03-2.47,5.33-.26.26-.39.39-.65.78,0,.52-4.29,5.46-4.81,5.85-.65.78-1.56,1.43-2.21,2.34-.52.78-1.56,1.04-2.34,1.43-.78.52-1.56,1.17-2.21,1.95-1.04,1.17-2.21,1.69-3.64,2.21-.26,0-.52,0-.65.13-.91,1.04-1.69.78-2.86.52-.65-.26-1.56-.26-2.21-.39-1.43-.13-2.21-.78-3.51-1.69-.78-.65-1.69-1.3-2.21-2.34-.65-1.17-1.43-1.95-1.95-2.99-.91-1.17-.65-2.6-.39-3.77,0-1.3.39-2.6,1.04-3.77.13,0,.26-.13.13-.13-.78-1.17.26-1.69.52-2.47,1.04-2.6,2.73-4.55,3.38-7.28.26-.78.78-1.56,1.43-2.08.39-.78.52-1.3.78-1.95.52-1.3,1.3-2.47,2.08-3.64.91-1.17,1.56-2.47,1.95-3.9.52-1.3,1.04-2.6,2.08-3.51.13-.13.26-.26.26-.39,1.69-3.64,4.16-6.89,6.24-10.4,1.56-2.86,3.51-5.59,5.07-8.58.39-.26.78-.52.78-1.17-.52.13-.91.39-1.43.65-.13.13-.26.13,0,.26-1.17.26-2.21.78-2.99,1.95-.26.39-.78.39-1.43.52-.26.13-.39.13-.52.52,0,0,0,.13.13.13.26.26.52.13.65-.13,0-.13.13-.13.26-.13.13.39.26.65,0,.78-1.3.52-1.95,1.69-3.25,2.21-.39,0-.65.39-1.04.65-.26-.52.13-.65.39-.78.52-.52,1.04-.65,1.56-1.17.13-.13.39-.13.26-.52-.13-.26-.39-.13-.65,0-.65.39-1.3.78-1.95,1.3l-1.04.78c-.26.13-.39.52-.26.78.39.91-.26,1.17-.78,1.56-1.43,1.69-3.12,2.99-4.55,4.68l-2.08,3.12c-.91,1.3-1.82,2.47-2.86,3.64-2.21,2.47-4.03,4.16-6.24,6.63-2.08,2.21-4.29,4.16-6.11,6.37-1.17,1.17-2.47,3.64-3.64,4.94-1.17.91-2.08,2.21-3.12,3.12-.91.78-4.68,7.02-5.72,7.67-.39.52-.65,1.43-1.04,2.08-.78,1.82-1.82,3.51-2.86,5.33-.26.39-.65.65-.91,1.04-.65-.26-1.04,0-1.69,0-1.3.13-2.34-.65-2.99-1.56-.52-.65-1.17-.91-1.82-1.69-.65-1.17-.78-2.34-.39-3.64,1.04-1.69,2.34-3.38,2.99-5.33.91-1.43,5.07-8.32,5.72-9.88.39-1.04.91-2.08,1.3-3.25.78-1.56,1.95-2.73,2.21-4.55,0-.26.13-.39.26-.52.52-.39.52-.91.78-1.43.91-1.17,1.17-2.73,1.95-3.77.39-.39,3.25-3.51,3.38-4.03,1.17-1.95,2.21-3.77,2.86-5.85.52-1.3,1.17-2.47,1.82-3.77.65-2.99,2.08-5.59,2.6-8.58.26-.13.39-.39,0-.52-.26-.13-.39,0-.52.13-.65.13-1.43-1.69-.52-3.12,1.3-.39,2.6-.65,3.9.39.65.52,1.43,1.04,2.34,1.56.78.39,1.69.52,2.6,1.04.52.13,1.17.65,1.56,1.3,0,0,.13.26.13.39.26.52.39,1.17.13,1.56-.26.78-.52,1.69-.65,2.34-.26.52-.39,1.04-.65,1.69q0,.13-.13.13c-.52,1.43-1.04,2.73-1.69,4.03-.78,1.56-1.3,3.38-2.21,4.81-.39,1.04-.91,2.34-1.43,3.25-.65.65-3.38,4.16-3.77,4.55-.78,1.04-.78,2.34-1.43,3.38-.39.78-.91,1.95-1.17,2.99,1.04-1.17,1.95-2.47,2.99-3.64,2.73-2.73,5.07-5.46,7.67-8.32,2.08-2.34,4.16-4.81,6.37-7.02,2.21-2.21,4.55-4.29,7.02-5.85.52-.13.65-.78,1.3-.91,1.69-.39,2.6-1.95,4.16-2.6,1.69-.52,3.12-1.95,5.07-2.47.91-.26,1.82-.78,2.6-1.43,1.17-.91,2.34-.65,3.25.78.78.91,1.56,1.43,2.34,1.82,1.43.65,2.6,1.69,2.6,3.51,0,.26,0,.39-.13.52-1.04,1.43-1.82,3.12-2.86,4.55-.78,1.04-1.3,2.34-2.21,3.12-.65.52-.78,1.43-1.3,2.08-1.56,2.34-3.12,4.55-4.81,6.89-.52.65-.65,1.56-1.56,1.82v.26c.52,1.43-.65,1.95-1.3,2.73-.26.52-.65.91-1.04,1.43-.13.52-.26.91-.78,1.04-.39.13-.52.13-.39.91.13.26-.13.91-.39,1.3-.65.65-.91,1.43-1.69,1.95-.13,0-.26.13-.26.13.26,1.04.13,1.56-.65,1.82,0,0-.13.13,0,.26.52.78-.13.91-.52,1.17-.26.26-.91.78-.52,1.17,0,.91-.39,1.04-.78,1.43l-1.17,1.17c-.13-.13-.26-.26-.52,0,.26.13.39,0,.52,0-.13.39-.13.91-.26,1.43s-.39,1.17-1.04.91c-.78,0-.52.65-.52.78.78.91-.13,1.69-.39,2.34-.39,1.17-1.04,2.47-1.43,3.64,0,.13-.13.26-.13.26-.91.52-.78,1.69-1.17,2.6-.13.52-.26,1.04-.52,1.3-.65.65-.13,1.43-.39,2.08.13.13.65.39.78.13.91-1.04,2.47-.26,3.38-.91,1.3-1.04,2.86-1.69,4.29-2.6.26-.26.65-.65.78-1.43-.13-.65.78-1.17,1.3-1.69,1.17-1.3,2.6-2.6,3.9-3.77.78-.78,1.43-1.69,2.6-2.21.26-.13.39-.78.39-1.04,4.42-5.59,5.46-5.98,5.98-6.89.13-.26.39-.26.52.13.26.26.65.39.78.52-.13.39-.39.39-.78.26-.39,0-.52.13-.52.39,0,.13,0,.39-.13.39-.78-.13-.78.78-1.3,1.17-.52.65-5.07,5.72-5.85,6.24-1.56,1.43-2.99,3.12-4.81,4.68,0,.13-.39.26-.13.52.13.26.26,0,.52,0,.26-.26.65-.39.91.26.13.39.65.13.91,0,1.95-1.95,8.06-8.45,9.62-10.79.78-1.3,2.21-2.21,2.6-3.77,0-.39.52-.13.78-.52-.26-.39-.65-.13-1.04-.39,0-.26.39-.65,0-1.04.39-.26.91.78,1.04,0,.13-.52-.65-.26-.78-.65.39.13.78-.13,1.3.26.39.52.52.26,1.04,0,.13-.13.13-.26,0-.52-.52-.26-1.04-.52-1.3-.78-.13.78-.78.52-1.04,1.04,0,.26-.13.39-.26.65-.13-.13-.13-.26-.13-.39.13-1.04,1.3-1.69,2.47-1.3h-.26v.13l.26-.13ZM146.98,185.89c-1.17.26-.52,1.43-1.04,2.08-.13.13,0,.52.65.65.13-.91,1.04-1.56.39-2.73ZM146.85,185.63c.13,0,.13.13.13.13.13,0,.13-.13.13-.26v-.39c-.13-.26-.26-.26-.39,0-.26.26,0,.39.13.52ZM147.76,184.59c.26-.13.65-.26.52-.65,0-.26-.26-.39-.52-.39-.26.13-.52.39-.39.78,0,.13.13.26.39.26ZM149.45,180.3c.13,0,.13-.13.26-.13.13.26,0,.39-.26.78-.13-.13-.13-.26-.13-.39l-1.17,2.08v.13c.26-.13.52-.13.78-.26.65-.13,3.38-6.24,3.51-6.76.13-.13-.13-.26-.26-.26-.26.13-.39.52-.52.91l-2.21,3.9ZM151.27,177.7c-.13-.39.13-.65.52-1.04,0,.52-.39.91-.52,1.04ZM151.66,172.76c0,.13.13.13.26.13s.26-.13.26-.26c-.13-.13-.13-.26-.26-.26,0,0-.26.13-.26.39ZM153.35,174.32c0-.13,0-.39-.26-.26s-.78.26-.78.78c.13.39.39.39.65.39.39-.26.52-.52.39-.91ZM153.35,174.45c0,.26-.13.52-.39.78-.13,0-.13-.26-.13-.26.13-.26.26-.26.52-.52ZM153.87,173.15l.26-.39v.39c.26,0,.52,0,.78-.39-.26-.26-.52,0-.65-.26,0-.26.13-.52.26-.52.26-.39.39-.78.65-.91-.39,0-.65,0-.78.26-.52.52-.78,1.04-.78,1.82h.26ZM154.13,167.82c.52-.39,1.17-.52,1.56-.91.13,0,.39.13.39-.13,0,.13-.26.13-.39.13h-.39c-1.04-.39-.91.39-1.17.91ZM155.3,171.07c-.13.39-.26.52-.39.65.26,0,.52-.13.65-.52-.13,0-.26,0-.26-.13ZM155.17,169.9c.26.26.39.13.52-.13-.26-.13-.52-.13-.52.13ZM156.47,167.56c-.39.13-.52.26-.52.52v.26l-.13.13v.39c.65-.26.91-.52.91-1.04l-.26-.26ZM167,166.26c-.13.26-.78-.26-.91.26,0,.13.13.26.26.26.39.13.78,0,.65-.52ZM170.25,162.23c-1.04.52-1.17,1.43-1.69,2.08-.52,0-.78.26-.78.78.13.13.26.13.39.13.52-.13.39-.52.39-.91.65.13,1.04-.26,1.56-.39.78-.39-.39-1.04.13-1.69ZM171.94,162.49c-.39-.52-.78-1.04-1.17-1.04-.26,0-.52.39-.26.65.26.52.65.39,1.43.39ZM172.46,160.41c-.52.26-.91,0-1.04.39,0,.39.52.26.78.39,0-.26.13-.39.26-.78ZM179.22,152.35c-.78,1.04-1.56,1.56-2.08,2.34-.39.78-1.17,1.17-1.69,1.82-.65.52-1.43,1.17-1.82,1.95-.39.65-1.04,1.04-1.43,1.56q.91.39,1.04-.26c.13-.26.39-.39.52-.39.91-.52,2.08-1.04,2.47-2.34.39-.65.26-1.95,1.56-1.82-.13-.13-.13-.26-.13-.26q0-.26.26-.39c.52-.13,1.3-1.17,1.3-2.21ZM176.49,185.89c-.52.65-.78,1.56-.78,2.47.13.39.13.65.39.65.26.13.13-.13.26-.39.13-.39.13-.65.26-.78.65-.65.65-1.3-.13-1.95ZM177.14,184.46c-.39.26-.39.52-.39.65s.13.26,0,.26h.13s-.13-.13-.13-.26c.52,0,.52-.26.39-.65ZM178.57,182.38c0-.26-.13-.26-.39-.26-.39,0-.52.26-.65.52.13.26.39.39.39.39.65,0,.78-.26.65-.65ZM179.61,180.82c-.52-.13-.91-.13-.91.78.39-.26.78-.52.91-.78ZM181.3,180.69c-.39-.52-.39-1.56-1.3-1.3-.13,0-.52-.13-.52.39,0,.26.13.26.39.52.26.13.65.26.91.65,0,0,.13.13.26,0,.13,0,.26-.26.26-.26ZM181.82,149.62c-.26-.26-.65-.26-.65.13-.39.78-1.04,1.43-1.43,2.21.39-.13,1.04.26,1.17-.13-.13-.78.52-1.04.78-1.56.13-.26.39-.39.13-.65ZM180.13,178.74c.13.13.26.13.52.13.39-.13.13-.65.26-.91.26-.26.52-.65,0-1.04-.13-.26-.39-.26-.39-.13-.39.39,0,.52.13.78-.26,0-.52-.26-.78.13-.13.39,0,.65.26,1.04ZM182.08,178.48q.13-.13.13-.26c.13-.13.13-.26,0-.26-.26,0-.26.26-.13.52ZM182.6,172.11c.26.13.26-.13.39-.26,1.04-1.56,1.95-3.25,2.86-5.07-.26.13-.39.13-.39.13-1.3,1.43-2.34,2.86-2.99,4.55-.13.26-.13.39.13.65ZM203.53,179.91c0-.26-4.16,3.9-4.42,3.9-.13,0-.13.26-.13.39.13.13.13.39.39.39,0,0,4.16-4.55,4.16-4.68ZM212.63,163.53c-.13.39-.13.78-.65.78.13,1.17-.52,1.95-1.17,2.6-.39.52-.78-.26-1.3-.26.26-.39.39-.39.65-.26.26.13.65,0,.65-.13-.39-.91.39-1.17.52-1.95,0-.39.26-.13.52,0q.13-.13.13-.26c-.13-.39,0-.65.39-.78.13-.13.26.13.26.26ZM213.93,161.84c-.26.39-.39,1.04-1.3,1.3.26-.78.78-1.17.91-1.82,0,0,.26-.13.26,0,.26,0,.13.26.13.52Z"/>
    <path class="st0" d="M213.54,198.25c-1.95-.78-2.99-2.73-4.81-3.77-.91-.52-1.43-1.56-1.69-2.73-.91-4.16-.39-8.32,1.3-12.35.26-.52.52-1.04.52-1.56,0-.78.13-1.43.52-1.82,1.04-1.3,1.3-2.99,1.69-4.55.26-1.17,1.04-2.08,1.43-3.12,1.04-2.34,2.73-4.55,3.12-7.15.13-.65.52-1.04.91-1.56.65-.65,3.25-5.33,3.38-6.37.26-1.17,1.04-2.21,1.56-3.25.91-1.69,3.12-4.81,3.77-6.63.26-.65-.26-.52-.65-.52-3.25.91-.52.52-3.77.91-1.69.13-3.64.39-5.2-.91-.91-.65-.78-1.69-1.17-2.47-.13-.39.91-.91,1.69-1.04,2.47-.65,5.07-.65,7.54-.78,3.38-.13.65-.52,3.9-.78.91-.13,1.43-.52,1.82-1.3.65-1.17,1.56-2.21,2.21-3.38.26-.65-.26,0,.26-.65,2.08-2.99,3.12-6.37,5.2-9.36,1.56-2.08,1.17-3.51,3.64-6.89.78-1.04.91-1.17.78-1.69-.52-1.17.13-1.69.91-2.21.78-.39,1.69-.91,2.21-1.69.39-.39-.26-.52.39-.26.91.39,1.95.39,2.73.78.91.13,1.56.13,3.12.26,1.95.13,2.99,3.38,2.6,5.07-.39,1.43-.78,2.99-1.95,4.03-1.3,1.17-1.82,2.86-3.25,3.9-.78.65-1.43,1.69-1.3,3.25-.52,1.17-1.43,2.08-2.34,3.12-1.56,1.56-1.17,2.34-1.82,3.9-.26.39-.78.52-.91,1.04-.52,1.17-.39,1.43.91,1.56,2.86.26,5.72-.13,8.58,0,2.21.13,4.42-.13,6.63.39.78.13,1.56-.26,2.34-.26,1.3-.13,2.6.26,3.77.65v.39l-18.85.78c.65,1.04,2.08.65,2.99,1.3-1.82.13-3.64,0-5.46.39-1.43.26-1.43-.39-2.73.78-.26.26-.65.39-.78.78-.39,1.82-2.47,4.55-4.16,5.59-.52.26-1.3,1.04-1.43,1.95,0,.39-.26.65-.65.78-.39,0-.39-.39-.52-.65s-.39-.65-1.04-.39c.78.78.26,1.82,1.17,2.47.52.39,0,.65-.26.91-.26.39-.65.78-1.17.91.65.65-1.3,5.07-2.34,5.46-.26,0-.39.13-.39.39,0,1.04-.78,1.56-1.43,2.21-.39.39-.52.91-1.17.65-.65-.39-.39-.91-.13-1.43-.78-.13-1.56-.13-2.21.13,0,.65.52.26.65.65-.39.39-.78.91-1.56.78q-1.56-.13-1.04,1.17v.78c0,1.17.52,1.43,1.43.91.78-.26,1.17.39,1.56.65.26.26,0,.78-.26,1.17-.26.65-.78.39-1.3.13-.39-.13-.78-.13-1.17-.13.26-.52-.65-2.08-1.17-2.08-.13,0-.26.13-.39.13-.13.39-.13.78-.52,1.04-.26.26-.52.52-.91.78-.13-.13-.26-.26-.26-.39-.26-.26-.26-.91-.78-.52-.52.39.13.52.26.78.26.78,0,1.69-.26,2.34-.52.78-.52,1.56-.39,2.47.65-.26.91-1.04,1.69-1.04-.26.91-.13,1.56,1.04,1.56-.52-1.95.78-4.55,3.12-4.16l-.78,2.21c-.52-.26-.39-.78-.65-1.04-.78.78-1.43,1.56-.26,2.47.26.13,0,.39-.13.65-.91,2.21-2.21,4.29-3.51,6.37-.65.91-1.3,1.69-.65,2.99.13.26,0,.78-.26,1.04-1.17,1.17-.91,2.99-1.69,4.29-.91,1.56.13,2.73.26,4.16.13,1.82.39,1.69,2.08,1.04,2.21-.78,4.42-1.69,6.76-2.47,1.17-.52,1.95-1.69,2.99-2.47,1.3-.91,2.99-1.56,4.16-2.73.13,0,.26,0,.39-.13q1.17-.65,1.95,0l.13-.13c-.78-1.04-.26-1.43.39-2.34,1.17-1.56,2.73-2.47,3.9-3.9.65-.65,1.56-.91,2.34-1.43s1.04.13.91.91c1.17.26,2.08.13,2.6-1.17,0-.13.13-.26.39-.39,2.99-1.82,5.07-4.55,7.67-6.76.13-.26.39-.39,1.04-.39-4.42,5.46-10.14,9.1-14.69,14.04.52.13,1.17.13,1.17.91,0,.26,0,.52-.13.52-1.82.65-1.95,2.99-3.77,3.51-.26.13-.39.39-.26.65s.39.26.52.26c.65,0,.91-.52,1.43-.91.26-.26.65-.39,1.17-.52-.78,1.04-1.82,1.69-2.86,2.47-1.95,1.43-4.03,2.86-6.11,4.29-1.43,1.04-3.12,1.56-4.68,2.08-1.56.52-2.73,1.69-4.29,1.95-.78,1.95-2.34.65-3.51.91-1.3.26-2.47-.65-3.77-1.17ZM211.07,177.05c-1.04.78-.78,2.21-1.3,3.25.91-.91,1.17-2.08,1.3-3.25ZM210.94,187.71s-.13-.13-.13-.26l-.26.26c0,.13.13.26.26.26,0,0,.13-.13.13-.26ZM213.93,179.65c-.26-.26-2.21,0-2.86.78,1.04-.39,1.43,0,1.69.52.26.26.39,1.04.91.39.39-.39.91-1.04.26-1.69ZM212.24,174.97c.13-.13.13-.39,0-.65-.26,0-.39.13-.52.26-.13.39-.65.78-.26,1.3,0,.13.13.13.26.13.52-.13.26-.65.52-1.04ZM213.02,183.03c.26-.13.78-.39.26-.65-.39-.39-.91-.26-1.04.13-.26.78-.52,1.69-.39,2.86.65-.91.39-1.95,1.17-2.34ZM229.4,142.47c-1.04.39-1.43,1.04-1.82,1.69-.91,1.3-2.6,4.29-3.51,5.59-1.04,1.17-1.56,2.6-2.21,3.9-3.51,6.5-4.55,9.36-6.24,11.7-.65.91-1.17,1.82-1.17,2.99,0,.65-.26,1.04-.65,1.43-1.04,1.04-1.04,2.34-1.04,3.77,4.42-8.58,12.22-22.36,16.64-31.07ZM213.41,176.4c-.13-.13-.13-.26-.39-.26-.13,0-.26.13-.26.26.13.26.13.39.39.26.13,0,.26-.13.26-.26ZM214.71,177.18c.26-.13.39-.26.26-.65h-.13c-.26.13-.13.39-.13.65-.52.13-.91.26-1.17.65-.13.52,0,.91.52.78.78-.13,1.04-.78.65-1.43ZM214.71,173.15c0-.26,0-.39-.26-.39-.13,0-.26.13-.26.13,0,.26,0,.39.13.52.26,0,.39-.13.39-.26ZM215.36,181.21c-.91.26-.26,1.04-.52,1.43.26-.39.65-.78.52-1.43ZM216.27,174.45c0-.39.13-.91-.52-.91-.52.13-.91.39-.78.91,0,.52.13,1.17.78,1.04.52,0,.52-.52.52-1.04ZM216.27,170.55c0-.26-.13-.39-.39-.39s-.39.13-.39.39.13.39.39.39c.13,0,.26-.13.39-.39ZM216.79,172.63c0-.13-.13-.26-.26-.39-.13-.13-.26,0-.39.39,0,0,.13.13.26.13.26,0,.39,0,.39-.13ZM218.35,174.58c0-.13-.13-.39-.26-.26-.52.26-.52.78-.65,1.17,0,.13,0,.26-.13.52.91-.26.91-.91,1.04-1.43ZM219,173.15c-.26-.39-.52-.52-.78-.39-.13,0-.26.26-.13.39.26.13.52.26.91,0ZM219.78,174.58c0-.13-.13-.26-.39-.39-.13.13-.26.26-.26.39,0,.26.26.39.52.39.13,0,.13-.26.13-.39ZM220.17,167.17c0-.26.26-.39.52-.39s.39.26.39.39c-.13.39-.26.52-.52.52s-.39-.26-.39-.52ZM224.72,159.89c0-.39-.26-.52-.52-.52s-.39.13-.39.39.13.52.39.52.52-.13.52-.39ZM224.98,163.14c-.39.65-.39,1.17-1.04,1.43,0-.65,0-1.3,1.04-1.43ZM226.54,158.98c0-.52,1.3-4.55,1.04-4.94-.52.13-2.73,4.29-2.86,4.68,0,.39.26.91.78.78.39-.13,1.04,0,1.04-.52ZM226.93,159.89c0,.13-.13.26-.13.39.13.26.13.52.52.26.13-.13-.13-.39-.39-.65ZM231.61,153.52c-.39-1.17-1.3-1.43-1.56-2.08-.26-.39-.78-.91-1.43-.39-.91.65-.65,1.43-.26,2.34.52.78.78.39,1.17.26.65-.26,1.17-.78,2.08-.13ZM230.05,188.49c0-.26-.26-.26-.52-.26-.13,0-.39.13-.26.26,0,.26.13.39.39.39s.39-.13.39-.39ZM231.48,186.93c-.26,0-.52.13-.52.39,0,.78.52.39.91.52,0-.39.26-.78-.39-.91ZM232.91,136.88c.65-.78,1.17-1.69,1.43-2.73.13,0,.39,0,.39-.26,0-.13-.13-.13-.13-.13-.26,0-.26.26-.26.39-.65.78-1.56,1.43-2.08,2.34-.13.26-.39.52-.13.65.39.39.65,0,.78-.26ZM235.12,187.84c.13,0,.26,0,.26-.26l-.26.26c-.26-.13-.13-.78-.65-.39-.26.13-.26.39,0,.52.26.39.52.13.65-.13ZM236.94,182.9c.13-.91,1.43-.65,1.56-1.43.52.26.91.26.91-.26.13-.52-.26-.91-.65-1.17-.39-.26-1.04,0-1.04.39-.26.91-.91,1.3-1.56,1.82-.26.13-.39.26-.26.65,0,.26.26.52.65.52.26.13.26-.26.39-.52ZM241.23,185.37l-.91.78c0-.65.39-.91.91-.78ZM242.79,175.62c0-.52.13-.78.52-.78.26,0,.52.13.39.39-.26.26-.13.65-.52.65-.39.13-.26-.26-.39-.26Z"/>
    <path class="st0" d="M250.07,198.89c-.91-.13-1.3-.52-1.43-1.43-.13-.52.65-.26.65-.65-.39-.26-.52-.78-.65-1.3-.13-.39-.26-.52-.65-.65-.91-.26-1.17-1.17-1.04-1.95l.52-1.3c.65-1.04,1.04-2.34,1.3-3.38.26-.91.65-1.69,1.04-2.6.52-1.3,1.3-2.73,1.43-4.42.26-.78.78-1.43,1.3-2.08.78-1.82,1.82-3.51,2.6-5.33l3.38-7.02c.39-.52.78-1.17,1.3-1.82.26-.52.52-1.04.52-1.69-.13-.13,0-.39-.13-.52l3.64-7.93c1.43-1.3,1.95-3.25,3.51-4.55,1.04-.91.65-1.95,1.43-2.99,1.04-1.3.39-.39.91-2.08.78-1.3,1.56-2.34,2.21-3.51.65-1.17,1.3-2.08,1.56-3.25l.13-.39c1.17-.78,1.82-2.08,2.21-3.64.52-1.82,2.47-2.21,4.29-1.69.65.13,1.3-.13,1.95.39,1.04.78,2.6.52,3.64,1.3.91.65,2.08,2.21,1.95,3.12-.13,1.56-.78,2.73-1.82,3.77l-3.51,3.9c-1.17,1.17-.26.13-1.43,1.17-.65.78-.91,1.95-1.69,2.6-.39.39-.65.91-1.04,1.3-.52.39-.91,1.17-1.04,1.82-.52.91-.91,1.82-1.56,2.6-.52.39-.52,1.17-1.17,1.56-.91.78-1.04,1.95-1.82,2.73-.26.26-.39.65-1.17.26.52.65.65,1.04,0,1.17-.52,0-.39.65-.65.91-.26.39-.26.78-.91.52-.39-.26-1.04,0-1.56-.13v.26c-.39-.13-.52.26-.78.52-.26-.26-.52-.52-.65-.78-.13-.13-.26-.39-.52-.13-.26.26-.26.52-.13.65.13.13.26.26.52.39.52.13.52.39.39.78,0,.13-.13.39,0,.52.26,0,.39-.13.52-.26,0-.13-.13-.52.26-.39.39-.39.52-.78.39-1.3.39.13.65.26.39.78,0,.26.26.65.26.91h.13c0,.13-.13,0-.13.13-.91,0-1.04.26-.26,1.17-.78-.26-.91.26-1.3.91.13-.65-1.43-.39-.13-1.56-.78.13-1.17.65-1.56.91-.13-.26,0-.52,0-.78-.65-.39-1.17.26-1.56.65-.26-.39-.26-1.3-.78-.78-.65.78-1.17,1.69-1.56,2.6.52-.13.78-.26,1.04-.91s.65-.91,1.3-.39c.26.13.39.13.39.13.13.13.13.39.39.26v-.13c-.13-.13-.26-.13-.39-.13.26-.52.78-.26,1.17-.52,0,.78.65.65,1.17.91-.78.26-.26.91-.52,1.43-.26.39-.52,1.04-.65,1.43-.26.26-.52.65-.26.78.39.26.52-.13.65-.26q.13,0,.39-.13c-.13,1.04-.39,1.82-.78,2.6-.78,1.17-1.69,2.08-2.08,3.25-.26.26-.26.52-.65.65-1.04-.13-1.3.26-1.3,1.3,0,.39.13,1.3-.52,1.69-.13,0-.39,0-.39.13.13.78-.13,1.43-.91,1.82.39,1.17-.26,2.08-.65,3.12-.52.78-1.17,1.69-1.43,2.73-.26.65-.52,1.17-.65,1.82-.26.52-.52.78-1.17.52-.13,0-.26-.13-.52.13,0,.26.26.39.39.52.52,1.17.26,2.47-.13,3.64,0,.13-.13.26-.13.39,1.56-.78,3.51-1.3,4.94-2.21,2.08-1.04,3.64-2.34,5.59-3.25,1.17-.78,2.73-2.08,3.9-2.6,1.82-1.3,4.03-3.38,5.85-4.68,1.95-1.3,2.99-2.6,4.94-4.03,1.04-1.3,2.21-2.34,3.25-3.38.26-.13.52-.39.65-.26-.13.52-.65.78-.91,1.3l-.39.13c-.26.39-.78.65-.39,1.17.26.39.78.26,1.17-.13.13-.13.26-.13.39.13.13.13.13.26,0,.39-1.3.78-1.82,1.82-2.73,2.86-1.17,1.3-2.34,2.6-3.77,3.77-1.04.65-1.82,1.69-2.73,2.47-1.04.91-3.12,2.73-4.29,3.51-.65.52-1.17,1.43-2.08,1.82-1.56.52-2.86,1.82-4.16,2.73-2.08,1.3-4.29,2.73-6.37,3.77-1.56.65-3.12,1.56-4.55,1.95-.91.39-2.08.65-2.86,0-.39-.13-.65-.26-.91-.26ZM250.45,190.57c.13,0,.26-.13.26-.26.13-.26.26-.78,0-.91-.39-.26-.26.26-.39.39l-.39.39c-.13.26-.39.65-.13.91.26.26.52-.26.65-.52ZM251.36,192.13c0-.13.26-.39.13-.65-.13-.13-.26-.13-.39-.13-.13.52-.39.91-.52,1.43-.13.13,0,.26.13.26.52-.13.52-.52.65-.91ZM251.11,188.49c.39-.65.65-1.43,1.04-2.21.13-.26.13-.78.78-.26.39.52.78.52,1.04-.26,0-.39,0-.78.13-1.17l-.39.39c-.39.91-.52.91-1.3.13l.26-.26c.26,0,.52-.13.26-.39-.13-.13-.39-.13-.52,0-.91,1.17-1.56,2.34-1.69,3.9,0,.13-.13.39.13.39s.26-.13.26-.26ZM252.02,189.4c-.39.26-.78.52-.65,1.17,0,.13.26.26.39.26.52-.39.26-.78.26-1.43ZM252.66,192c.52-.26.52-.78.65-1.43-.39.39-.78.65-.91,1.04-.13.13-.26.26-.13.52.13.13.39,0,.39-.13ZM253.19,187.45v-.39c-.13-.13-.26-.13-.39,0-.39.39-.91.78-.26,1.56l.65-1.17ZM253.19,193.82c-.26,0-.39-.13-.78.26.52.13.78.26.78-.26ZM253.06,193.17c.39-.13.65-.26.39-.65l-.39.65.26.52c0-.26,0-.39-.26-.52ZM253.7,183.16c.39-1.04.78-1.95,1.3-2.86q.13-.13.13-.26c-.13-.13-.26-.13-.39-.13-.26.26-.39.39-.52.65-.13.78-.52,1.43-.78,1.95-.13.26-.39.65-.13.91.26.13.39,0,.39-.26ZM254.74,183.55c-.13-.13-.52.39-.78.78l.13.13c.39-.13.91-.26.65-.91ZM255.53,188.49c-.26-.78.39-1.69.52-1.95.78-.65.13-.91-.26-1.3-.13-.13-.39-.26-.13-.52.26-.13.26.13.39.26.39.39.65.13.91,0,.39-.13.52-.65.26-.78-.13-.26-.52-.39-.26-.78.13-.26.52-.13.91-.13.39.13.91.26.52-.52h.13c-.39,0-1.3-.26-1.04-.52.13-.65-.13-1.17-.13-1.69-.26,0-.52.13-.65-.13-.13-.26-.13-.65.26-.78.13,0,.13-.39-.13-.65-.13-.13-.39,0-.52.26-.26.13-.26.39-.52.52-.26.52-.26,1.04.39,1.3.13.13.39.26.26.52-.26.52-.13,1.43-.65,1.95-.91.78-.65,1.95-1.43,2.6-.13.13-.13.65.13,1.04.39,0,.26-.78.91-.78-.26,1.17-.52,2.08-.91,2.99.65-.26,1.17-.78,1.04-.91ZM256.04,176.01c.13-.13.13-.39,0-.52-.13-.13-.39,0-.65.13-.39.39-.26.91,0,1.3l.65-.91ZM256.18,177.83c0-.13-.13-.26-.26-.13-.39.26-.39.65-.13,1.04.26-.39.52-.52.39-.91ZM256.69,176.14c-.39.39-.91.39-.78.91,0,.13.13.39.39.26.39-.13.39-.52.39-1.17ZM257.48,178.35c-.13-.13-.39-.26-.52-.13,0,.13.13.26.13.26.13.13.39.26.39-.13ZM257.08,175.62c.26,0,.65-.13.91,0,.65.78,1.17,0,1.82-.13-.65-.26-.39-.78.13-1.04-.13-.39,0-.65.26-.91.26-.13.52-.39.52-.65.13-1.17.52-1.43,1.56-1.3-.52.26-.52.78-.52,1.3-.13.52-.26.78-.65.91,0,.13.13.26.13.39v.26c0,.13-.26.26-.13.39.13.26.26.26.39.13.13-.13.13-.26,0-.39,0-.13-.26-.26-.26-.39.65,0,1.04-.52.91-1.04.13-.65.65-1.04,1.04-1.56.65-.39.65-.78.39-1.43-.78,0-.78.91-1.56.78,0-.39.65-.13.39-.65,0-.13-.13-.39-.26-.52-.39,0-.65.26-.78.52l-.13.13c-.39.91-.78,1.95-1.69,2.73-.39.52-.52.91-.65,1.43-.13.65-.39,1.17-1.17.78-.39-.26-.52,0-.65.26,0,.13-.13.13,0,.26v-.26ZM258.12,171.72c-.65.13-.91.65-1.04,1.3.78-.13.91-.78,1.04-1.3ZM258.39,179.91c.13-.65.65-.52,1.17-.65.78.13.91-.78.91-1.17.26-.52-.39-.26-.52-.52v-.13c.78-.13,1.04-.65,1.3-1.04.13-.13,0-.39-.13-.65,0-.26-.39-.39-.52-.26-.52.39-1.17.78-1.43,1.69-.13.39-.39,1.3.78,1.43-1.3,0-1.82.91-2.6,1.56.39.13,1.04.13,1.04-.26ZM258.12,176.4l-.26-.13c-.39.26-.26.65-.26,1.17.39-.39.65-.65.52-1.04ZM258.9,172.5c.39-.26.39-.52.52-.91-.52.13-.52.52-.52.91-.13.39-.65.39-.52.91.52,0,.65-.39.52-.91ZM259.69,163.01c.13-.13.26-.26.52-.26l-.65,1.17c.13-.26,0-.65.13-.91ZM260.2,168.21c.52-.78.65-1.56,1.43-2.34.13-.13,0-.39-.13-.52-.26-.13-.39,0-.52.13-.26.91-.52,1.69-1.17,2.47,0,.13,0,.39.26.39,0,0,.13,0,.13-.13ZM260.86,168.6c.26,0,.65,0,.78-.13-.13-.26.26-.52,0-1.04l-.78,1.17c-.39.39-.52.91-.52,1.43.52-.26,1.04-.52.52-1.43ZM260.98,162.49c.13-.78.78-1.3,1.43-1.95v-.39c.13-.13,0-.26-.13-.26q-.13-.13-.13,0c-.65.78-1.17,1.56-1.69,2.47-.13.13.13.26.26.39.13.13.26-.13.26-.26ZM263.32,168.34c0-.26-.13-.52-.39-.39s-.65.39-.65.78c0,.26.13.52.39.52.39-.39.52-.52.65-.91ZM263.32,158.07c-.13-.13-.52-.13-.52-.13-.65.39.13.65,0,1.04.26-.26.52-.52.52-.91ZM263.19,162.1c.13,0,.52,0,.39-.39-.39-.13-.39.26-.39.39-.26.13-.52.52-.52,1.04.52-.39.52-.78.52-1.04ZM264.11,156.9c-.52-.13-.52.26-.65.65.52.13.52-.13.65-.65ZM264.36,160.41c0-.13-.13-.13-.26-.13,0,0-.13.13-.26.13.13.13.13.26.26.26s.13-.13.26-.26ZM264.63,162.88c0-.52.13-1.04.52-1.3.52-.52.78-1.04,1.17-1.56-.26-.26-.39,0-.52,0-.65.13-.52.91-.78,1.17-.65.39-.78,1.04-1.04,1.56-.13.13-.13.39.13.39s.39,0,.52-.26ZM264.76,171.33c0-.26,0-.52-.39-.52s-.13.26-.13.52c-.13.26-.26.52.13.52.13,0,.39-.26.39-.52ZM265.93,162.75v-.39h-.13q0,.13-.13.26c0,.13-.13.26-.13.26-.13.26-.39.52,0,.65.39,0,.26-.52.39-.78ZM268.27,160.41c0-.13.13-.13.26,0,.52.13.39-.39.52-.52.13-.26,0-.39-.13-.39-.26.39-.91-.26-1.17.13-.13.13-.52.39-.13.78.13.26.39.78.65,0ZM269.57,158.07c-.26-.13-.39.13-.39.26-.13.13,0,.26.13.26.26,0,.26-.13.26-.52ZM270.35,158.72h-.39c-.13,0-.26,0-.26.13.13.26.26.26.39.13.13,0,.26-.13.26-.26ZM272.69,157.81c0-.13,0-.65-.39-.65-.39-.13-.39.26-.39.52s.13.52.52.65c.26.13.26-.26.26-.52ZM282.31,177.83c0-.52.65-.65.65-1.3-.65,0-1.17.52-1.17,1.04,0,.13.26.26.26.26h.26ZM285.69,172.11c0,.52-.13.78-.65,1.04.26-.65.39-.91.65-1.04ZM285.82,173.93c.13-.26.26-.39.52-.52.26,0,.26.26.26.39,0,.26-.13.52-.39.52-.13-.13-.26-.13-.39-.39ZM287.12,172.63c0,.26.13.65-.39.65-.13-.39.39-.39.39-.65ZM288.42,171.59q0,.65-.52,1.04c.13-.39.13-.78.52-1.04ZM292.45,114.78c.13-.13,0-.91,0-1.17.78-2.86,2.21-5.46,3.25-8.06,1.17-2.99,2.73-5.85,4.03-8.71l1.17-2.86c.39-.91,1.43-1.04,2.34-1.04,1.17.39,2.08.91,3.25.52h.13c.39,1.17,1.56.52,2.08.52s.91.39,1.3.78c.26.52.65.91,1.17,1.43.13.26.39.52.26.65-.52,1.69-.65,3.25-2.08,4.42-1.17.65-2.21,1.82-2.99,3.38-.52.91-1.43,1.17-1.69,2.08-.91,1.43-2.6,2.21-3.38,3.77-.39.78-1.69.91-2.34,1.56-.39.26-.52.26-.78.65,0,.26-.13.39-.39.39-1.82.39-2.47,1.95-3.38,3.38-.13,0-.13.13-.26.26,0,0-.26,0-.39.13-.13-.78.39-1.17.39-1.95-1.04.65-1.95,1.17-2.47,2.6-.13.26-.26.52-.65.52.78-1.04.52-2.34,1.43-3.25ZM293.1,166c.13.26.26.39-.13.65-.13-.39,0-.52.13-.65ZM293.75,165.35c-.13.26-.26.52-.65.65.26-.39.26-.52.65-.65ZM298.56,158.85c-.13.39-.26.65-.78.78.13-.52.26-.78.78-.78ZM300.25,154.82c.26-.13.39-.65.65-.26.39.39-.13.39-.26.52-.52.78-.65,1.82-1.43,2.6-.13.26-.26.52-.78.52.91-1.04,1.04-2.34,1.82-3.38ZM301.29,153.52c.13-.52.26-.91.91-1.04-.13.52-.65.65-.39,1.17,0,.13-.13.26-.39.26-.13-.13-.13-.26-.13-.39Z"/>
    <path class="st0" d="M336.52,155.34c-.52.78-.78,1.82-1.3,2.47-.65,1.43-1.3,2.86-2.34,4.03-.65.78-.78,1.95-1.3,2.86-.39.52-.65.65-1.04.65,0,.91-.39,1.56-.91,2.21-.26.26-.39.52-.39.91-.13,1.17-1.04,1.56-1.82,1.95q.65.91,1.56-.26c1.17-1.82,2.6-3.77,4.16-5.46.13.52,0,.78-.52,1.17-.52.52-.65,1.3-1.17,1.95-1.43,1.95-3.12,3.64-4.03,5.72-.52.78-1.04,1.17-1.56,1.82,0,.26.39,0,.39.39-1.04,0-1.17,1.04-1.3,1.43-1.17,2.99-.26.13-1.17,2.99-.52,1.56-1.43,2.99-1.82,4.55-.26,1.04-.78,1.69-1.3,2.73-.13.39-.39.91-1.17.52-.78-.13-1.43,0-2.21-.13-1.95-.13-2.86-.65-3.51-2.6-.13-.65-.13-1.69-1.3-.78-.13.13-.26-.39-.26-.52-.39-.91,0-1.69.39-2.34.78-1.17,1.3-2.34,1.95-3.38.52-1.17.91-2.34,1.56-3.38.65-1.04,1.3-2.21,1.95-3.51,1.04-1.82,1.95-3.9,3.12-5.85,1.04-2.21,2.21-4.42,3.38-6.63.78-2.47,1.69-4.68,3.38-6.76.91-1.17,1.3-2.6,1.82-4.03.91-2.08,1.95-4.03,2.73-6.11.65-2.08,1.3-4.29,1.82-6.37.13-.39,0-.91-.65-.39-.52.13-.78.39-1.3.52-.39.13-.78,1.04-1.56.26-.26-.26-.78.39-1.17.91-1.04.91-1.82,2.21-3.12,3.25-.13.13-.26.26-.39.52,0,0,0,.26.13.39,0,.26.13,0,.26,0,.26-.39.39-.65,1.04-.65-1.17,1.17-2.08,2.47-3.25,3.51.39-1.04,1.17-1.56,1.69-2.47-1.17.13-1.56.65-2.08,1.56-.26.39-.39.91-.65,1.43-.26.39-.65.13-1.04-.26,0,.26-.13.26-.13.39-.13,1.04-.52,1.82-1.69,2.21-.39.13-.39.91-.78,1.56-.26.13-.26.65-.65.13-.13-.13-.26.13-.26.26.13.78-.13,1.04-.65,1.17-.65.13-.65.78-.65,1.3-.26.39.26,0,.39.39-1.04.13-1.95.52-2.08,1.69-.78.52-1.95,1.95-2.21,2.73.39-.39.78-.65,1.04-1.17-.26.78-.65,1.3-1.43,1.56-.52,0,.13.52-.13.78-.78.65-1.04,2.08-2.34,2.6-.26,0-.26.13-.26.39.13.39-.26.52-.65.91-.26-.13,0-.39,0-.65-.65.65-1.56,1.3-1.43,2.47,0,.26-.26.39-.39.65-1.56,2.47-3.25,4.68-4.81,7.15-1.95,3.12-4.03,5.98-5.59,8.84-.78,1.17-1.04,2.6-1.56,3.9-.78,2.08-2.08,4.03-3.12,5.85-.26.39-.39.65-.39.91-.26.91-.39,1.56-1.43,2.21-.52.13-.91.65-1.04,1.43,0,.26-.39.52-.65.52-1.3-.26-2.6.26-3.9-.26-.78-.52-1.95-.91-2.08-2.08-.13-.26-.13-.52-.26-.52-.65-.39-.65-.78-.13-1.04.39-.39.39-.78.13-1.3,0-.39-.13-.52-.65-.13-.26.13-.39.13-.52,0-.26-.39-.39-.65-.13-.78.26-.52.52-1.04,1.3-1.17,1.17,0,1.82-.39,2.73-1.17.13-.26.26-.39.52-.39.13-.13.39-.26.39-.52,0-1.69,1.56-2.86,1.95-4.42,1.69-.65,1.3-2.73,2.34-3.64h.39c0,.13-.26.26,0,.26.13-.13,0-.13,0-.26,0-.26-.26-.78-.52-.91,0-.39.13-.78,0-1.43-.13-.13,0-.26.13-.26.91.26,1.04-.26,1.43-.39s.52-.65.39-.91c-.52-.65.13-1.3.65-1.69.39-.39.78-1.17.78-1.69-.26-.65.39-.52.52-1.04.52-.91,1.04-1.95,1.82-2.73.13-.26.26-.65.52-1.04.13-.78.39-1.56.65-2.47.39-.91,1.43-1.95,1.3-3.25,0-.26.52-.39.65-.65.52-1.04.78-2.21.91-3.12.13-.78.78-1.17.91-1.82.13-.39.13-.65,0-.78-.13-.13-.39-.26-.65-.13-.26.13-.13.39-.26.52,0,.91-.65,1.3-1.04,2.08-.52,1.04-4.29,7.15-4.81,8.58-.39,1.04-.78,2.21-1.3,3.12-.52.52-.52,1.17-1.17,1.43-.39.26-.65.91-.91,1.56-.39-.26-.26-.65,0-.78.78-1.56,1.17-3.25,2.34-4.68.52-.91.65-1.82,1.04-2.6.91-1.56,4.29-7.67,4.29-9.36l.26-.39c1.43-1.17,1.82-3.12,2.6-4.68.26-.78,1.04-1.56,1.17-2.21.13-1.04.39-1.95.65-2.86.13-.65.52-1.04.78-1.69.26-.39.13-.65-.13-.91-.52-.65-.65-.26-1.04,0-2.86.91-4.42.78-2.99-.65,1.17-.65,2.47-1.3,3.12-2.34.13-.52.78-.39,1.04-.39.91-.13,2.08-.39,3.25,0,.39.52,1.04.78,1.69.65.52-.13.65.39,1.04.65.26.13.39.65.65.65,1.3-.26,1.69.78,2.34,1.56.91.78.39,1.95.13,2.73-.39.78-.39,1.43-.52,2.21s-.26,1.56-.78,2.21c-.39.78-.65,1.56-.91,2.47-.65,1.17-1.04,2.6-1.95,3.64-1.17,2.08-1.69,4.16-2.86,5.85-.65,1.3-1.17,2.6-1.56,3.9-.52.26-.78.52-1.17,1.17.65-.26,1.04-.65,1.17-1.17.13,0,.39-.26.39,0,1.04.65,1.17-.26,1.43-.78.91-.78,1.95-1.82,2.47-2.86.65-.78,1.56-1.69,2.08-2.86.52-.78,1.17-1.69,2.08-2.34.91-1.04,1.56-1.95,2.34-2.86.78-1.17,2.21-2.08,2.73-3.51,1.17-.13.78-1.3,1.69-1.82.26-.39.52-.65,1.3-.91-.13-.13-.13-.39,0-.52.78-1.17,1.82-2.47,2.99-3.38.39-.52.65-1.3,1.43-1.82,1.17-.52,1.69-1.82,2.6-2.86.91-.78,2.08-1.95,3.12-2.6.52-.65.39-1.17,1.17-1.43.65-.65,1.43-.65,2.08-.65h.13c1.69-.26,2.6,1.04,3.77,1.82.26.39.39.52.78.52.65,0,1.04.26,1.17.78.26.52.39.65.78.78.65.26.78.78.78,1.56.26,1.17.26,1.95.26,3.12-.26,1.56-1.04,2.99-1.56,4.55-.52,1.95-1.3,3.64-2.08,5.33-.78,1.82-1.69,3.64-2.47,5.2ZM283.34,185.89v-.39q.13,0,.26-.13v.26c0,.26-.13.26-.26.26ZM284.25,184.33c0-.39,0-.52.26-.52,0,0,.13,0,.13.13s-.13.39-.39.39ZM286.33,179.52c-.13-.39.13-.52.13-.78.13-.26.26-.52.65-.39s.26.39,0,.65c-.39,0-.39.78-.78.52ZM294.78,172.76c-.78.52-1.3,1.43-1.69,2.73,1.17-.91,1.56-1.56,1.69-2.73ZM296.86,168.34c-1.43.91-1.56,1.69-1.04,2.86.65-.65,1.3-2.21,1.04-2.86ZM298.94,165.35q-.13-.13-.26-.13c-.39.26-.65.78-1.04,1.17.65-.13,1.04-.52,1.3-1.04ZM302.06,151.7q0-.13-.13-.13c-.13,0-.13.13-.13.39-.13,0,0,.13,0,.13.13,0,.26-.13.26-.39ZM303.49,164.83c-.13.52-.65.52-.65,1.17.52-.13.52-.65.65-1.17ZM309.99,157.03c-.39.52-.39.78-.78.78.13-.26.39-.39.78-.78ZM315.85,153.78s0-.26-.13-.52c.13,0,.26-.13.52-.13-.13.13-.13.65-.39.65ZM320.27,173.28c-1.04.65-1.17,1.04-1.17,1.95.52-.78.91-1.3,1.17-1.95ZM321.69,168.73c-1.04.91-1.56,1.82-1.56,3.25,0,.13-.13.52.26.65.26,0,.39-.26.39-.65,0-.52,0-1.3.39-1.43.78-.52.39-1.3.52-1.82ZM322.61,168.47c.39-.39.52-.78.78-1.3-.78.26-1.04.65-1.3,1.17,0,0,.13.13.13.26.13,0,.39,0,.39-.13ZM323.26,166.26c0,.13.13.13.26.13.26-.26.13-.52.13-.91-.26.39-.52.52-.39.78ZM325.86,163.01c-.39-.39-.78-.91-1.04-.91-.26-.13-.91.52-.52.91,0,.26.26.78.78.91.78,0,.39-.52.78-.91ZM326.64,161.32c-.13-.26,0-.78-.39-.39-.26.39-.39.65-.39,1.04l.78-.65ZM328.85,154.69c-.65.52-1.04.65-1.04.91-.26,1.3-1.3,1.95-1.56,3.12-.13.78.13.52.52.52-.13.52-.13.65-.13.78-.13.13-.13.26,0,.39.13,0,.26-.13.52-.13.26-.78.78-1.3.91-1.82.13-.78.26-1.04-.52-.78.13-.91,1.04-1.69,1.3-2.99ZM330.8,137.01c-1.17,1.04-2.21,2.21-3.38,3.38,0-.26.13-.39.26-.65.91-1.04,1.82-2.08,2.86-2.86.13,0,.13.13.26.13ZM332.23,135.19c-.52,0-.65.13-.65.39.39.13.52,0,.65-.39ZM333.14,164.7c.39-.39.65-1.17,1.3-1.56.26,1.3.13,1.43-1.3,1.56ZM374.48,171.59c-1.3,1.43-2.21,2.99-3.38,4.55-.39.78-1.04,1.3-1.69,1.69-.78,1.04-1.43,2.21-1.69,3.25-1.17.26-.91,1.3-1.3,1.95l-1.69,1.82c-.78.52-1.17,1.17-1.56,1.95-1.43,1.69-2.99,3.38-4.81,4.81-.78.78-1.04,1.56-1.82,2.34-1.04.52-1.82,1.3-2.6,1.95-1.04,1.17-2.21,1.95-3.51,2.6-1.56.52-2.99.78-4.94.78-.65-.13-1.56,0-2.08.26-.78.39-1.3.39-1.95,0-.26-.26-.78-.39-1.04.39-.26.39-1.04-.13-1.3-.65-.52-.26-1.04-.78-1.82-1.43l-.13-.13c.13-.78-.26-1.56-.91-2.08-.39-.39-.52-1.43-.78-2.34,0-.52.52-.78,1.04-1.17.26-.13.39-.52.26-.78,0-.78.13-1.56.52-2.34,1.04-2.86,2.47-5.72,3.9-8.45.39-.65.78-1.56,1.82-1.82.39-.13,0-.39.13-.91.78-1.69,1.82-3.51,2.86-5.2.65-1.69,1.82-3.51,2.21-5.46.13-.26.39-.52.78-.78.78-1.17,1.43-2.86,1.95-4.29,1.04-1.82,1.69-3.64,2.73-5.72.65-1.17,1.43-2.47,2.08-4.03.52-2.08,1.82-3.64,2.6-5.46.52-1.04.78-2.47.78-3.77-.13-.78-.91-1.17-1.69-.52-1.43,1.17-2.99,1.95-4.42,2.99-.52.52-1.04.78-1.82,1.3-.26.13-.39.13-.39.52,0,.26-.13.39-.26.39-1.56.39-1.95,2.08-3.12,2.86-.78.39-1.17.65-1.95.78.78-.91,1.82-1.69,2.6-2.47,1.43-1.3,2.86-2.6,4.29-3.77,1.17-1.04,2.08-2.08,2.73-3.38.13-.13.26-.13.39-.13.26,0,.39,0,.26-.13.52-1.3,1.69-2.08,2.86-2.34,1.04,0,2.47-.13,3.38.65,1.04.39,1.82.39,2.86.52.39,0,1.04.13,1.17.65.26.65.78.78,1.56,1.04,1.04.78,1.69,2.86.65,4.03-.52.78-.52,1.95-.78,2.99-.13.52-.13,1.04-.65,1.56-.91,1.3-.91,2.86-1.69,4.16-.39,1.43-1.43,2.73-1.95,4.03-.52,1.17-1.17,2.21-1.17,3.64,0,.52-.13,1.04-.39,1.43-2.08,2.08-2.86,4.68-4.03,7.15-.65,1.3-1.04,2.73-1.82,3.77-.65.91-1.43,1.43-1.43,2.47,0,.52-.39,1.3-.52,1.82-.26,1.3-1.43,2.21-1.82,3.25-.52,1.56-1.3,2.99-1.95,4.55-.26.52-.65.91-.78,1.43-.65,1.3-1.43,2.73-1.95,4.16-.52.39-.91,1.04-1.17,1.69-.26.39-.78,1.17-.26,1.56.26.26.78,0,1.43-.13,1.56-.39,2.73-1.56,3.9-2.6,1.69-1.3,3.25-2.6,4.81-3.9,2.08-1.69,4.16-3.77,5.98-5.72.26-.39.91-.91,1.43-.39.13,0,.26,0,.26-.13,0-.26,0-.39-.13-.39-.52,0-.39-.39-.13-.65.39-.39,1.04-1.17,1.56-1.56.26-.26.78-1.04,1.17-.26.13,0,.26,0,.26-.13.26-1.04,1.43-1.3,1.82-2.34.13-.13,0-.26-.13-.39,1.43-.26,2.34-1.56,2.99-2.73.91-.65,1.56-1.56,2.34-2.34.26-.39.65-.52,1.04-.52ZM342.24,154.43c.39-.26.78-.39,1.04,0,.13.13-.13.26-.39.39-1.43,1.56-3.12,2.99-4.29,4.68-.91.91-1.43,1.95-2.6,2.6-.26.26-.52.26-.52-.13.65-.13.52-.65.78-1.3,1.17-1.43,2.47-2.47,3.77-3.77.65-.91,1.56-1.56,2.21-2.47ZM343.41,153.91c-.13-.13,0-.65.26-.78.65-.26.91-.65,1.56-1.04-.26.78-.52,1.17-.91,1.82-.39.13-.65.26-.91,0ZM343.41,179.13s0,.13.13.13.26-.13.26-.26c0,0,0-.13-.13-.13l-.26.26ZM353.81,175.88c-.26.13-.26.26-.26.91.26-.52.39-.65.26-.91ZM364.99,181.08c-.26,0-.52.26-.65.65,0,.13.13.13.26.13.26,0,.39-.26.39-.78ZM374.74,170.68c.39.52-.26.65-.26.91-.13-.26,0-.52.26-.91ZM375.91,168.47c0,.13-.13.13-.39.13,0,0-.13-.13-.13-.26s.13-.13.39-.13c.13,0,.13.13.13.26ZM378.12,164.96c-.91.52-.78,1.82-1.82,2.21-.13.26-.26.52-.52.39-.26-.13.13-.39.13-.65.65-1.3,1.69-2.21,2.47-3.64.26.78-.13,1.56-.26,1.69Z"/>
    <path class="st0" d="M375.51,191.61c-2.47-2.34-4.03-5.2-4.94-8.32-.26-.65-.13-1.56-.52-2.08-1.17-1.95-.52-3.9-.26-5.72.26-1.69.65-3.25,1.3-5.07v-.13c1.04-1.04,1.04-4.55,1.69-5.59.13-.26.13-.52.26-.65,2.6-4.68,3.25-6.89,4.55-8.58.78-.91,1.69-1.82,1.95-2.99.13-.39.39-.78.91-1.04.13,0,.13-.13.13-.26.91-2.47,2.99-4.29,4.68-6.37,1.3-1.69,2.99-3.25,4.42-4.94.78-1.04,1.82-1.82,2.6-2.99.78-.78,1.82-1.3,2.73-2.21,1.17-1.04,2.47-1.95,3.9-2.73,0,0,.26-.13.39,0,1.95-.39,4.03-.91,6.11-.26,1.17.39,2.6.26,3.51.91.39.26.65.13.91-.26,0-.13.13-.13.13-.26.13.78.78,1.3,1.43,1.56.39.13.52.26.91.26-.13.26-.13.39.13.65,1.04,1.17,3.12,2.86,2.73,4.29-.39,1.43-1.43,2.86-2.34,4.16-.26.39-.52.52-.91.65-.78.26-.91.65-.65,1.17q.13.13.26.13c-.91.26-1.43.91-1.69,1.56,0-.13-.13-.26-.26-.39,0-.39-.26-.26-.39,0l-.91.39c-.65.91-1.56,1.17-2.21,1.95-.65.65-1.56,1.69-2.73,1.69-.39,0-.65,0-.65.39-.39.78-.91.65-1.56,1.17,1.56.52,2.99.52,4.55.65,1.56.13,3.12.78,4.68.39-1.17.78-2.6.65-3.9.78-1.04.13-2.21,0-3.12.78-.52.26-1.17.13-1.69.13-1.56-.13-5.59,0-7.28,0-.39,0-1.04-.26-1.56-.13-.52.13-1.04,0-1.56.26-.26.26-.91.26-1.3,0-.52-.26-1.04-.39-1.56-.13-.65.13-1.3.52-2.21.52-.52,0-.39.39-.13.52.52.39.13.65,0,1.04-.78.91-1.43,1.82-1.82,2.86-.13,0-.13.13-1.56,3.38-.78.78-1.3,1.69-1.69,2.73q-.52.91-1.82.78c.26.26.65.13.91.65,0,.26-.13.39-.39.65-.13.39-.39.39-.65.39-.52-.13-.91,1.95-1.43,2.34v.13c.39.39,1.17,0,1.04.39-.13.65-.52,1.17-.78,1.69-.39.78-.65,1.43-.65,2.08-.26.39-.52.78-.78.91-.13.26-.91.52-.13.91,0,0,.13.26,0,.39-.52.39-.52,1.3-.65,1.82-.13.65-.13,1.43-.52,2.08,0,.13.13.13.26.26.26.13.26.52.26.65-.52.52-.13,1.04-.13,1.56,0,.13,0,.52-.13.52-.26.39,0,.52.26.78.39.52.26,1.17.52,1.69.26.39.39.91.65,1.17.26.39.65.78.65,1.56.13.26,1.04.78,1.43,1.17,1.82.78,3.77,1.17,5.59,1.04,1.43,0,2.86-.78,4.29-1.04,1.3-.26,2.6-.91,3.77-1.43,1.3-.65,2.47-.65,3.64-1.17.52-.13,1.17-.52,1.69-.78.39-.26.91.13,1.17-.26.39.65-.52,1.17-.39,1.95,0,.13-.52-.13-.91.13.39.39,1.04.78,0,.91-.13.52.26.52.52.39.78-.39,1.69-.39,2.08-1.04h.13c1.3-.26,1.95-1.69,3.25-1.82.65-.26.91-.78.13-1.3-.26-.26-.26-.52,0-1.04.65-1.56,1.04-1.82,2.6-1.43.52.13,1.56-.13,2.08-.78.26-.52,1.17-.91.65-1.69,1.04.39,1.56,0,2.34-.65,1.43-1.17,2.99-4.03,4.03-5.46,1.17-1.17,2.34-2.34,3.64-3.38.91-.78,2.21-1.56,3.12-2.21.39-.26.52.13.91.26-.78.52-1.17,1.43-2.21,1.56-.26-.13-.26,0-.26,0-.39,1.17-1.3,1.69-2.08,2.47l-1.43,1.43-2.34,2.21c-1.17,3.12-2.21,4.42-3.64,5.33-.78.65-1.17,1.17-1.82,1.82l-1.17.65c-1.17.78-2.34,1.69-3.25,2.86l-.52.52c-1.04.52-2.08,1.56-3.25,2.21-1.04.52-1.95,1.17-2.86,1.69-.65.39-1.04.65-1.82.52-.65-.26-1.17.26-1.82.65-1.43.91-2.99,1.56-4.55,1.56-.52,0-1.04.26-1.43.39-1.56.39-2.99,1.04-4.55,0-.13,0-.26-.13-.39,0-.65,1.04-1.69.26-2.34,0-2.34-.65-4.29-1.82-5.98-3.51ZM401.25,146.89l2.21-2.08c.52-.65,1.3-1.17,1.95-1.69,1.17-1.43,2.86-2.73,3.64-4.42.26-.52-1.04-2.34-2.6-1.3-.26-.39-.52-.26-.91,0-.39.52-.78.91-1.43,1.3-1.69.91-3.38,1.69-4.55,3.38-.65.91-1.56,1.56-2.34,2.34-.78.65-1.82,1.17-2.47,1.95-.39.52-.65,1.17-1.56.91-.26,0-.26.26-.26.39.26.65-.13,1.04-.65,1.43-.13.26-.26.26-.39.65,0,.26.13.26.13.52.52,0,.91.39,1.3.13,1.95-1.17,6.11-2.21,7.93-3.51ZM396.96,186.15c0,.39-.39.39-.65.26.13-.13.26-.26.65-.26ZM397.48,185.89c-.13-.13.13-.39.26-.52.26-.26.65-.52,1.04-.52,0,.52-.65.65-.78,1.17l-.52-.13ZM400.47,185.11c-.39-.52-1.17-.13-1.69-.26.52-.52,1.04-1.04,2.08-1.17-.65.39-1.04.91-.26,1.17.26,0,.39.26.13.39-.13.26-.13,0-.26-.13ZM401.12,182.77c.52-.13,1.04-.65,1.43-1.04,1.17-.91,2.34-1.56,3.64-2.21.91-.39,1.69-.91,2.21-1.82.13-.52.65-1.17,1.3-1.04,0,.26-.52.52.13.65-.65.78-1.56,1.43-2.47,2.08-1.17.91-2.47,1.69-3.77,2.47-.91.52-1.69,1.3-2.73,1.56-.13-.39,0-.52.26-.65ZM409.7,176.66c.13-.52.52-.65,1.04-.65.26,0,.65-.26.91-.26-.65.39-.91,1.17-1.56,1.3-.26,0-.26-.26-.39-.39ZM415.43,170.42c.13-.13.26-.13.26-.26s.13-.26.26-.13c.13.26,0,.26-.13.26h.13c-.13.13-.13.26-.26.26-.13.26-.39.39-.52.26,0-.26.13-.26.26-.39ZM417.11,168.21c-.39.52-.52.65-.91.52l.91-.52ZM418.28,167.69c0,1.04-.65,1.04-1.17,1.04.13-.39.91-.52,1.17-1.04ZM419.98,166.13c.65.91-.39.91-.78,1.3,0-.78.52-.91.78-1.3ZM420.76,165.74c-.26.39-.39.52-.78.39.13-.13.39-.13.78-.39ZM421.15,164.05c-.13.52-.26.65-.78.78l.78-.78ZM422.7,163.01c-.26.26-.65.65-1.3.78.52-.52.78-.78,1.3-.78ZM423.36,167.56c0,.26,0,.52-.26.65,0,.13-.26,0-.26,0,0-.39.13-.52.52-.65Z"/>
  </g>
</svg>