<?xml version="1.0" encoding="UTF-8"?>
<svg id="Layer_1" xmlns="http://www.w3.org/2000/svg" version="1.1" viewBox="0 0 595.28 595.28">
  <!-- Generator: Adobe Illustrator 29.0.0, SVG Export Plug-In . SVG Version: 2.1.0 Build 186)  -->
  <defs>
    <style>
      .st0 {
        fill: #702020;
      }
    </style>
  </defs>
  <g>
    <path class="st0" d="M198.21,204.07c-.26.39-.39,1.04-.39,1.56.13.78,0,1.17-.26,1.82-.78,1.17-1.3,2.34-2.08,3.25-.65,1.04-1.43,2.21-2.47,2.99-1.69,1.43-3.25,3.12-4.94,4.81-.52.39-1.17,1.17-1.95,1.3-1.69.39-2.99,1.43-4.29,2.34l-6.11,3.9c-.52.26-1.17.78-1.69.13-.52-.52.26-1.17.65-1.56,3.64-3.9,6.5-8.32,8.84-13,1.17-2.34,2.6-4.42,3.51-6.89.65-1.43,1.17-2.86,1.43-4.42.52-1.17,0-1.82-1.3-2.08-1.3-.26-2.6-.13-3.77.13-.39.13-.91.26-1.3.26-2.34,0-4.55.78-6.89,1.3-1.3.39-2.6,1.04-3.9,1.69-1.3.39-2.6,1.04-3.9,1.56-1.69,1.17-3.64,2.34-5.2,3.51-1.56,1.04-2.86,2.08-4.16,3.25-.65.52-1.56,1.3-2.34,1.82-2.08,2.21-4.29,4.68-6.63,6.76-1.17,1.04-2.47,1.95-3.38,3.51-.52.91-1.17,2.08-1.82,2.99-.78,1.04-1.69,1.95-2.6,2.99-.26.26-.52.52-.65.91-1.56,2.21-3.12,4.42-4.55,6.63-.39.65-.65,1.3-1.17,1.95-1.43,2.86-5.85,11.31-7.41,13.91-1.82,3.38-3.38,6.76-4.42,10.66-.26,1.17-.91,2.34-1.3,3.64-.78,3.12-1.69,6.37-1.82,9.62-.13.52-.13,1.04-.13,1.69.13,1.04,0,2.08-.91,2.73l1.69,8.06c.39,1.04.91,2.21,1.56,2.99.65,1.17,1.69,2.08,2.86,2.73,2.86,1.43,5.85,2.08,8.97,2.08.91,0,1.82,0,2.6-.26,2.73-.91,5.59-1.69,8.19-2.86,3.64-1.69,7.02-3.77,10.27-5.85,1.04-.65,1.82-1.43,2.86-2.08,3.64-2.6,7.15-5.33,10.4-8.58,1.04-1.17,2.34-1.82,3.51-2.86l.52-.52c1.04-.91,1.69-1.95,2.73-2.86.65-.78,1.3-1.04,2.21-.65.39.26.78.26,1.17-.26.39-.39.26-.78,0-1.3-.13-.26,0-.52,0-.91.26,0,.78-.13.91,0,.91.65,1.3.26,1.82-.52-.39-.26-.65-.78-.91-1.04.26-.39.39-.91.65-1.04,1.17-.78,1.95-2.21,2.73-3.12,1.3-1.3,2.34-2.73,4.29-3.25-.13-1.3.52-2.08,1.3-2.73,1.17-1.17,2.21-2.47,3.25-3.64.39-.52.78-.91,1.43-1.3.52.78.26,1.56-.13,2.08-1.17,1.56-2.21,2.99-3.38,4.42-1.82,1.95-3.51,3.9-5.2,5.85-.91.91-1.17,1.82-1.69,2.86-.26.78-.65,1.43-1.3,2.21-1.69,2.34-3.77,4.42-5.2,7.02-.39.52-1.17,1.17-1.95,1.69-1.3,1.3-2.73,2.47-4.16,3.77-.13,0-.26.13-.26.39,0,1.3-1.17,1.95-1.82,2.99l-1.04,1.04c-.39.52-.65,1.04-1.3,1.43-.39.52-.78.91-1.43,1.17-.52.26-1.17.65-1.56,1.3-.65.91-1.43,1.3-2.21,2.08-2.08,1.82-4.42,3.38-6.5,4.94-2.34,1.95-4.68,3.51-7.67,4.42-1.56.52-3.12,1.43-4.94,2.08-.91.52-1.82.65-2.86.52h-3.51c-2.34-.13-4.68-1.04-7.02-1.82-.52-.26-1.17-.26-1.56-.39-2.08-.39-3.9-1.17-5.59-2.6-.65-.78-1.43-1.3-2.34-1.95-1.3-1.04-2.34-2.21-3.12-3.64-1.04-1.82-2.34-3.64-3.38-5.46-1.04-1.69-1.3-3.64-1.69-5.59-1.04-4.94-.78-10.01,0-14.95.52-4.16,1.69-8.06,2.99-11.96,0-.13.13-.26.13-.39,0-1.95,1.17-3.38,1.95-5.07,1.43-3.12,6.11-12.09,7.67-15.21.91-1.82,1.82-3.51,2.86-5.07,1.56-1.82,2.73-3.9,4.03-5.85l1.69-2.6,8.32-10.53,1.17-1.17,7.02-6.24c1.43-1.17,2.86-2.34,4.29-3.64.39-.26.52-.78.78-1.04.26-.91.91-1.43,1.56-2.08,2.08-1.69,4.55-2.6,7.02-3.25.78-.13,1.43-.52,2.21-.65,2.86-1.17,5.85-.91,8.71-.13.78.13,1.3.26,2.08.26,3.64.39,7.28.78,10.53,2.08l2.99.78c1.56.39,2.99,1.43,4.29,2.47.52.39.78.91,1.04,1.43.78,1.17,1.43,2.34,2.47,2.99.52.39.78.65,1.04.91.65.78.65,1.3.26,2.21ZM163.63,282.2c2.08.13,2.73-.39,2.99-2.73l-2.99,2.34v.39ZM167.92,278.3c.78.39,1.17,0,1.82-.39-.78-.39-1.17-.13-1.82.39Z"/>
    <path class="st0" d="M241.62,237.22c-.39,1.04-1.3,1.43-1.69,2.21-.91,1.43-1.82,2.86-3.12,4.29-1.82,1.56-2.99,3.77-4.03,5.85-.39.52-.65,1.3-1.3,1.43q0,.26-.39.52c-.26,1.56-1.3,2.86-2.21,4.16-.52.91-1.3,2.08-1.56,3.25-.26.26-.52.78-1.43.65.78.65,0,1.04-.13,1.56-.26.65-.78,1.43-1.3,1.95-.39,1.04-.52,1.82-1.17,2.6-.91.91-.91,1.82-1.56,2.47,0,.13-.26.65-.26.26-.52,0-.13-.13-.13-.13,0-.52-.39-.52-.52-.13-.52.13-1.3.26-1.3,1.17-.13.52-.26,1.17-1.3,1.04-.13.13-.26.26-.39.52.13,0,.13.13.13.13.26-.26.78-.52.78-.26.26.52-.13.65-.52.78-.39.78-.26,1.69.13,1.82-.13-1.04-.13-1.3.91-1.82.39-.26,1.17-1.04,1.43-1.69.39.52.26.65,0,1.04-.65,1.17-.91,2.21-1.82,3.38-.65.65-.52,1.82-1.17,2.99-.26.52-.78,1.04-.91,1.56-.13.39-.13.52-.52.78.13.26.13.39.52.65,0,0,.26,0,.26-.26l11.83-11.05c1.17-1.04,2.34-2.21,3.38-2.86,1.04-1.3,2.34-2.08,3.51-3.12.91-.91,1.95-1.56,2.86-2.6-.52.65-.65,1.43-1.56,1.82-.39.13-.39.39-.52.78,0,.26,0,.52-.26.91.13.26-.26.39.26.39.26.26.52.26.65-.13.26-.65,1.56-2.08,2.21-2.08-.13.39-.13.78-.78.91-.39,0-.52.52-.78.91-.26.65-.78,1.04-1.3,1.56l-.91,1.3c-.13.39-.39.65-.78.91-.65.39-1.17,1.3-1.82,2.21-.52.26-.78.65-1.56,1.04l-4.29,4.29c-.52.91-4.81,5.72-5.72,6.63-.39.78-.39,1.56-1.3,1.82-.91,0-1.43.91-2.21,1.3-.13.26-.13.39-.13.78s0,.91-.65.39c-.39-.26-.78.26-.78.78-.13.78-.39,1.04-.91,1.3-.65.26-.91,1.04-1.3,1.56-.78.52-1.17,1.04-1.69,1.3-.65.26-.65,1.17-.65,1.56s0,.78-.65,1.17c.13.65.13,1.56-.91,1.56-.39.13-.52.13-.65,0-.65-.39-1.3-.65-1.95-.78-.91-.52-1.56-.91-1.69-1.95,0-.13-.13-.13-.52-.39-.13-.13-.39-.39,0-.91.39-.26.52-.78-.13-1.3-.13,0-.13-.26-.13-.26.13-1.04,0-1.95.65-2.6.39-.13.52-.39.52-.65.13-1.3.78-2.6,1.3-3.77,1.04-2.21,1.95-4.68,2.73-6.76,1.95-4.81,4.55-8.97,6.63-13.39.91-2.21,2.34-4.03,3.51-6.24.52-1.43,1.43-2.34,2.08-3.51.26-.78.26-1.43.65-1.56v-.52q-.13,0-.39.13c-.65.78-1.43,1.17-2.08,2.08-.39.39-.78.91-1.43,1.17-.52.26-.65.65-.91,1.3-.39.52-.65,1.56-1.56,1.17-.13-.13-.13,0-.13.39s-.52.39-.91.39-.65.39-.91.65c-1.43,1.17-2.99,2.99-4.03,4.68-.26.13-.39.13-.65.39-.13.13-.52.26-.52,1.04,0,.91-.39,1.69-1.3,2.08-.13-1.04.39-1.17.78-1.56,0,0,.26-.39.26-.52-.26-.26-.39,0-.39,0-.39.13-.52.13-.52.65-.26.26-.26.39-.52.39-1.04.78-1.56,2.08-2.47,2.6-.39.13-.91.52-.52.91.52.26.52-.39.65-.52.65-.91,1.04-.91,1.43-.78-.13.39-.39.52-.65.52-.39,0-.13.39,0,.39.26.39.65.39.91,0,.13-.13,0-.13-.26-.39v-.52c.39.39.78.26.65-.13h.65c.39,0,.78.52.78-.13,0-.39,0-.52.13-.52q.26.13.26.52c0,.13-.26.65-.65.65-.52,0-1.04.26-1.04.91.13,1.04-.78,1.69-1.43,2.34-.78,1.04-1.69,1.69-2.47,2.73-.65,1.17-1.56,2.21-2.21,2.99-.52.65-1.04.78-1.43,1.3-1.69,1.69-2.6,2.47-3.12,3.38-1.04,1.3-2.86,3.38-3.9,4.03l-.91.65c-.91.39-1.3.91-1.95,1.56-.78.78-1.3,1.04-2.08.91-.65,0-1.3.13-1.56.65-.39.39-.91.39-1.17.39-.91,0-1.69-.91-2.08-1.82-.52-1.17-.65-2.47-1.69-3.25-.65-.26-.13-1.56-.39-2.21-.13-1.17.39-2.47.52-3.51.39-1.3.65-2.21.91-3.38.13-1.17.65-2.6,1.04-3.9.52-1.56,1.82-3.77,2.21-5.07,1.04-2.86,2.86-6.11,4.16-8.45.91-2.21,1.69-3.77,2.86-5.46.65-1.3,1.43-2.73,2.6-3.77.78-1.56,1.95-3.25,2.99-4.81.52-1.17,1.69-1.69,2.21-2.86,1.3-1.82,2.99-3.38,4.29-4.94l4.55-4.55c3.51-3.64,8.06-4.94,10.79-4.94.78-.26,1.3-.52,2.21-.13.13,0,.39.13.52,0,2.08-.13,3.77,1.04,5.33,1.82.78.52.65-.13,1.17-.52.91.52,1.69.65,2.6,1.3.65.52.78,1.04,1.69,1.43.26,0,.26.13.39-.13.78-.78,1.3-.78,1.82,0,.13,0,.39.13.65.13.39-.13.78-.13,1.04.13.78,1.3,2.08,1.56,3.51,2.34.13,0,.52.13.52.26.13,1.43-.26,2.86-.52,3.9ZM184.42,275.96s0-.13-.26-.13-.26,0-.26.13c0,.26,0,.52.26.52s.26-.26.26-.52ZM184.94,273.49c-.39.26-.39.78-.39,1.17,0-.39.39-.78.39-1.17ZM186.63,277.52c.26,0,0-.26-.13-.26-.52,0-.52.39-.65.65-.26,0-.26.26-.26.39,0,0-.26-.13-.26,0h.26c.65.39.52-.52,1.04-.78ZM231.09,234.62c-.13,0-.13-.26-.52-.26-.78-.52-1.43-.78-2.34-.65-.13,0-.52.13-.65,0-.39-.52-.78-.52-1.43-.52-1.56-.26-2.86.13-4.29.65-1.17.39-2.6,1.17-4.03,1.82-1.17.52-2.08,1.82-3.51,2.21-1.43.52-2.21,1.82-2.99,2.6,0,.26-.13.26-.13.26-.91.52-1.82.78-2.21,1.69-.52,1.04-1.3,1.56-2.21,2.73-.65.91-1.69,1.43-2.34,2.47-.39.39-.78.39-1.17.91-.26.65-.91,1.3-1.04,2.08l-1.17,1.82c-.65.78-1.3,1.43-1.56,2.08-.26.65-.39,1.17-1.17,1.04,0,.52.26.65.13.91-1.04,1.43-1.3,3.12-2.73,3.9v.52c-.39,1.43-1.3,3.12-2.47,3.9,0,.26.39.52.13.91-.39.52-.39,1.17-.65,1.82-.39,1.04-1.69,3.12-2.6,4.16-.13,0-.13.13-.13.39,0,.52-.78,1.56-1.69,1.3-.52,0-1.04,0-1.04.91,1.04-.65,1.04.91,1.69.78-.39.26-.65.65-.13,1.3.13,0,.13.39-.26.39-.52.13-.26.78-.52,1.3-.52.52-.52,1.69-1.82,2.08.91.39,1.3.52,1.82,0,.13.39,0,.52,0,.78s-.39.39.13.65c.26,0,.52,0,.52-.39,0-.26.26-.52.39-.52.65-.13.78-.52,1.3-.65,1.43-1.04,1.95-2.86,3.51-3.64,1.04-.52,3.12-2.47,3.38-4.03l.26-.13c.78-.26,1.43-.78,2.73-2.08.91-.52,1.43-1.69,2.21-2.21,1.3-1.04,2.6-2.73,4.16-4.16,1.17-.91,2.34-2.08,3.51-3.51,1.69-1.56,3.25-2.99,4.81-4.68,1.3-1.04,2.21-2.34,3.38-3.77.26-.26.65-.39,1.17-.39,0,0,.26,0,.26.13,0,.26-.26,0-.39,0-.39-.13-.39.26-.26.39,0,.52.39.65.91.65.13,0,.39-.39.39-.65,0-.39.39-.91-.39-1.3v-.26c.26-.39.39-.39.78-.39.52-.13.26.26.26.39.13.52.39.52.65.52s0-.39,0-.39c0-.26.13-.39.13-.52h.65c.26,0,.52,0,.52-.13,0-.52-.26,0-.26-.39-.26-.13-.91-.13-.65-.65.65-.39,1.04-.91,1.56-1.3.26.26.52.26.78.26,1.43,0,1.04-1.56,1.69-2.21-.39.26-.91.65-1.43,1.17,0,0-.26.26-.39.13,0-.39.13-.39.13-.52.26-.78.78-.52,1.04-.91.39-1.04,1.43-1.3,1.69-2.21,0-.26.26-.39.39-.39.39-.13.78-.39.91-.78,1.3-1.82,2.08-3.77,3.25-5.85.65-.91.26-1.17-.65-1.56ZM186.37,272.71c.39-.39.78-.52.52-1.43-.52.52-.52.91-.52,1.43ZM187.41,271.93c.39.39-.13.78.39,1.04.13,0,.39-.26.39-.26,0-.39-.26-.52-.78-.78ZM188.45,271.28l1.04-1.17v-.39c-.26,0-.26.39-.26.39,0,0-.91,1.17-.78,1.17ZM190.4,266.21c0,.13.13,0,.39,0,.26-.13.13-.65.26-1.17-.26.52-.65.65-.65,1.17ZM190.66,266.86c-.13.13-.39.39-.13.39.13,0,.39-.13.39-.39h-.26ZM191.57,264.65c.26,0,.39,0,.65-.13,0,0,.65-1.17.26-1.17-.13,0-.91,1.17-.91,1.3ZM192.87,262.96c.39,0,.39-.13.39-.39-.26,0-.39,0-.39.39ZM193.91,263.35l-.52,1.17.91-1.17h-.39ZM193.65,257.37c.52.13,1.04,0,1.04,0l.26-.13c-.26,0-.78-.13-1.3.13ZM194.3,260.23c.26-.39.52-.39.52-1.04-.26.13-.52.52-.52,1.04ZM196.38,257.76c-.39,0-.52,0-.91.39.39-.26.52-.26.91-.39,1.3,0,0-.78.13-.91.39,0,.52.13.78,0-.26-.26-.39-.65-.78-.65-.26.13,0,.39,0,.65-.13,0-.52-.26-.65-.26,0-.39.39-.78.13-.91-.39.13-.52.52-.52.91h.39c-.39.65.13.78.52,1.17ZM197.42,255.29c.13-.65.65-.78.91-1.17.26-.26.39-.39.26-.78-.26-.13-.39,0-.52.39-.52.39-.78.91-.65,1.56ZM199.76,251.39c.39,0,.39-.26.26-.39.78-.26,1.17-.91,1.17-1.69-.78.65-1.17.91-1.17,1.69-.13.13-.26.13-.26.39ZM201.19,244.76c.39-.13.52-.52.52-.91,0,.39-.52.39-.52.91ZM201.71,246.19h-.39l.26.26c.13,0,.52,0,.13-.26ZM201.84,248.27c-.13,0-.39.26-.39.78.39,0,.78-.39.78-.52,0-.26-.39-.26-.39-.26ZM202.49,271.93v.78q.39,0,.39-.26c.13-.26,0-.52-.39-.52ZM204.83,270.24h-.13q-.26.26-.26.52l.26.13c.13-.26.13-.52.13-.52v-.13c.26-.39.26-.52.26-.78,0,.26-.26.39-.26.78ZM205.61,240.08q.26-.13.52-.52c-.52,0-.65,0-.52.52ZM206,241.51c-.26,0-.26.13-.39.52,0,.13,0,.39.13.13.26,0,.52-.13.52-.52q0-.13-.26-.13ZM207.56,266.73c.26-.26.39-.26.39-.26,0,.26-.13.39-.13.78-.26,0-.39,0-.65-.39,0-.13.39-.13.39-.13ZM208.86,285.06c-.78.13-.91.52-.78,1.04l.78-1.04ZM209.51,286.1c-.13,0-.13-.13-.13-.13-.13.13-.39.13-.13.39h.13s.13,0,.13-.26ZM210.16,280.9c-.39.13-.39.52-.78.78-.13.39-.13.52,0,.52.39.26.39,0,.52-.13,0-.52.26-.65.26-1.17ZM210.55,261.66c-.52.13-.78.26-.78,1.04.39-.52.52-.78.78-1.04ZM212.37,264.52c-.78,0-.91.39-.91.78.13.26-.13.39-.13.52-.26.39-.52.52-.65.52h-.39c0-.52.39-.52.52-.65.13-.52.65-.78.65-1.17.13-.78.39-.52.91,0ZM228.62,245.15c-.13-.39-.13,0-.13.13-.52.26-.78.78-.91.91-.91,2.08-1.95,3.9-2.99,5.59-.26.26-.52.26-.52.52-.39,1.04-.91,1.69-1.3,2.47-.78,1.56-1.82,2.86-2.47,4.42-.65,1.3-1.17,2.6-1.95,3.77-.39.13-.78.65-.78,1.43-.26,1.04-.91,1.95-1.69,2.73-.39.39-.39,1.17,0,1.82-.78,0-1.3.52-1.3,1.43-.13.26-.13.39-.39.65-.65.78-.91,2.08-1.43,3.12-.52,1.3-1.69,2.08-1.3,3.51-.91.39-.39,1.3-.78,1.82.78-.91,1.3-2.08,1.82-3.38.65-1.17,1.3-2.21,1.56-3.64.13-.13.52-.39.52-.91,0-.39.39-.91.78-1.3.26-.39.52-.91.52-1.3.52-.65.91-1.43,1.3-2.08.91-1.43,1.56-3.12,2.21-4.55,1.04-1.82,2.08-3.9,3.12-5.59.78-1.43,1.56-2.47,2.47-4.03.52-1.17,1.3-2.34,1.82-3.51l1.82-3.51c0-.13.39-.39,0-.52ZM212.37,263.74c-.26-.52.26-.52.52-.52,0-.13.39,0,.39.26s-.39.52-.39.65c-.26,0-.52-.13-.52-.39ZM213.93,279.08c-.13,0-.13-.13-.13-.13-.78.13-.52.52-.78.78q.13.26.13.39.26,0,.26-.13c0-.26.52-.52.52-.91ZM213.41,276.87c.26-.78.65-.91.91-1.43-.65.13-1.04.52-1.04,1.17l.13.26ZM216.14,278.82q0-.39-.26-.52c-.26-.26-.39-.26-.39,0-.13.52-.65,1.04-1.04,1.17-.26.52-.39,1.56-.26,1.95.26-.26.65-.65.78-1.04.65-.52.65-1.04,1.17-1.56ZM216.01,260.36c-.39.39-.78.91-1.17,1.04.52-.26.26-1.43,1.17-1.04ZM216.4,271.67c0-.13,0-.65-.39-.65-.13,0-.39.39-.39.52-.13.13-.13.65-.26.78.78.52,1.04,0,1.04-.65ZM216.66,277.26c0-.39-.39-.39-.52-.39-.26,0-.52.39-.52.52,0,.26.26.26.52.26.13,0,.52-.26.52-.39ZM217.44,276.22q-.13-.26-.52-.26c-.13,0-.39,0-.26.26-.39.26,0,.52.13.52.26,0,.65-.26.65-.52ZM217.83,254.9c-.52-.65-.52-.39-1.04,0h1.04ZM217.18,269.07c.13.39,0,.91,0,1.43.13-.52.78-1.04,0-1.43ZM218.09,268.16c.52-.52,0-.65,0-1.17-.39.39-.39.52-.26.91,0,.39.26.52.26.26ZM219.13,266.73c0-.52-.26-.78-.65-.52,0,0-.39.13-.39.26.39.39.78.26,1.04.26ZM220.17,266.73c-.39,0-.65.26-.78.52-.13.52-.26,1.17-1.3,1.17.13.39.13.52.65.52.26,0,.52,0,.52-.13,0-.91.39-1.43.91-2.08ZM219.39,252.56c-.39-.13-.65,0-.78.52.39,0,.52,0,.78-.13v-.39ZM222.25,265.82c0-.13-.13-.13-.26-.13-.26.39-1.04.65-1.17,1.3q0,.26.13.26c.52-.26,1.3-.39,1.3-1.17,0,0,.13-.26,0-.26ZM221.99,261.4c0-.13.13-.26,0-.65-.26-.13-.26,0-.52.52,0,.13-.26.26-.26.78.39-.39.78-.13.78-.65ZM223.94,257.76c-.26-.26-.65-.26-.65,0,0,.13-.13.52,0,.52.52.13.52-.39.65-.52ZM224.07,263.35c0-.26-.13-.26-.13-.26-.39,0-.39.26-.39.26q0,.26.39.26.13,0,.13-.26ZM223.81,257.37h.13s.26-.26,0-.65c-.13.13-.26.39-.13.65ZM228.49,249.57h-.26s-.13,0-.13.13l.13.26c.26,0,.26-.26.26-.39ZM232.78,268.68c.52-.13.65-.26.91-.65-.39,0-.52.13-.91.65ZM234.86,265.56c.39,0,.52,0,.78-.39-.39-.26-.78,0-.78.39Z"/>
    <path class="st0" d="M241.23,303.39c-.65-.78-1.95-1.17-2.34-2.47-.13-.65-.39-1.56-1.3-1.56-.26-.26-.39-.52,0-.91l.91-2.6c.39-1.3.78-2.47,1.82-5.33.39-.78.78-1.3.91-1.69.65-1.3.78-2.6,1.04-3.9.39-1.17,1.17-2.73,1.69-4.29.52-.78.91-1.95,1.43-3.12.39-.52.13-1.17.52-1.56.26-.39.52-1.17.91-1.3.13,0,.26-.13.13-.39-.26-.78.26-1.3.52-1.82.52-.26.91-1.17.65-1.69-.13-.52.39-.91.65-1.04.26-.52.39-.52.13-1.04-.13-.13,0-.52,0-.65l.65-1.04.26-.65c.26-.65.52-1.43.65-2.21h.13c.13,0,.26-.39.39-.52,0-.13-.13-.13-.13-.13-.13,0-.13.13-.26.13.13-.39.39-.78.52-1.04.13-.26.26-.52.39-.65.39,0,.65.26,1.17.39.52.39.78-.13.78-.13-.26-.52.39-1.04.26-1.69l-.52.39c-.13.39-.13,1.04-.65.78-.39-.13-.13-.65-.13-1.17.39-.39.39-.65.26-1.04-.13-.78.13-1.3.65-1.69l-.13-.65c.65-1.69,2.6-5.98,3.51-7.54.26-.78.39-1.95.91-2.99.52-1.43,1.56-3.12,2.08-4.42.26-.39,0-1.04.52-1.56.65-.65.91-1.82,1.43-2.6.78-1.17,1.43-2.6,2.08-3.9v.26q0,.13.26.39l.13-.39c0-.13-.13-.39-.13-.39h-.13l.91-1.3,1.82-3.51c-.65.13-1.3.78-2.08.78-.39-.13-1.17.78-1.43.91-.13.39-.52.65-1.17.91-.65-.13-1.3.52-2.47,0-1.43.13-2.6-1.04-2.6-2.21,0-.39.26-.91,0-1.3-.52-.78-.39-1.43-.65-2.08,0-.39.26-.91.65-1.17,1.43-.39,2.86-.65,4.42-.78,1.69-.52,3.64-.39,5.72-.52.91,0,1.82-.13,2.73-.13.39-.39,3.51-5.85,3.51-6.5.39-.91.13-1.95.78-2.47.52-.39.65-.91,1.17-1.43.78-.78.65-1.56,1.56-1.69.65-.39.13-1.04.39-1.56.65-1.82,0-.91,1.43-2.34.65-1.17,2.21-2.21,3.12-4.16.78-1.95,2.21-3.12,4.03-4.03.78-.39,1.95-.78,2.34-1.82.26-.78.91-.26,1.43-.65,1.04-.39,2.08-.65,2.99-1.17,2.21-.65,4.29.78,6.63,1.43l4.81,1.43c1.04.13,4.03,2.73,4.29,3.51.26.91.26,1.82-.65,2.08-.65.26-1.56.13-1.95-.39-.39-1.04-4.29-2.47-5.2-2.34h-.26c-.13,0-.13.13-.26.26l.26-.13c.13-.13.26-.13.26-.13-.52.26-4.68,2.6-6.24,3.64-.91.52-1.82,1.56-2.73,2.21-.78.78-1.82,1.04-2.47,1.82-.78.78-.78,1.69-1.17,2.47-.52.78-1.17,1.04-1.3,1.69-1.69,1.3-2.08,2.21-5.2,9.49-.26.39-.78.65-1.04.91,1.82.13,3.64.39,6.24.65,1.82.26,3.64.39,5.2.78,1.04.26,2.08,1.04,3.38.91,0-.13.39,0,.39,0,.13.52.91,1.17,1.04,1.82,0,.78-2.86,1.04-4.68.26,0-.26-.39-.13-.91,0l-.39-.13c-.39-.13-.78-.13-1.17.39,0,.26-.52.39-.65,0-.39-.39-.65-.13-1.04-.13-.13.26-.52.26-.78.26-1.3-.13-2.47.26-3.9.91-1.04,0-1.56.13-2.21,0-.91-.26-1.69-.26-2.6,0-.26.26-.39.39-.78.39-.78-.13-1.3-.13-1.69-.13-.39.26-.65.78-.52,1.3l-.13.52c-.26.39-.78.65-.78,1.56,0,0-.13.26-.26.26-1.69,1.82-2.34,4.16-4.16,6.37-.65.78-2.86,5.2-3.51,6.37-.39.78-.39,1.3-.52,2.21-.13,1.95-2.6,6.37-3.51,8.19-.39.52-.13,1.3-.52,1.69-.26.65-.65,1.43-1.17,2.08-.26.39-.52.91-.91,1.04.39.91-.39,1.3-.65,2.21,0,1.17-.78,1.95-.78,3.12,0,.78-.65,1.43-1.04,2.08-.26,1.3-1.04,2.21-1.3,3.51,0,.65-.26,1.43-.39,1.82-.65.39-.65,1.17-1.04,1.69-.13,1.3-.65,2.6-.91,4.16l-4.03,10.4c-1.56,3.38-2.21,4.68-2.34,6.37-.13.78-.52,1.56-.91,2.21-.65,1.04-.91,2.08-.91,3.12-.39.91-.65,1.69-1.69,1.69-.78-.13-1.82.26-2.47-.26ZM244.35,272.45c.39.52.13.78,0,1.04-.39-.39-.13-.52,0-1.04ZM247.08,277.78c.65-1.17.39-2.73,1.04-3.9.13-.13.39-.65.13-.78,0-.26-.39-.13-.39.13-.39.13.26.52.26.65-.52,0-.78.26-.91.65,0,1.04-.65,2.08-.78,2.99-.13.26-.39.78-.13.91.26.39.52-.13.78-.65ZM247.08,265.82c.39.52.39,1.04,0,1.43-.52-.65.13-.91,0-1.43ZM247.21,268.81c.13.26,0,.39-.13.78-.39-.52-.13-.65.13-.78ZM247.6,270.76c.26.78,0,1.04-.39,1.04,0-.26.13-.65.39-1.04ZM248.12,263.22c0-.26-.13-.52.13-.52s.39-.13.52.13c.26.13,0,.39-.13.52-.26.26-.39,1.04-.91.13.39,0,.52-.13.39-.26ZM248.77,265.04c.13.52-.13.91-.26,1.04-.13-.39,0-.65.26-1.04ZM249.81,266.34c-.13.26-.26.39-.26.65-.13.13-.26.26-.39.52q0-.65.65-1.17ZM250.07,258.28c.13.13.52-.13.78.26.26.26,0,.52-.13.78-.39.39-.52.65-1.17.91.26-.78,0-1.43.52-1.95ZM249.55,263.22c0-.26.13-.26.39-.52,0,.26,0,.52-.26.78-.13,0-.13-.26-.13-.26ZM250.59,260.88c0,.52,0,.91-.13,1.04-.13.13-.39.13-.39,0-.13-.26.26-.52.52-1.04ZM250.72,257.24c-.13-.26.13-.65.13-1.17,0-.13.26-.26.39-.13.13,0,.39,0,.39.39-.26.52-.13.91-.65,1.17,0,.13-.13.13-.13,0q-.13,0-.13-.26ZM251.5,259.06c-.13.52-.26.78-.65,1.04.26-.39.26-.91.65-1.04ZM251.63,266.34c.26-.13,0-.39-.13-.39-.39-.13-.39,0-.39.26-.13.26-.39.78-.13,1.3.26-.52.26-.78.65-1.17ZM251.5,261.4c.39-.39.52-.65.52-1.04.13-.26.13-.65.39-.39.26.13,0,.26,0,.39v.13c-.52.39-.65.78-.91,1.43-.13-.13-.26-.39,0-.52ZM252.54,264.65c-.13-.26-.52-.13-.65-.13-.52,0-.39.52-.39.78,0,.13.13.39.52.39.13-.39.52-.65.52-1.04ZM251.63,254.64c.26-.91,2.21-4.16,2.6-4.81,0-.39.26-.78.52-1.04.13-.78.26-1.3-.52-2.08.91.52,1.3.26,1.3-.65,0-.39.52-.65.65-1.04l1.3-.91c-.78,1.3-1.56,2.47-2.08,4.29-.13.52-.91.78-.91,1.56,0,.65-1.82,4.16-1.95,5.07-.13.13-.13.65-.52.39-.26-.13-.26-.39-.39-.78ZM254.75,258.28c-.52.13-.39.78-.78,1.17.65-.13.91-.52.78-1.17ZM255.92,253.34c0-.13,1.3-3.12,1.43-3.38.39-.65.39-1.3.65-1.82.78-.52.91-1.43.78-2.34-.13.13-.26.39-.52.52-.65,1.17-.65,2.86-1.43,3.9-.26,0-1.56,3.12-1.3,3.25,0,.26.13.13.39-.13ZM255.92,255.55c.91-.26.52-1.04.65-1.56-.52.39-.26,1.04-.65,1.56,0,0-.13.26,0,.39v-.39ZM257.22,246.45c.13.65-.26,1.17-.65,1.69,0-.91.26-1.3.65-1.69ZM258.13,244.37l.13.26c.26.52-.13.26-.39.52-.39-.52,0-.78.26-.78ZM258,241.64c0-.39.13-.52.65-.65,0,.39,0,.91-.52.91-.13.13-.26,0-.13-.26ZM259.43,248.27c0-.26,0-.52-.39-.39-.13.13-.13.26.13.52,0,.13,0,.26.26.13.13,0,.13-.13,0-.26ZM259.17,242.16c0-.52.39-.65.52-.78,0,.52-.13.78-.26.91-.13,0-.26-.13-.26-.13ZM261.38,246.84c-.13-.39-.65-.13-.91-.13-.91-.52-1.04,0-.91.65,0,0,.26.13.39.13.39.26.65.52.91.13.13-.39.65-.39.52-.78ZM260.47,242.94c0-.26-.13-.26-.26-.26h-.26q0,.39.26.39c.13,0,.26-.13.26-.13ZM260.99,243.98c-.52.52-.52,1.3-.65,1.95,1.43-.91,1.17-2.34.65-1.95ZM263.72,239.56c-.13.39-.26.52-.39.65.39,0,.78,0,.39-.65Z"/>
    <path class="st0" d="M291.41,286.62c-2.47-2.34-4.03-5.2-4.94-8.32-.26-.65-.13-1.56-.52-2.08-1.17-1.95-.52-3.9-.26-5.72.26-1.69.65-3.25,1.3-5.07v-.13c1.04-1.04,1.04-4.55,1.69-5.59.13-.26.13-.52.26-.65,2.6-4.68,3.25-6.89,4.55-8.58.78-.91,1.69-1.82,1.95-2.99.13-.39.39-.78.91-1.04.13,0,.13-.13.13-.26.91-2.47,2.99-4.29,4.68-6.37,1.3-1.69,2.99-3.25,4.42-4.94.78-1.04,1.82-1.82,2.6-2.99.78-.78,1.82-1.3,2.73-2.21,1.17-1.04,2.47-1.95,3.9-2.73,0,0,.26-.13.39,0,1.95-.39,4.03-.91,6.11-.26,1.17.39,2.6.26,3.51.91.39.26.65.13.91-.26,0-.13.13-.13.13-.26.13.78.78,1.3,1.43,1.56.39.13.52.26.91.26-.13.26-.13.39.13.65,1.04,1.17,3.12,2.86,2.73,4.29-.39,1.43-1.43,2.86-2.34,4.16-.26.39-.52.52-.91.65-.78.26-.91.65-.65,1.17q.13.13.26.13c-.91.26-1.43.91-1.69,1.56,0-.13-.13-.26-.26-.39,0-.39-.26-.26-.39,0l-.91.39c-.65.91-1.56,1.17-2.21,1.95-.65.65-1.56,1.69-2.73,1.69-.39,0-.65,0-.65.39-.39.78-.91.65-1.56,1.17,1.56.52,2.99.52,4.55.65s3.12.78,4.68.39c-1.17.78-2.6.65-3.9.78-1.04.13-2.21,0-3.12.78-.52.26-1.17.13-1.69.13-1.56-.13-5.59,0-7.28,0-.39,0-1.04-.26-1.56-.13s-1.04,0-1.56.26c-.26.26-.91.26-1.3,0-.52-.26-1.04-.39-1.56-.13-.65.13-1.3.52-2.21.52-.52,0-.39.39-.13.52.52.39.13.65,0,1.04-.78.91-1.43,1.82-1.82,2.86-.13,0-.13.13-1.56,3.38-.78.78-1.3,1.69-1.69,2.73q-.52.91-1.82.78c.26.26.65.13.91.65,0,.26-.13.39-.39.65-.13.39-.39.39-.65.39-.52-.13-.91,1.95-1.43,2.34v.13c.39.39,1.17,0,1.04.39-.13.65-.52,1.17-.78,1.69-.39.78-.65,1.43-.65,2.08-.26.39-.52.78-.78.91-.13.26-.91.52-.13.91,0,0,.13.26,0,.39-.52.39-.52,1.3-.65,1.82-.13.65-.13,1.43-.52,2.08,0,.13.13.13.26.26.26.13.26.52.26.65-.52.52-.13,1.04-.13,1.56,0,.13,0,.52-.13.52-.26.39,0,.52.26.78.39.52.26,1.17.52,1.69.26.39.39.91.65,1.17.26.39.65.78.65,1.56.13.26,1.04.78,1.43,1.17,1.82.78,3.77,1.17,5.59,1.04,1.43,0,2.86-.78,4.29-1.04,1.3-.26,2.6-.91,3.77-1.43,1.3-.65,2.47-.65,3.64-1.17.52-.13,1.17-.52,1.69-.78.39-.26.91.13,1.17-.26.39.65-.52,1.17-.39,1.95,0,.13-.52-.13-.91.13.39.39,1.04.78,0,.91-.13.52.26.52.52.39.78-.39,1.69-.39,2.08-1.04h.13c1.3-.26,1.95-1.69,3.25-1.82.65-.26.91-.78.13-1.3-.26-.26-.26-.52,0-1.04.65-1.56,1.04-1.82,2.6-1.43.52.13,1.56-.13,2.08-.78.26-.52,1.17-.91.65-1.69,1.04.39,1.56,0,2.34-.65,1.43-1.17,2.99-4.03,4.03-5.46,1.17-1.17,2.34-2.34,3.64-3.38.91-.78,2.21-1.56,3.12-2.21.39-.26.52.13.91.26-.78.52-1.17,1.43-2.21,1.56-.26-.13-.26,0-.26,0-.39,1.17-1.3,1.69-2.08,2.47l-1.43,1.43-2.34,2.21c-1.17,3.12-2.21,4.42-3.64,5.33-.78.65-1.17,1.17-1.82,1.82l-1.17.65c-1.17.78-2.34,1.69-3.25,2.86l-.52.52c-1.04.52-2.08,1.56-3.25,2.21-1.04.52-1.95,1.17-2.86,1.69-.65.39-1.04.65-1.82.52-.65-.26-1.17.26-1.82.65-1.43.91-2.99,1.56-4.55,1.56-.52,0-1.04.26-1.43.39-1.56.39-2.99,1.04-4.55,0-.13,0-.26-.13-.39,0-.65,1.04-1.69.26-2.34,0-2.34-.65-4.29-1.82-5.98-3.51ZM317.15,241.9l2.21-2.08c.52-.65,1.3-1.17,1.95-1.69,1.17-1.43,2.86-2.73,3.64-4.42.26-.52-1.04-2.34-2.6-1.3-.26-.39-.52-.26-.91,0-.39.52-.78.91-1.43,1.3-1.69.91-3.38,1.69-4.55,3.38-.65.91-1.56,1.56-2.34,2.34-.78.65-1.82,1.17-2.47,1.95-.39.52-.65,1.17-1.56.91-.26,0-.26.26-.26.39.26.65-.13,1.04-.65,1.43-.13.26-.26.26-.39.65,0,.26.13.26.13.52.52,0,.91.39,1.3.13,1.95-1.17,6.11-2.21,7.93-3.51ZM312.86,281.16c0,.39-.39.39-.65.26.13-.13.26-.26.65-.26ZM313.38,280.9c-.13-.13.13-.39.26-.52.26-.26.65-.52,1.04-.52,0,.52-.65.65-.78,1.17l-.52-.13ZM316.37,280.12c-.39-.52-1.17-.13-1.69-.26.52-.52,1.04-1.04,2.08-1.17-.65.39-1.04.91-.26,1.17.26,0,.39.26.13.39-.13.26-.13,0-.26-.13ZM317.02,277.78c.52-.13,1.04-.65,1.43-1.04,1.17-.91,2.34-1.56,3.64-2.21.91-.39,1.69-.91,2.21-1.82.13-.52.65-1.17,1.3-1.04,0,.26-.52.52.13.65-.65.78-1.56,1.43-2.47,2.08-1.17.91-2.47,1.69-3.77,2.47-.91.52-1.69,1.3-2.73,1.56-.13-.39,0-.52.26-.65ZM322.87,213.82c.39-1.95,3.38-4.03,6.24-5.85,2.47-1.69,8.84-9.62,12.09-10.27,1.04-.13,2.08-.52,2.99-.65.91-.26,2.08.78,2.34,1.3,2.34,1.43,2.86,3.38.52,6.11-1.43,1.3-2.99,2.73-5.33,3.51-1.3.52-2.34,1.3-3.25,2.21-1.56,1.56-9.75,5.33-12.74,7.41-.91.52-3.25-1.43-2.86-3.77ZM325.6,271.67c.13-.52.52-.65,1.04-.65.26,0,.65-.26.91-.26-.65.39-.91,1.17-1.56,1.3-.26,0-.26-.26-.39-.39ZM331.32,265.43c.13-.13.26-.13.26-.26s.13-.26.26-.13c.13.26,0,.26-.13.26h.13c-.13.13-.13.26-.26.26-.13.26-.39.39-.52.26,0-.26.13-.26.26-.39ZM333.01,263.22c-.39.52-.52.65-.91.52l.91-.52ZM334.18,262.7c0,1.04-.65,1.04-1.17,1.04.13-.39.91-.52,1.17-1.04ZM335.09,206.02c2.08-1.82,4.55-2.86,6.89-4.42.91-.52,2.08-1.04,2.6-2.08.26-.13.39,0,.52-.26l-.52.26c-.39.39-1.04.91-1.82,0-.13-.39-.65-.52-.78,0,0,.26-.26.39-.52.13-.65-.52-.91.13-1.69.78.78,0,.65.52.78.65.26.26,0,.39,0,.39-1.56-.26-2.6.65-3.38,1.43-1.56.91-4.03,1.43-4.03,4.03.78,0,1.43-.26,1.95-.91ZM335.87,261.14c.65.91-.39.91-.78,1.3,0-.78.52-.91.78-1.3ZM336.65,260.75c-.26.39-.39.52-.78.39.13-.13.39-.13.78-.39ZM337.04,259.06c-.13.52-.26.65-.78.78l.78-.78ZM338.6,258.02c-.26.26-.65.65-1.3.78.52-.52.78-.78,1.3-.78ZM339.25,262.57c0,.26,0,.52-.26.65,0,.13-.26,0-.26,0,0-.39.13-.52.52-.65Z"/>
  </g>
  <g>
    <path class="st0" d="M265.44,237.57c-.78,1.82-.26-1.17-1.17.65-1.17,2.08-2.21,4.16-3.25,6.37-.65,1.95-1.82,3.77-2.6,5.72-.39.65-.91,1.17-1.04,1.95-.26.52,0,1.3-.26,1.95-.52,1.17-.91,2.21-1.04,3.38-.39,1.04-.78,1.95-1.04,2.99-.13.26-.26.52-.39.52-.91,0-1.43.39-1.82,1.3-.39.65-1.04,1.3-1.3,1.95l-.13.13c0,1.95-1.3,3.38-1.69,5.07-.65,1.04-1.17,2.08-1.56,3.25.52.26.91.39,1.3.39,2.34.39,4.68.52,7.02.78,1.3.13,2.6.39,3.9.39.39,0,.78,0,.91.78v.13c.39.26.52.39.65.65-.26.13-.52.39-.91.52-1.04.13-2.08.26-3.25.13-.13,0-.26,0-.26-.13-.78-1.04-1.95-1.04-2.99-1.04-2.47-.26-4.68-.52-7.02-.65-.39,1.04-1.04,2.08-1.69,2.99-.52,1.3-.78,2.73-1.3,4.03-.13.39-.39.65-.52.91-.65-.52-.13-.78.13-1.3-.26,0-.52-.26-.65-.26.52-.78.78-1.82,1.04-2.73.52-.78,1.43-1.56,1.82-2.34-.13-.39-.13-.65-.39-.91-.13-.13-.26-.39-.52-.39-.78-.26-1.43-.13-2.21-.26-.91,0-1.82-.13-2.73-.13-.91.13-1.82.13-2.73.26.52.52.78,1.43,1.82,1.69.39,0,.78.39.91.78.39,1.56.91,3.38.26,5.07-.13.78-.52,1.43-1.04,2.08-.65,1.43-1.3,2.6-1.95,3.9-.65,1.17-1.04,2.34-1.56,3.64-.26.65-.65,1.43-.65,2.21,0,.26-.13.52-.26.65-.52.39-.78.91-.78,1.43s-.13.91-.39,1.3c0,.39-.26.65-.13,1.3.13.13-.52.91-2.34,6.11-.65.65-1.3,1.69-.91,2.6.13.26.13.39.13.52-.52.52-.65,1.17-1.04,1.82-.13.13-.39.26-.39.52.13.78-.26,1.3-.52,1.82-.13.26-.26.39-.13.65-.39.78-.78,1.43-.91,2.08h-.13c-1.43.39-.91,1.95-1.43,2.86-.52,1.04-.91,2.21-1.3,3.25-.13.39-.13.78-.13,1.17.13.65.26,1.17.52,1.82-.91-.65-.91-.52-1.3.39-.13.26-3.25,6.76-3.25,7.02-.13.13-.39.13-.65.13l-.52.13c.39.78.65,1.69.91,2.6-.26.13-.52.39-.78.78,0,.39.26.91.26,1.3-.13.26-.52.39-.78.65-.26.13-.39.26-.39.52-.52.91-.65,1.95-.78,2.99-.13.13-.13.26-.26.26-.78.52-1.3,1.3-1.3,2.21,0,.13-.13.26-.13.39-.13.52-.26,1.3-.52,1.82-.26.26-.52.52-.91.65q-.65.52-.39,1.43c.13.65-.13,1.3-.52,1.95-.26,1.43-.78,2.6-1.43,4.03-.13,1.43-.39,2.86-.65,4.29,0,.26-.26.52-.39.78-.52.26-.39.78-.39,1.3-.26.65-.26,1.43-.26,2.08,0,.26-.39.52-.52.91-.39,1.17-.78,2.21-1.04,3.12-.39.65-.91,1.17-1.04,1.82.39,1.56-.26,2.86-.39,4.42.52-.13,1.04.13,1.43,0,.26,0,.52-.26.52-.52.52-.78.78-1.56,1.04-2.34.26-1.43.78-2.99,1.17-4.42.65-1.43.91-2.99,1.69-4.16.13.13.26.26.13.26-.13,1.04-.52,2.08-.78,2.99-.26.78-.39,1.43-.52,2.21-.52,1.43-1.04,2.73-1.3,4.16-.13.39-.13.91-.26,1.43,1.04,0,2.08,0,2.99-.13,1.56-.13,2.86-.13,4.16-.13,1.43-.13,2.86.13,4.16.26.26,0,.52.13.91,0,1.04,0,1.82.39,2.73.52.65.13,1.56.39,2.34.26.65,0,1.17.13,1.56.78l.91.78c-.13.39-.39.78-1.17,1.04-1.3.26-2.47-.13-3.38,1.17-.26-.26-.39-.39-.39-.65-.78,1.04-2.08,0-2.99.39-.39.13-.91.13-1.43.13-2.34,0-4.42.13-6.89,0h-3.64c-.52,0-.91,0-1.3.13-.13,0-.39.26-.39.39-.39,1.43-.78,2.86-1.04,4.55-.39.78-1.04,1.69-1.04,2.6-.26.52-.26,1.04-.39,1.43-.26,1.56-.39,3.12-.78,4.55-.26.39-.13.78-.13,1.3-.26.65-.65,1.17-1.04,1.82-.26-1.04-.39-2.21,0-3.12.39-1.43,1.04-2.73.65-4.16-.13-.13,0-.26,0-.26.65-1.04.78-2.47,1.3-3.64l1.56-5.2v-.26c-1.69-.65-3.12-.39-4.68-.39-1.3.13-2.6-.13-3.9-.26-1.17.26-2.21.13-3.38-.26-.52,0-1.04.26-1.56.39-1.17.13-2.34.39-3.51,0-.78-.13-1.43.13-2.21.13-1.3-.13-2.6-.39-4.03-.26-.52.13-1.04.52-1.43.65.13-.13,0-.26.26-.65l-2.08.39v.13h1.04c-.13.91-.91.65-1.56.78.26-.65-.13-.91-.78-1.04-.39,0-.91-.65-1.04-1.04-.13-.39.13-1.17.13-1.56,1.56-.26,3.12-.78,4.55-1.04.52-.13,1.17,0,1.82,0,.91.13,1.69.13,2.6,0,1.17,0,2.47.13,3.64,0,1.95,0,3.9,0,5.85-.13.91.13,1.82,0,2.73,0,.78,0,.91,0,.65-.91-.39-.13-.65-.13-1.04-.52-.13,0-.26-.39-.26-.65-.13-.26,0-.52,0-.78-.52-.65-.78-1.3-.39-2.21,0,0-.13-.13-.13-.26-.39.65-.65,1.04-.91,1.69-.52-.91-.78-1.43-.91-2.08,0-.91-.13-1.69-.52-2.34,0-.26,0-.52.26-.65.91-.91,1.04-2.21,1.56-3.51.39-.78.65-1.56.91-2.34.91-2.86,1.95-5.59,2.73-8.45.65-1.3.91-2.86,1.69-4.29.52-1.82,1.17-3.64,1.69-5.33l.39-1.3c.65-1.43.91-3.12,1.82-4.42l4.81-12.22c.52-.91.91-1.69,1.04-2.73.26-1.3,1.17-2.21,1.56-3.51l.39-1.69c.26-1.04.91-1.82.91-2.99,0-.52.65-.91.65-1.56.13-.26,0-.65.13-1.17,0-.13,0-.26.13-.39,1.04-.91,2.86-7.28,3.38-8.58l2.21-5.85c.26-.65.65-1.43.91-2.21.13-.26-.13-.52-.13-.78.26-.26.52-.65.65-.91.78-1.69,1.3-3.38,2.08-5.07.65-1.69,1.3-3.51,1.82-5.33.52-.91.91-1.82,1.3-2.99.13-.78-.13-1.04-1.04-1.17-2.21.13-4.42.13-6.63.39-1.82,0-3.64.13-5.46.26-.52.13-1.17,0-1.82.13-.13,0-.26.13-.26.26.26.39.26.65.52.91v.26c-2.47-.78-5.33-.39-7.67-1.82.26-1.17,1.04-1.3,1.95-1.3,2.34,0,4.68-.13,6.89-.13,1.17-.13,2.34-.13,3.51,0,.13,0,.26,0,.52.13-.39.13-.52.26-.78.26v.13c.39,0,.78,0,1.17-.13,0-.26,0-.39-.13-.65.13,0,.26,0,.39.13,1.17-.13,2.47-.39,3.64-.39,1.17-.13,2.21-.13,3.51-.13.52.13.91.13,1.56,0,.91-.39,1.82-.13,2.6-.13.52.13.91,0,1.43,0,2.34,0,4.81.13,7.15.13,1.43,0,2.86.13,4.29.26.52,0,1.04.39,1.69-.26.26-.39.39-.65.52-1.04.26-.39.52-.65.91-1.04-.26-.26-.39-.39-.65-.52,1.17-1.82,1.82-3.77,2.73-5.72.13-.39.39-.78.91-1.43-.13-.13-.39-.26-.65-.26-.91-.39-1.04-.39-.78-1.43,0-.52-.13-1.17-.13-1.69l.39-3.77c.13-1.17.52-2.34.52-3.38,0-.52.26-.78.65-.65.65.13,1.43-.13,1.82.78,0,.13.13.26.13.26.91.26,2.34-.26,2.86-.78.13-.26.39-.39.39-.39.13-.52.26-.78.39-1.17.39-1.04.78-1.82,1.3-2.73.78-1.3,1.3-2.47,2.08-3.64.26-.65.39-1.3.65-1.82.52-1.17,1.3-2.47,1.95-3.64.91-2.08.39.91,1.17-1.04.26-.52.65-.52,1.04,0ZM202.13,360.56c-.13,0-.26,0-.52-.13,0,.65-.13,1.43-.39,2.08.13.13.26.13.39.13.13-.65.39-1.3.52-2.08ZM205.25,351.46v-.13c.39-.91.78-1.82,1.43-2.73-.78-.26-.91-.26-1.3.52,0,.39-.13.78-.26,1.04,0,.52.13.78.13,1.17-.13,0-.39.13-.39.26-.78,1.04-1.04,2.21-1.43,3.38-.13.26,0,.65.13,1.04h.13c.39-.91.65-1.82.91-2.47.39-.65,1.3-1.17.65-2.08ZM208.37,356.4l.52-.13-.39-.52c-.13-.13-.26,0-.39,0-.26.13-.65.26-.91.13.13-.26.13-.52.26-.78v-.13c-.52-.13-.78.13-.91.65-.13.26-.26.52-.52.78-.52.78-.26.91.39,1.3.26-.13.52-.26.52-.52.13-.78.65-1.17,1.43-.78ZM206.42,348.08c.78-2.47,1.95-4.81,2.99-7.28-.13-.13-.26-.13-.26-.13-.52.26-1.04.26-1.3.91-.39,1.69-1.04,3.25-1.56,4.94-.13.52-.26.91.13,1.56ZM207.72,354.19q.78.65,1.69-.26c-.65-.13-1.43-.65-1.69.26ZM210.32,358.48c-.39-.52-.52-1.17-1.43-1.17,0,.39-.13.65-.26.65l.91.52c.26.13.52.13.78.26v-.26ZM210.84,336.25c-.13,0-.26.13-.39.39l-.39.78c-1.04.52-1.17,1.3-.78,2.47,1.3-.78,1.17-2.47,1.56-3.64ZM213.44,331.44c-.39-.26-.65-.65-.78-.91-.13,0-.26-.13-.26-.13-.13.52-.13.91-.26,1.56.52-.26.91-.39,1.3-.52ZM213.83,360.43c0-.13-.26-.26-.26-.26.52-.65.65-1.17.91-1.95.65,1.04.26,1.69-.65,2.21ZM215,332.87l-.91,1.56c1.3-.13,1.43-.13.91-1.56ZM215.13,357.05c.13-.91.39-1.95.91-2.6.26.65-.52,2.34-.91,2.6ZM217.21,320.38c-.65.65-.91,1.3-1.3,1.95,1.04-.39,1.43-1.17,1.3-1.95ZM219.68,313.75s-.13,0-.26-.26c-.26.65-.39,1.17-.65,1.69q.13.13.26.13c.26-.52.78-.91.65-1.56ZM221.5,339.37c.78,0,1.56.26,2.34.26,0,0,0,.13.13.26-.39.13-.78.65-1.17.39-1.04,0-1.3.78-1.82,1.69-.13.65-.65,1.17-1.04,1.82h-.13c.52-1.3,1.04-2.86,1.43-4.16,0,0,.13-.26.26-.26ZM221.76,318.18l-.78-.52-.26.26c.26.26.52.52.78.65.13-.13.26-.26.26-.39ZM222.15,309.72c-.39.13-.65.26-1.17.39.39.65.65.91.78,1.3l.39-.39v-1.3ZM223.97,334.43c-.39.52-.39,1.04-.65,1.69,0,.13-.26.13-.39.13,0,0-.26-.39-.13-.39.39-1.17.91-2.6,1.43-3.9q0-.13.13-.13c.39.78.39,1.43-.13,1.95-.26.13-.26.39-.26.65ZM225.27,330.92l1.04-2.47c-.26.65-.52,1.56-1.04,2.6-.13,0,0-.13,0-.13ZM241,289.57c0,.26.13.52.13.65-.26.91-.78,1.56-1.17,2.34-.52.91-.52,2.08-1.04,2.99-.52,1.69-.91,2.99-3.12,9.36-.39,1.17-.91,2.21-1.43,3.38-.13.91-.65,1.82-1.04,2.86v.52c.26,0,.52.13.91.13-.52.52-.91,1.17-1.56,1.82-.39.26-.52.78-.65,1.3-.65,1.82-1.56,3.64-1.95,5.59-.52,1.17-1.3,2.34-3.38,7.02,1.3-3.25,1.17-3.38,1.04-3.64l-.39.26c.13-.65.39-1.3.65-2.08v-.13c.65-.52,1.04-1.3,1.17-2.08s.13-1.3.26-1.95v-.39c1.17-.26.78-1.56,1.69-2.21.39-.26.39-.65-.13-.91.78-1.17,1.04-2.08,1.56-3.12,0-.13.13-.26,0-.52-.26-.65.26-.91.65-1.3.39-.26.65-.65.39-1.17-.13-.26.26-.52.39-.65-.13-.78-.13-1.43.91-1.69l1.69-6.76c.13-.26.39-.39.52-.65.65-.52.13-1.56.52-2.21.13-.39.39-.65.78-1.04-.26-.65.13-1.3.39-1.95.39-.26.52-.91.52-1.43.13-.78.39-1.04,1.04-.78,0-.52-.26-.91,0-1.3,0-.13.39-.13.65-.26ZM243.99,282.68c-.13.91-.65,2.08-1.3,3.12-.13.91-.52,1.95-.91,2.86-.13.26-.52.52-.65.52-.39,0-.65-.39-.52-.91.39-.52.52-1.04.78-1.43.26-.91.91-2.08,1.3-2.99.26-.78.65-1.17,1.3-1.17ZM276.36,219.5c-.13.26-.13.78-.13,1.17-.26.26-.26.65-.26,1.17-.13,0-.26-.13-.26-.13,0,.39.13.52.13.65-.26.65-1.17,1.04-1.82.78-.26,0-.52.13-.78.26-.39.52-.65,1.17-1.04,1.69-.65.91-1.43,1.82-1.69,2.73-.39.52-.52,1.17-.91,1.69-.78,1.82-1.69,3.64-2.6,5.33-.26.52-.39,1.17-.78,1.56-.13.13-.52.26-.78.39,0-.39,0-.78.13-1.04.65-1.3,1.43-2.6,2.21-3.9.13-.26.13-.65.39-.91,0-.39.26-.78.65-1.17.65-.91.52-2.08,1.3-3.25.52-.26.65-.91.91-1.43.65-.78,1.17-1.56,1.3-2.47.13-.39.65-1.04.52-1.56,0-.91.26-1.56.91-2.08.91-.78,1.82-1.3,2.86-1.56.52.78.26,1.3-.26,2.08Z"/>
    <path class="st0" d="M300.67,347.43c.39.13.65.52,1.04.78-.52,1.43-1.3,2.6-1.69,4.03,0,.39-.39.52-.39.65-.52.39-.65.91-.39,1.69.13.65-.13,1.04-.65,1.17-.26.26-.78.39-1.3-.26-.26-.52-.52,0-.52.26-.13.65-.26,1.04-1.04,1.17-.13,0-.39.39-.65.65,1.3.39,1.56-1.04,2.73-1.17.26,2.6-1.04,4.03-2.47,5.33-.26.26-.39.39-.65.78,0,.52-4.29,5.46-4.81,5.85-.65.78-1.56,1.43-2.21,2.34-.52.78-1.56,1.04-2.34,1.43-.78.52-1.56,1.17-2.21,1.95-1.04,1.17-2.21,1.69-3.64,2.21-.26,0-.52,0-.65.13-.91,1.04-1.69.78-2.86.52-.65-.26-1.56-.26-2.21-.39-1.43-.13-2.21-.78-3.51-1.69-.78-.65-1.69-1.3-2.21-2.34-.65-1.17-1.43-1.95-1.95-2.99-.91-1.17-.65-2.6-.39-3.77,0-1.3.39-2.6,1.04-3.77.13,0,.26-.13.13-.13-.78-1.17.26-1.69.52-2.47,1.04-2.6,2.73-4.55,3.38-7.28.26-.78.78-1.56,1.43-2.08.39-.78.52-1.3.78-1.95.52-1.3,1.3-2.47,2.08-3.64.91-1.17,1.56-2.47,1.95-3.9.52-1.3,1.04-2.6,2.08-3.51.13-.13.26-.26.26-.39,1.69-3.64,4.16-6.89,6.24-10.4,1.56-2.86,3.51-5.59,5.07-8.58.39-.26.78-.52.78-1.17-.52.13-.91.39-1.43.65-.13.13-.26.13,0,.26-1.17.26-2.21.78-2.99,1.95-.26.39-.78.39-1.43.52-.26.13-.39.13-.52.52,0,0,0,.13.13.13.26.26.52.13.65-.13,0-.13.13-.13.26-.13.13.39.26.65,0,.78-1.3.52-1.95,1.69-3.25,2.21-.39,0-.65.39-1.04.65-.26-.52.13-.65.39-.78.52-.52,1.04-.65,1.56-1.17.13-.13.39-.13.26-.52-.13-.26-.39-.13-.65,0-.65.39-1.3.78-1.95,1.3l-1.04.78c-.26.13-.39.52-.26.78.39.91-.26,1.17-.78,1.56-1.43,1.69-3.12,2.99-4.55,4.68l-2.08,3.12c-.91,1.3-1.82,2.47-2.86,3.64-2.21,2.47-4.03,4.16-6.24,6.63-2.08,2.21-4.29,4.16-6.11,6.37-1.17,1.17-2.47,3.64-3.64,4.94-1.17.91-2.08,2.21-3.12,3.12-.91.78-4.68,7.02-5.72,7.67-.39.52-.65,1.43-1.04,2.08-.78,1.82-1.82,3.51-2.86,5.33-.26.39-.65.65-.91,1.04-.65-.26-1.04,0-1.69,0-1.3.13-2.34-.65-2.99-1.56-.52-.65-1.17-.91-1.82-1.69-.65-1.17-.78-2.34-.39-3.64,1.04-1.69,2.34-3.38,2.99-5.33.91-1.43,5.07-8.32,5.72-9.88.39-1.04.91-2.08,1.3-3.25.78-1.56,1.95-2.73,2.21-4.55,0-.26.13-.39.26-.52.52-.39.52-.91.78-1.43.91-1.17,1.17-2.73,1.95-3.77.39-.39,3.25-3.51,3.38-4.03,1.17-1.95,2.21-3.77,2.86-5.85.52-1.3,1.17-2.47,1.82-3.77.65-2.99,2.08-5.59,2.6-8.58.26-.13.39-.39,0-.52-.26-.13-.39,0-.52.13-.65.13-1.43-1.69-.52-3.12,1.3-.39,2.6-.65,3.9.39.65.52,1.43,1.04,2.34,1.56.78.39,1.69.52,2.6,1.04.52.13,1.17.65,1.56,1.3,0,0,.13.26.13.39.26.52.39,1.17.13,1.56-.26.78-.52,1.69-.65,2.34-.26.52-.39,1.04-.65,1.69q0,.13-.13.13c-.52,1.43-1.04,2.73-1.69,4.03-.78,1.56-1.3,3.38-2.21,4.81-.39,1.04-.91,2.34-1.43,3.25-.65.65-3.38,4.16-3.77,4.55-.78,1.04-.78,2.34-1.43,3.38-.39.78-.91,1.95-1.17,2.99,1.04-1.17,1.95-2.47,2.99-3.64,2.73-2.73,5.07-5.46,7.67-8.32,2.08-2.34,4.16-4.81,6.37-7.02,2.21-2.21,4.55-4.29,7.02-5.85.52-.13.65-.78,1.3-.91,1.69-.39,2.6-1.95,4.16-2.6,1.69-.52,3.12-1.95,5.07-2.47.91-.26,1.82-.78,2.6-1.43,1.17-.91,2.34-.65,3.25.78.78.91,1.56,1.43,2.34,1.82,1.43.65,2.6,1.69,2.6,3.51,0,.26,0,.39-.13.52-1.04,1.43-1.82,3.12-2.86,4.55-.78,1.04-1.3,2.34-2.21,3.12-.65.52-.78,1.43-1.3,2.08-1.56,2.34-3.12,4.55-4.81,6.89-.52.65-.65,1.56-1.56,1.82v.26c.52,1.43-.65,1.95-1.3,2.73-.26.52-.65.91-1.04,1.43-.13.52-.26.91-.78,1.04-.39.13-.52.13-.39.91.13.26-.13.91-.39,1.3-.65.65-.91,1.43-1.69,1.95-.13,0-.26.13-.26.13.26,1.04.13,1.56-.65,1.82,0,0-.13.13,0,.26.52.78-.13.91-.52,1.17-.26.26-.91.78-.52,1.17,0,.91-.39,1.04-.78,1.43l-1.17,1.17c-.13-.13-.26-.26-.52,0,.26.13.39,0,.52,0-.13.39-.13.91-.26,1.43s-.39,1.17-1.04.91c-.78,0-.52.65-.52.78.78.91-.13,1.69-.39,2.34-.39,1.17-1.04,2.47-1.43,3.64,0,.13-.13.26-.13.26-.91.52-.78,1.69-1.17,2.6-.13.52-.26,1.04-.52,1.3-.65.65-.13,1.43-.39,2.08.13.13.65.39.78.13.91-1.04,2.47-.26,3.38-.91,1.3-1.04,2.86-1.69,4.29-2.6.26-.26.65-.65.78-1.43-.13-.65.78-1.17,1.3-1.69,1.17-1.3,2.6-2.6,3.9-3.77.78-.78,1.43-1.69,2.6-2.21.26-.13.39-.78.39-1.04,4.42-5.59,5.46-5.98,5.98-6.89.13-.26.39-.26.52.13.26.26.65.39.78.52-.13.39-.39.39-.78.26-.39,0-.52.13-.52.39,0,.13,0,.39-.13.39-.78-.13-.78.78-1.3,1.17-.52.65-5.07,5.72-5.85,6.24-1.56,1.43-2.99,3.12-4.81,4.68,0,.13-.39.26-.13.52.13.26.26,0,.52,0,.26-.26.65-.39.91.26.13.39.65.13.91,0,1.95-1.95,8.06-8.45,9.62-10.79.78-1.3,2.21-2.21,2.6-3.77,0-.39.52-.13.78-.52-.26-.39-.65-.13-1.04-.39,0-.26.39-.65,0-1.04.39-.26.91.78,1.04,0,.13-.52-.65-.26-.78-.65.39.13.78-.13,1.3.26.39.52.52.26,1.04,0,.13-.13.13-.26,0-.52-.52-.26-1.04-.52-1.3-.78-.13.78-.78.52-1.04,1.04,0,.26-.13.39-.26.65-.13-.13-.13-.26-.13-.39.13-1.04,1.3-1.69,2.47-1.3h-.26v.13l.26-.13ZM238.13,364.98c-1.17.26-.52,1.43-1.04,2.08-.13.13,0,.52.65.65.13-.91,1.04-1.56.39-2.73ZM238,364.72c.13,0,.13.13.13.13.13,0,.13-.13.13-.26v-.39c-.13-.26-.26-.26-.39,0-.26.26,0,.39.13.52ZM238.92,363.68c.26-.13.65-.26.52-.65,0-.26-.26-.39-.52-.39-.26.13-.52.39-.39.78,0,.13.13.26.39.26ZM240.6,359.39c.13,0,.13-.13.26-.13.13.26,0,.39-.26.78-.13-.13-.13-.26-.13-.39l-1.17,2.08v.13c.26-.13.52-.13.78-.26.65-.13,3.38-6.24,3.51-6.76.13-.13-.13-.26-.26-.26-.26.13-.39.52-.52.91l-2.21,3.9ZM242.42,356.79c-.13-.39.13-.65.52-1.04,0,.52-.39.91-.52,1.04ZM242.81,351.85c0,.13.13.13.26.13s.26-.13.26-.26c-.13-.13-.13-.26-.26-.26,0,0-.26.13-.26.39ZM244.5,353.41c0-.13,0-.39-.26-.26s-.78.26-.78.78c.13.39.39.39.65.39.39-.26.52-.52.39-.91ZM244.5,353.54c0,.26-.13.52-.39.78-.13,0-.13-.26-.13-.26.13-.26.26-.26.52-.52ZM245.03,352.24l.26-.39v.39c.26,0,.52,0,.78-.39-.26-.26-.52,0-.65-.26,0-.26.13-.52.26-.52.26-.39.39-.78.65-.91-.39,0-.65,0-.78.26-.52.52-.78,1.04-.78,1.82h.26ZM245.29,346.91c.52-.39,1.17-.52,1.56-.91.13,0,.39.13.39-.13,0,.13-.26.13-.39.13h-.39c-1.04-.39-.91.39-1.17.91ZM246.46,350.16c-.13.39-.26.52-.39.65.26,0,.52-.13.65-.52-.13,0-.26,0-.26-.13ZM246.33,348.99c.26.26.39.13.52-.13-.26-.13-.52-.13-.52.13ZM247.62,346.65c-.39.13-.52.26-.52.52v.26l-.13.13v.39c.65-.26.91-.52.91-1.04l-.26-.26ZM258.16,345.35c-.13.26-.78-.26-.91.26,0,.13.13.26.26.26.39.13.78,0,.65-.52ZM261.41,341.32c-1.04.52-1.17,1.43-1.69,2.08-.52,0-.78.26-.78.78.13.13.26.13.39.13.52-.13.39-.52.39-.91.65.13,1.04-.26,1.56-.39.78-.39-.39-1.04.13-1.69ZM263.1,341.58c-.39-.52-.78-1.04-1.17-1.04-.26,0-.52.39-.26.65.26.52.65.39,1.43.39ZM263.62,339.5c-.52.26-.91,0-1.04.39,0,.39.52.26.78.39,0-.26.13-.39.26-.78ZM270.38,331.44c-.78,1.04-1.56,1.56-2.08,2.34-.39.78-1.17,1.17-1.69,1.82-.65.52-1.43,1.17-1.82,1.95-.39.65-1.04,1.04-1.43,1.56q.91.39,1.04-.26c.13-.26.39-.39.52-.39.91-.52,2.08-1.04,2.47-2.34.39-.65.26-1.95,1.56-1.82-.13-.13-.13-.26-.13-.26q0-.26.26-.39c.52-.13,1.3-1.17,1.3-2.21ZM267.65,364.98c-.52.65-.78,1.56-.78,2.47.13.39.13.65.39.65.26.13.13-.13.26-.39.13-.39.13-.65.26-.78.65-.65.65-1.3-.13-1.95ZM268.3,363.55c-.39.26-.39.52-.39.65s.13.26,0,.26h.13s-.13-.13-.13-.26c.52,0,.52-.26.39-.65ZM269.73,361.47c0-.26-.13-.26-.39-.26-.39,0-.52.26-.65.52.13.26.39.39.39.39.65,0,.78-.26.65-.65ZM270.77,359.91c-.52-.13-.91-.13-.91.78.39-.26.78-.52.91-.78ZM272.46,359.78c-.39-.52-.39-1.56-1.3-1.3-.13,0-.52-.13-.52.39,0,.26.13.26.39.52.26.13.65.26.91.65,0,0,.13.13.26,0,.13,0,.26-.26.26-.26ZM272.98,328.71c-.26-.26-.65-.26-.65.13-.39.78-1.04,1.43-1.43,2.21.39-.13,1.04.26,1.17-.13-.13-.78.52-1.04.78-1.56.13-.26.39-.39.13-.65ZM271.29,357.83c.13.13.26.13.52.13.39-.13.13-.65.26-.91.26-.26.52-.65,0-1.04-.13-.26-.39-.26-.39-.13-.39.39,0,.52.13.78-.26,0-.52-.26-.78.13-.13.39,0,.65.26,1.04ZM273.24,357.57q.13-.13.13-.26c.13-.13.13-.26,0-.26-.26,0-.26.26-.13.52ZM273.76,351.2c.26.13.26-.13.39-.26,1.04-1.56,1.95-3.25,2.86-5.07-.26.13-.39.13-.39.13-1.3,1.43-2.34,2.86-2.99,4.55-.13.26-.13.39.13.65ZM294.69,359c0-.26-4.16,3.9-4.42,3.9-.13,0-.13.26-.13.39.13.13.13.39.39.39,0,0,4.16-4.55,4.16-4.68ZM303.79,342.62c-.13.39-.13.78-.65.78.13,1.17-.52,1.95-1.17,2.6-.39.52-.78-.26-1.3-.26.26-.39.39-.39.65-.26.26.13.65,0,.65-.13-.39-.91.39-1.17.52-1.95,0-.39.26-.13.52,0q.13-.13.13-.26c-.13-.39,0-.65.39-.78.13-.13.26.13.26.26ZM305.09,340.93c-.26.39-.39,1.04-1.3,1.3.26-.78.78-1.17.91-1.82,0,0,.26-.13.26,0,.26,0,.13.26.13.52Z"/>
    <path class="st0" d="M304.69,377.33c-1.95-.78-2.99-2.73-4.81-3.77-.91-.52-1.43-1.56-1.69-2.73-.91-4.16-.39-8.32,1.3-12.35.26-.52.52-1.04.52-1.56,0-.78.13-1.43.52-1.82,1.04-1.3,1.3-2.99,1.69-4.55.26-1.17,1.04-2.08,1.43-3.12,1.04-2.34,2.73-4.55,3.12-7.15.13-.65.52-1.04.91-1.56.65-.65,3.25-5.33,3.38-6.37.26-1.17,1.04-2.21,1.56-3.25.91-1.69,3.12-4.81,3.77-6.63.26-.65-.26-.52-.65-.52-3.25.91-.52.52-3.77.91-1.69.13-3.64.39-5.2-.91-.91-.65-.78-1.69-1.17-2.47-.13-.39.91-.91,1.69-1.04,2.47-.65,5.07-.65,7.54-.78,3.38-.13.65-.52,3.9-.78.91-.13,1.43-.52,1.82-1.3.65-1.17,1.56-2.21,2.21-3.38.26-.65-.26,0,.26-.65,2.08-2.99,3.12-6.37,5.2-9.36,1.56-2.08,1.17-3.51,3.64-6.89.78-1.04.91-1.17.78-1.69-.52-1.17.13-1.69.91-2.21.78-.39,1.69-.91,2.21-1.69.39-.39-.26-.52.39-.26.91.39,1.95.39,2.73.78.91.13,1.56.13,3.12.26,1.95.13,2.99,3.38,2.6,5.07-.39,1.43-.78,2.99-1.95,4.03-1.3,1.17-1.82,2.86-3.25,3.9-.78.65-1.43,1.69-1.3,3.25-.52,1.17-1.43,2.08-2.34,3.12-1.56,1.56-1.17,2.34-1.82,3.9-.26.39-.78.52-.91,1.04-.52,1.17-.39,1.43.91,1.56,2.86.26,5.72-.13,8.58,0,2.21.13,4.42-.13,6.63.39.78.13,1.56-.26,2.34-.26,1.3-.13,2.6.26,3.77.65v.39l-18.85.78c.65,1.04,2.08.65,2.99,1.3-1.82.13-3.64,0-5.46.39-1.43.26-1.43-.39-2.73.78-.26.26-.65.39-.78.78-.39,1.82-2.47,4.55-4.16,5.59-.52.26-1.3,1.04-1.43,1.95,0,.39-.26.65-.65.78-.39,0-.39-.39-.52-.65s-.39-.65-1.04-.39c.78.78.26,1.82,1.17,2.47.52.39,0,.65-.26.91-.26.39-.65.78-1.17.91.65.65-1.3,5.07-2.34,5.46-.26,0-.39.13-.39.39,0,1.04-.78,1.56-1.43,2.21-.39.39-.52.91-1.17.65-.65-.39-.39-.91-.13-1.43-.78-.13-1.56-.13-2.21.13,0,.65.52.26.65.65-.39.39-.78.91-1.56.78q-1.56-.13-1.04,1.17v.78c0,1.17.52,1.43,1.43.91.78-.26,1.17.39,1.56.65.26.26,0,.78-.26,1.17-.26.65-.78.39-1.3.13-.39-.13-.78-.13-1.17-.13.26-.52-.65-2.08-1.17-2.08-.13,0-.26.13-.39.13-.13.39-.13.78-.52,1.04-.26.26-.52.52-.91.78-.13-.13-.26-.26-.26-.39-.26-.26-.26-.91-.78-.52-.52.39.13.52.26.78.26.78,0,1.69-.26,2.34-.52.78-.52,1.56-.39,2.47.65-.26.91-1.04,1.69-1.04-.26.91-.13,1.56,1.04,1.56-.52-1.95.78-4.55,3.12-4.16l-.78,2.21c-.52-.26-.39-.78-.65-1.04-.78.78-1.43,1.56-.26,2.47.26.13,0,.39-.13.65-.91,2.21-2.21,4.29-3.51,6.37-.65.91-1.3,1.69-.65,2.99.13.26,0,.78-.26,1.04-1.17,1.17-.91,2.99-1.69,4.29-.91,1.56.13,2.73.26,4.16.13,1.82.39,1.69,2.08,1.04,2.21-.78,4.42-1.69,6.76-2.47,1.17-.52,1.95-1.69,2.99-2.47,1.3-.91,2.99-1.56,4.16-2.73.13,0,.26,0,.39-.13q1.17-.65,1.95,0l.13-.13c-.78-1.04-.26-1.43.39-2.34,1.17-1.56,2.73-2.47,3.9-3.9.65-.65,1.56-.91,2.34-1.43s1.04.13.91.91c1.17.26,2.08.13,2.6-1.17,0-.13.13-.26.39-.39,2.99-1.82,5.07-4.55,7.67-6.76.13-.26.39-.39,1.04-.39-4.42,5.46-10.14,9.1-14.69,14.04.52.13,1.17.13,1.17.91,0,.26,0,.52-.13.52-1.82.65-1.95,2.99-3.77,3.51-.26.13-.39.39-.26.65s.39.26.52.26c.65,0,.91-.52,1.43-.91.26-.26.65-.39,1.17-.52-.78,1.04-1.82,1.69-2.86,2.47-1.95,1.43-4.03,2.86-6.11,4.29-1.43,1.04-3.12,1.56-4.68,2.08-1.56.52-2.73,1.69-4.29,1.95-.78,1.95-2.34.65-3.51.91-1.3.26-2.47-.65-3.77-1.17ZM302.22,356.14c-1.04.78-.78,2.21-1.3,3.25.91-.91,1.17-2.08,1.3-3.25ZM302.09,366.8s-.13-.13-.13-.26l-.26.26c0,.13.13.26.26.26,0,0,.13-.13.13-.26ZM305.08,358.74c-.26-.26-2.21,0-2.86.78,1.04-.39,1.43,0,1.69.52.26.26.39,1.04.91.39.39-.39.91-1.04.26-1.69ZM303.39,354.06c.13-.13.13-.39,0-.65-.26,0-.39.13-.52.26-.13.39-.65.78-.26,1.3,0,.13.13.13.26.13.52-.13.26-.65.52-1.04ZM304.17,362.12c.26-.13.78-.39.26-.65-.39-.39-.91-.26-1.04.13-.26.78-.52,1.69-.39,2.86.65-.91.39-1.95,1.17-2.34ZM320.55,321.55c-1.04.39-1.43,1.04-1.82,1.69-.91,1.3-2.6,4.29-3.51,5.59-1.04,1.17-1.56,2.6-2.21,3.9-3.51,6.5-4.55,9.36-6.24,11.7-.65.91-1.17,1.82-1.17,2.99,0,.65-.26,1.04-.65,1.43-1.04,1.04-1.04,2.34-1.04,3.77,4.42-8.58,12.22-22.36,16.64-31.07ZM304.56,355.49c-.13-.13-.13-.26-.39-.26-.13,0-.26.13-.26.26.13.26.13.39.39.26.13,0,.26-.13.26-.26ZM305.86,356.27c.26-.13.39-.26.26-.65h-.13c-.26.13-.13.39-.13.65-.52.13-.91.26-1.17.65-.13.52,0,.91.52.78.78-.13,1.04-.78.65-1.43ZM305.86,352.24c0-.26,0-.39-.26-.39-.13,0-.26.13-.26.13,0,.26,0,.39.13.52.26,0,.39-.13.39-.26ZM306.51,360.3c-.91.26-.26,1.04-.52,1.43.26-.39.65-.78.52-1.43ZM307.42,353.54c0-.39.13-.91-.52-.91-.52.13-.91.39-.78.91,0,.52.13,1.17.78,1.04.52,0,.52-.52.52-1.04ZM307.42,349.64c0-.26-.13-.39-.39-.39s-.39.13-.39.39.13.39.39.39c.13,0,.26-.13.39-.39ZM307.94,351.72c0-.13-.13-.26-.26-.39-.13-.13-.26,0-.39.39,0,0,.13.13.26.13.26,0,.39,0,.39-.13ZM309.5,353.67c0-.13-.13-.39-.26-.26-.52.26-.52.78-.65,1.17,0,.13,0,.26-.13.52.91-.26.91-.91,1.04-1.43ZM310.15,352.24c-.26-.39-.52-.52-.78-.39-.13,0-.26.26-.13.39.26.13.52.26.91,0ZM310.93,353.67c0-.13-.13-.26-.39-.39-.13.13-.26.26-.26.39,0,.26.26.39.52.39.13,0,.13-.26.13-.39ZM311.32,346.26c0-.26.26-.39.52-.39s.39.26.39.39c-.13.39-.26.52-.52.52s-.39-.26-.39-.52ZM315.88,338.98c0-.39-.26-.52-.52-.52s-.39.13-.39.39.13.52.39.52.52-.13.52-.39ZM316.13,342.23c-.39.65-.39,1.17-1.04,1.43,0-.65,0-1.3,1.04-1.43ZM317.69,338.07c0-.52,1.3-4.55,1.04-4.94-.52.13-2.73,4.29-2.86,4.68,0,.39.26.91.78.78.39-.13,1.04,0,1.04-.52ZM318.08,338.98c0,.13-.13.26-.13.39.13.26.13.52.52.26.13-.13-.13-.39-.39-.65ZM322.76,332.61c-.39-1.17-1.3-1.43-1.56-2.08-.26-.39-.78-.91-1.43-.39-.91.65-.65,1.43-.26,2.34.52.78.78.39,1.17.26.65-.26,1.17-.78,2.08-.13ZM321.21,367.58c0-.26-.26-.26-.52-.26-.13,0-.39.13-.26.26,0,.26.13.39.39.39s.39-.13.39-.39ZM322.63,366.02c-.26,0-.52.13-.52.39,0,.78.52.39.91.52,0-.39.26-.78-.39-.91ZM324.07,315.96c.65-.78,1.17-1.69,1.43-2.73.13,0,.39,0,.39-.26,0-.13-.13-.13-.13-.13-.26,0-.26.26-.26.39-.65.78-1.56,1.43-2.08,2.34-.13.26-.39.52-.13.65.39.39.65,0,.78-.26ZM326.28,366.93c.13,0,.26,0,.26-.26l-.26.26c-.26-.13-.13-.78-.65-.39-.26.13-.26.39,0,.52.26.39.52.13.65-.13ZM328.09,361.99c.13-.91,1.43-.65,1.56-1.43.52.26.91.26.91-.26.13-.52-.26-.91-.65-1.17-.39-.26-1.04,0-1.04.39-.26.91-.91,1.3-1.56,1.82-.26.13-.39.26-.26.65,0,.26.26.52.65.52.26.13.26-.26.39-.52ZM332.39,364.46l-.91.78c0-.65.39-.91.91-.78ZM333.95,354.71c0-.52.13-.78.52-.78.26,0,.52.13.39.39-.26.26-.13.65-.52.65-.39.13-.26-.26-.39-.26Z"/>
    <path class="st0" d="M341.22,377.98c-.91-.13-1.3-.52-1.43-1.43-.13-.52.65-.26.65-.65-.39-.26-.52-.78-.65-1.3-.13-.39-.26-.52-.65-.65-.91-.26-1.17-1.17-1.04-1.95l.52-1.3c.65-1.04,1.04-2.34,1.3-3.38.26-.91.65-1.69,1.04-2.6.52-1.3,1.3-2.73,1.43-4.42.26-.78.78-1.43,1.3-2.08.78-1.82,1.82-3.51,2.6-5.33l3.38-7.02c.39-.52.78-1.17,1.3-1.82.26-.52.52-1.04.52-1.69-.13-.13,0-.39-.13-.52l3.64-7.93c1.43-1.3,1.95-3.25,3.51-4.55,1.04-.91.65-1.95,1.43-2.99,1.04-1.3.39-.39.91-2.08.78-1.3,1.56-2.34,2.21-3.51.65-1.17,1.3-2.08,1.56-3.25l.13-.39c1.17-.78,1.82-2.08,2.21-3.64.52-1.82,2.47-2.21,4.29-1.69.65.13,1.3-.13,1.95.39,1.04.78,2.6.52,3.64,1.3.91.65,2.08,2.21,1.95,3.12-.13,1.56-.78,2.73-1.82,3.77l-3.51,3.9c-1.17,1.17-.26.13-1.43,1.17-.65.78-.91,1.95-1.69,2.6-.39.39-.65.91-1.04,1.3-.52.39-.91,1.17-1.04,1.82-.52.91-.91,1.82-1.56,2.6-.52.39-.52,1.17-1.17,1.56-.91.78-1.04,1.95-1.82,2.73-.26.26-.39.65-1.17.26.52.65.65,1.04,0,1.17-.52,0-.39.65-.65.91-.26.39-.26.78-.91.52-.39-.26-1.04,0-1.56-.13v.26c-.39-.13-.52.26-.78.52-.26-.26-.52-.52-.65-.78-.13-.13-.26-.39-.52-.13-.26.26-.26.52-.13.65.13.13.26.26.52.39.52.13.52.39.39.78,0,.13-.13.39,0,.52.26,0,.39-.13.52-.26,0-.13-.13-.52.26-.39.39-.39.52-.78.39-1.3.39.13.65.26.39.78,0,.26.26.65.26.91h.13c0,.13-.13,0-.13.13-.91,0-1.04.26-.26,1.17-.78-.26-.91.26-1.3.91.13-.65-1.43-.39-.13-1.56-.78.13-1.17.65-1.56.91-.13-.26,0-.52,0-.78-.65-.39-1.17.26-1.56.65-.26-.39-.26-1.3-.78-.78-.65.78-1.17,1.69-1.56,2.6.52-.13.78-.26,1.04-.91s.65-.91,1.3-.39c.26.13.39.13.39.13.13.13.13.39.39.26v-.13c-.13-.13-.26-.13-.39-.13.26-.52.78-.26,1.17-.52,0,.78.65.65,1.17.91-.78.26-.26.91-.52,1.43-.26.39-.52,1.04-.65,1.43-.26.26-.52.65-.26.78.39.26.52-.13.65-.26q.13,0,.39-.13c-.13,1.04-.39,1.82-.78,2.6-.78,1.17-1.69,2.08-2.08,3.25-.26.26-.26.52-.65.65-1.04-.13-1.3.26-1.3,1.3,0,.39.13,1.3-.52,1.69-.13,0-.39,0-.39.13.13.78-.13,1.43-.91,1.82.39,1.17-.26,2.08-.65,3.12-.52.78-1.17,1.69-1.43,2.73-.26.65-.52,1.17-.65,1.82-.26.52-.52.78-1.17.52-.13,0-.26-.13-.52.13,0,.26.26.39.39.52.52,1.17.26,2.47-.13,3.64,0,.13-.13.26-.13.39,1.56-.78,3.51-1.3,4.94-2.21,2.08-1.04,3.64-2.34,5.59-3.25,1.17-.78,2.73-2.08,3.9-2.6,1.82-1.3,4.03-3.38,5.85-4.68,1.95-1.3,2.99-2.6,4.94-4.03,1.04-1.3,2.21-2.34,3.25-3.38.26-.13.52-.39.65-.26-.13.52-.65.78-.91,1.3l-.39.13c-.26.39-.78.65-.39,1.17.26.39.78.26,1.17-.13.13-.13.26-.13.39.13.13.13.13.26,0,.39-1.3.78-1.82,1.82-2.73,2.86-1.17,1.3-2.34,2.6-3.77,3.77-1.04.65-1.82,1.69-2.73,2.47-1.04.91-3.12,2.73-4.29,3.51-.65.52-1.17,1.43-2.08,1.82-1.56.52-2.86,1.82-4.16,2.73-2.08,1.3-4.29,2.73-6.37,3.77-1.56.65-3.12,1.56-4.55,1.95-.91.39-2.08.65-2.86,0-.39-.13-.65-.26-.91-.26ZM341.61,369.66c.13,0,.26-.13.26-.26.13-.26.26-.78,0-.91-.39-.26-.26.26-.39.39l-.39.39c-.13.26-.39.65-.13.91.26.26.52-.26.65-.52ZM342.52,371.22c0-.13.26-.39.13-.65-.13-.13-.26-.13-.39-.13-.13.52-.39.91-.52,1.43-.13.13,0,.26.13.26.52-.13.52-.52.65-.91ZM342.26,367.58c.39-.65.65-1.43,1.04-2.21.13-.26.13-.78.78-.26.39.52.78.52,1.04-.26,0-.39,0-.78.13-1.17l-.39.39c-.39.91-.52.91-1.3.13l.26-.26c.26,0,.52-.13.26-.39-.13-.13-.39-.13-.52,0-.91,1.17-1.56,2.34-1.69,3.9,0,.13-.13.39.13.39s.26-.13.26-.26ZM343.17,368.49c-.39.26-.78.52-.65,1.17,0,.13.26.26.39.26.52-.39.26-.78.26-1.43ZM343.82,371.09c.52-.26.52-.78.65-1.43-.39.39-.78.65-.91,1.04-.13.13-.26.26-.13.52.13.13.39,0,.39-.13ZM344.34,366.54v-.39c-.13-.13-.26-.13-.39,0-.39.39-.91.78-.26,1.56l.65-1.17ZM344.34,372.91c-.26,0-.39-.13-.78.26.52.13.78.26.78-.26ZM344.21,372.26c.39-.13.65-.26.39-.65l-.39.65.26.52c0-.26,0-.39-.26-.52ZM344.86,362.25c.39-1.04.78-1.95,1.3-2.86q.13-.13.13-.26c-.13-.13-.26-.13-.39-.13-.26.26-.39.39-.52.65-.13.78-.52,1.43-.78,1.95-.13.26-.39.65-.13.91.26.13.39,0,.39-.26ZM345.9,362.64c-.13-.13-.52.39-.78.78l.13.13c.39-.13.91-.26.65-.91ZM346.68,367.58c-.26-.78.39-1.69.52-1.95.78-.65.13-.91-.26-1.3-.13-.13-.39-.26-.13-.52.26-.13.26.13.39.26.39.39.65.13.91,0,.39-.13.52-.65.26-.78-.13-.26-.52-.39-.26-.78.13-.26.52-.13.91-.13.39.13.91.26.52-.52h.13c-.39,0-1.3-.26-1.04-.52.13-.65-.13-1.17-.13-1.69-.26,0-.52.13-.65-.13-.13-.26-.13-.65.26-.78.13,0,.13-.39-.13-.65-.13-.13-.39,0-.52.26-.26.13-.26.39-.52.52-.26.52-.26,1.04.39,1.3.13.13.39.26.26.52-.26.52-.13,1.43-.65,1.95-.91.78-.65,1.95-1.43,2.6-.13.13-.13.65.13,1.04.39,0,.26-.78.91-.78-.26,1.17-.52,2.08-.91,2.99.65-.26,1.17-.78,1.04-.91ZM347.2,355.1c.13-.13.13-.39,0-.52-.13-.13-.39,0-.65.13-.39.39-.26.91,0,1.3l.65-.91ZM347.33,356.92c0-.13-.13-.26-.26-.13-.39.26-.39.65-.13,1.04.26-.39.52-.52.39-.91ZM347.85,355.23c-.39.39-.91.39-.78.91,0,.13.13.39.39.26.39-.13.39-.52.39-1.17ZM348.63,357.44c-.13-.13-.39-.26-.52-.13,0,.13.13.26.13.26.13.13.39.26.39-.13ZM348.24,354.71c.26,0,.65-.13.91,0,.65.78,1.17,0,1.82-.13-.65-.26-.39-.78.13-1.04-.13-.39,0-.65.26-.91.26-.13.52-.39.52-.65.13-1.17.52-1.43,1.56-1.3-.52.26-.52.78-.52,1.3-.13.52-.26.78-.65.91,0,.13.13.26.13.39v.26c0,.13-.26.26-.13.39.13.26.26.26.39.13.13-.13.13-.26,0-.39,0-.13-.26-.26-.26-.39.65,0,1.04-.52.91-1.04.13-.65.65-1.04,1.04-1.56.65-.39.65-.78.39-1.43-.78,0-.78.91-1.56.78,0-.39.65-.13.39-.65,0-.13-.13-.39-.26-.52-.39,0-.65.26-.78.52l-.13.13c-.39.91-.78,1.95-1.69,2.73-.39.52-.52.91-.65,1.43-.13.65-.39,1.17-1.17.78-.39-.26-.52,0-.65.26,0,.13-.13.13,0,.26v-.26ZM349.28,350.81c-.65.13-.91.65-1.04,1.3.78-.13.91-.78,1.04-1.3ZM349.54,359c.13-.65.65-.52,1.17-.65.78.13.91-.78.91-1.17.26-.52-.39-.26-.52-.52v-.13c.78-.13,1.04-.65,1.3-1.04.13-.13,0-.39-.13-.65,0-.26-.39-.39-.52-.26-.52.39-1.17.78-1.43,1.69-.13.39-.39,1.3.78,1.43-1.3,0-1.82.91-2.6,1.56.39.13,1.04.13,1.04-.26ZM349.28,355.49l-.26-.13c-.39.26-.26.65-.26,1.17.39-.39.65-.65.52-1.04ZM350.06,351.59c.39-.26.39-.52.52-.91-.52.13-.52.52-.52.91-.13.39-.65.39-.52.91.52,0,.65-.39.52-.91ZM350.84,342.1c.13-.13.26-.26.52-.26l-.65,1.17c.13-.26,0-.65.13-.91ZM351.36,347.3c.52-.78.65-1.56,1.43-2.34.13-.13,0-.39-.13-.52-.26-.13-.39,0-.52.13-.26.91-.52,1.69-1.17,2.47,0,.13,0,.39.26.39,0,0,.13,0,.13-.13ZM352.01,347.69c.26,0,.65,0,.78-.13-.13-.26.26-.52,0-1.04l-.78,1.17c-.39.39-.52.91-.52,1.43.52-.26,1.04-.52.52-1.43ZM352.14,341.58c.13-.78.78-1.3,1.43-1.95v-.39c.13-.13,0-.26-.13-.26q-.13-.13-.13,0c-.65.78-1.17,1.56-1.69,2.47-.13.13.13.26.26.39.13.13.26-.13.26-.26ZM354.48,347.43c0-.26-.13-.52-.39-.39s-.65.39-.65.78c0,.26.13.52.39.52.39-.39.52-.52.65-.91ZM354.48,337.16c-.13-.13-.52-.13-.52-.13-.65.39.13.65,0,1.04.26-.26.52-.52.52-.91ZM354.35,341.19c.13,0,.52,0,.39-.39-.39-.13-.39.26-.39.39-.26.13-.52.52-.52,1.04.52-.39.52-.78.52-1.04ZM355.26,335.99c-.52-.13-.52.26-.65.65.52.13.52-.13.65-.65ZM355.52,339.5c0-.13-.13-.13-.26-.13,0,0-.13.13-.26.13.13.13.13.26.26.26s.13-.13.26-.26ZM355.78,341.97c0-.52.13-1.04.52-1.3.52-.52.78-1.04,1.17-1.56-.26-.26-.39,0-.52,0-.65.13-.52.91-.78,1.17-.65.39-.78,1.04-1.04,1.56-.13.13-.13.39.13.39s.39,0,.52-.26ZM355.91,350.42c0-.26,0-.52-.39-.52s-.13.26-.13.52c-.13.26-.26.52.13.52.13,0,.39-.26.39-.52ZM357.08,341.84v-.39h-.13q0,.13-.13.26c0,.13-.13.26-.13.26-.13.26-.39.52,0,.65.39,0,.26-.52.39-.78ZM359.42,339.5c0-.13.13-.13.26,0,.52.13.39-.39.52-.52.13-.26,0-.39-.13-.39-.26.39-.91-.26-1.17.13-.13.13-.52.39-.13.78.13.26.39.78.65,0ZM360.72,337.16c-.26-.13-.39.13-.39.26-.13.13,0,.26.13.26.26,0,.26-.13.26-.52ZM361.5,337.81h-.39c-.13,0-.26,0-.26.13.13.26.26.26.39.13.13,0,.26-.13.26-.26ZM363.84,336.9c0-.13,0-.65-.39-.65-.39-.13-.39.26-.39.52s.13.52.52.65c.26.13.26-.26.26-.52ZM373.46,356.92c0-.52.65-.65.65-1.3-.65,0-1.17.52-1.17,1.04,0,.13.26.26.26.26h.26ZM376.84,351.2c0,.52-.13.78-.65,1.04.26-.65.39-.91.65-1.04ZM376.97,353.02c.13-.26.26-.39.52-.52.26,0,.26.26.26.39,0,.26-.13.52-.39.52-.13-.13-.26-.13-.39-.39ZM378.27,351.72c0,.26.13.65-.39.65-.13-.39.39-.39.39-.65ZM379.57,350.68q0,.65-.52,1.04c.13-.39.13-.78.52-1.04ZM383.6,293.86c.13-.13,0-.91,0-1.17.78-2.86,2.21-5.46,3.25-8.06,1.17-2.99,2.73-5.85,4.03-8.71l1.17-2.86c.39-.91,1.43-1.04,2.34-1.04,1.17.39,2.08.91,3.25.52h.13c.39,1.17,1.56.52,2.08.52s.91.39,1.3.78c.26.52.65.91,1.17,1.43.13.26.39.52.26.65-.52,1.69-.65,3.25-2.08,4.42-1.17.65-2.21,1.82-2.99,3.38-.52.91-1.43,1.17-1.69,2.08-.91,1.43-2.6,2.21-3.38,3.77-.39.78-1.69.91-2.34,1.56-.39.26-.52.26-.78.65,0,.26-.13.39-.39.39-1.82.39-2.47,1.95-3.38,3.38-.13,0-.13.13-.26.26,0,0-.26,0-.39.13-.13-.78.39-1.17.39-1.95-1.04.65-1.95,1.17-2.47,2.6-.13.26-.26.52-.65.52.78-1.04.52-2.34,1.43-3.25ZM384.25,345.09c.13.26.26.39-.13.65-.13-.39,0-.52.13-.65ZM384.9,344.44c-.13.26-.26.52-.65.65.26-.39.26-.52.65-.65ZM389.71,337.94c-.13.39-.26.65-.78.78.13-.52.26-.78.78-.78ZM391.4,333.91c.26-.13.39-.65.65-.26.39.39-.13.39-.26.52-.52.78-.65,1.82-1.43,2.6-.13.26-.26.52-.78.52.91-1.04,1.04-2.34,1.82-3.38ZM392.44,332.61c.13-.52.26-.91.91-1.04-.13.52-.65.65-.39,1.17,0,.13-.13.26-.39.26-.13-.13-.13-.26-.13-.39Z"/>
    <path class="st0" d="M427.67,334.43c-.52.78-.78,1.82-1.3,2.47-.65,1.43-1.3,2.86-2.34,4.03-.65.78-.78,1.95-1.3,2.86-.39.52-.65.65-1.04.65,0,.91-.39,1.56-.91,2.21-.26.26-.39.52-.39.91-.13,1.17-1.04,1.56-1.82,1.95q.65.91,1.56-.26c1.17-1.82,2.6-3.77,4.16-5.46.13.52,0,.78-.52,1.17-.52.52-.65,1.3-1.17,1.95-1.43,1.95-3.12,3.64-4.03,5.72-.52.78-1.04,1.17-1.56,1.82,0,.26.39,0,.39.39-1.04,0-1.17,1.04-1.3,1.43-1.17,2.99-.26.13-1.17,2.99-.52,1.56-1.43,2.99-1.82,4.55-.26,1.04-.78,1.69-1.3,2.73-.13.39-.39.91-1.17.52-.78-.13-1.43,0-2.21-.13-1.95-.13-2.86-.65-3.51-2.6-.13-.65-.13-1.69-1.3-.78-.13.13-.26-.39-.26-.52-.39-.91,0-1.69.39-2.34.78-1.17,1.3-2.34,1.95-3.38.52-1.17.91-2.34,1.56-3.38.65-1.04,1.3-2.21,1.95-3.51,1.04-1.82,1.95-3.9,3.12-5.85,1.04-2.21,2.21-4.42,3.38-6.63.78-2.47,1.69-4.68,3.38-6.76.91-1.17,1.3-2.6,1.82-4.03.91-2.08,1.95-4.03,2.73-6.11.65-2.08,1.3-4.29,1.82-6.37.13-.39,0-.91-.65-.39-.52.13-.78.39-1.3.52-.39.13-.78,1.04-1.56.26-.26-.26-.78.39-1.17.91-1.04.91-1.82,2.21-3.12,3.25-.13.13-.26.26-.39.52,0,0,0,.26.13.39,0,.26.13,0,.26,0,.26-.39.39-.65,1.04-.65-1.17,1.17-2.08,2.47-3.25,3.51.39-1.04,1.17-1.56,1.69-2.47-1.17.13-1.56.65-2.08,1.56-.26.39-.39.91-.65,1.43-.26.39-.65.13-1.04-.26,0,.26-.13.26-.13.39-.13,1.04-.52,1.82-1.69,2.21-.39.13-.39.91-.78,1.56-.26.13-.26.65-.65.13-.13-.13-.26.13-.26.26.13.78-.13,1.04-.65,1.17-.65.13-.65.78-.65,1.3-.26.39.26,0,.39.39-1.04.13-1.95.52-2.08,1.69-.78.52-1.95,1.95-2.21,2.73.39-.39.78-.65,1.04-1.17-.26.78-.65,1.3-1.43,1.56-.52,0,.13.52-.13.78-.78.65-1.04,2.08-2.34,2.6-.26,0-.26.13-.26.39.13.39-.26.52-.65.91-.26-.13,0-.39,0-.65-.65.65-1.56,1.3-1.43,2.47,0,.26-.26.39-.39.65-1.56,2.47-3.25,4.68-4.81,7.15-1.95,3.12-4.03,5.98-5.59,8.84-.78,1.17-1.04,2.6-1.56,3.9-.78,2.08-2.08,4.03-3.12,5.85-.26.39-.39.65-.39.91-.26.91-.39,1.56-1.43,2.21-.52.13-.91.65-1.04,1.43,0,.26-.39.52-.65.52-1.3-.26-2.6.26-3.9-.26-.78-.52-1.95-.91-2.08-2.08-.13-.26-.13-.52-.26-.52-.65-.39-.65-.78-.13-1.04.39-.39.39-.78.13-1.3,0-.39-.13-.52-.65-.13-.26.13-.39.13-.52,0-.26-.39-.39-.65-.13-.78.26-.52.52-1.04,1.3-1.17,1.17,0,1.82-.39,2.73-1.17.13-.26.26-.39.52-.39.13-.13.39-.26.39-.52,0-1.69,1.56-2.86,1.95-4.42,1.69-.65,1.3-2.73,2.34-3.64h.39c0,.13-.26.26,0,.26.13-.13,0-.13,0-.26,0-.26-.26-.78-.52-.91,0-.39.13-.78,0-1.43-.13-.13,0-.26.13-.26.91.26,1.04-.26,1.43-.39s.52-.65.39-.91c-.52-.65.13-1.3.65-1.69.39-.39.78-1.17.78-1.69-.26-.65.39-.52.52-1.04.52-.91,1.04-1.95,1.82-2.73.13-.26.26-.65.52-1.04.13-.78.39-1.56.65-2.47.39-.91,1.43-1.95,1.3-3.25,0-.26.52-.39.65-.65.52-1.04.78-2.21.91-3.12.13-.78.78-1.17.91-1.82.13-.39.13-.65,0-.78-.13-.13-.39-.26-.65-.13-.26.13-.13.39-.26.52,0,.91-.65,1.3-1.04,2.08-.52,1.04-4.29,7.15-4.81,8.58-.39,1.04-.78,2.21-1.3,3.12-.52.52-.52,1.17-1.17,1.43-.39.26-.65.91-.91,1.56-.39-.26-.26-.65,0-.78.78-1.56,1.17-3.25,2.34-4.68.52-.91.65-1.82,1.04-2.6.91-1.56,4.29-7.67,4.29-9.36l.26-.39c1.43-1.17,1.82-3.12,2.6-4.68.26-.78,1.04-1.56,1.17-2.21.13-1.04.39-1.95.65-2.86.13-.65.52-1.04.78-1.69.26-.39.13-.65-.13-.91-.52-.65-.65-.26-1.04,0-2.86.91-4.42.78-2.99-.65,1.17-.65,2.47-1.3,3.12-2.34.13-.52.78-.39,1.04-.39.91-.13,2.08-.39,3.25,0,.39.52,1.04.78,1.69.65.52-.13.65.39,1.04.65.26.13.39.65.65.65,1.3-.26,1.69.78,2.34,1.56.91.78.39,1.95.13,2.73-.39.78-.39,1.43-.52,2.21s-.26,1.56-.78,2.21c-.39.78-.65,1.56-.91,2.47-.65,1.17-1.04,2.6-1.95,3.64-1.17,2.08-1.69,4.16-2.86,5.85-.65,1.3-1.17,2.6-1.56,3.9-.52.26-.78.52-1.17,1.17.65-.26,1.04-.65,1.17-1.17.13,0,.39-.26.39,0,1.04.65,1.17-.26,1.43-.78.91-.78,1.95-1.82,2.47-2.86.65-.78,1.56-1.69,2.08-2.86.52-.78,1.17-1.69,2.08-2.34.91-1.04,1.56-1.95,2.34-2.86.78-1.17,2.21-2.08,2.73-3.51,1.17-.13.78-1.3,1.69-1.82.26-.39.52-.65,1.3-.91-.13-.13-.13-.39,0-.52.78-1.17,1.82-2.47,2.99-3.38.39-.52.65-1.3,1.43-1.82,1.17-.52,1.69-1.82,2.6-2.86.91-.78,2.08-1.95,3.12-2.6.52-.65.39-1.17,1.17-1.43.65-.65,1.43-.65,2.08-.65h.13c1.69-.26,2.6,1.04,3.77,1.82.26.39.39.52.78.52.65,0,1.04.26,1.17.78.26.52.39.65.78.78.65.26.78.78.78,1.56.26,1.17.26,1.95.26,3.12-.26,1.56-1.04,2.99-1.56,4.55-.52,1.95-1.3,3.64-2.08,5.33-.78,1.82-1.69,3.64-2.47,5.2ZM374.5,364.98v-.39q.13,0,.26-.13v.26c0,.26-.13.26-.26.26ZM375.41,363.42c0-.39,0-.52.26-.52,0,0,.13,0,.13.13s-.13.39-.39.39ZM377.49,358.61c-.13-.39.13-.52.13-.78.13-.26.26-.52.65-.39s.26.39,0,.65c-.39,0-.39.78-.78.52ZM385.94,351.85c-.78.52-1.3,1.43-1.69,2.73,1.17-.91,1.56-1.56,1.69-2.73ZM388.02,347.43c-1.43.91-1.56,1.69-1.04,2.86.65-.65,1.3-2.21,1.04-2.86ZM390.1,344.44q-.13-.13-.26-.13c-.39.26-.65.78-1.04,1.17.65-.13,1.04-.52,1.3-1.04ZM393.22,330.79q0-.13-.13-.13c-.13,0-.13.13-.13.39-.13,0,0,.13,0,.13.13,0,.26-.13.26-.39ZM394.65,343.92c-.13.52-.65.52-.65,1.17.52-.13.52-.65.65-1.17ZM401.15,336.12c-.39.52-.39.78-.78.78.13-.26.39-.39.78-.78ZM407,332.87s0-.26-.13-.52c.13,0,.26-.13.52-.13-.13.13-.13.65-.39.65ZM411.42,352.37c-1.04.65-1.17,1.04-1.17,1.95.52-.78.91-1.3,1.17-1.95ZM412.85,347.82c-1.04.91-1.56,1.82-1.56,3.25,0,.13-.13.52.26.65.26,0,.39-.26.39-.65,0-.52,0-1.3.39-1.43.78-.52.39-1.3.52-1.82ZM413.76,347.56c.39-.39.52-.78.78-1.3-.78.26-1.04.65-1.3,1.17,0,0,.13.13.13.26.13,0,.39,0,.39-.13ZM414.41,345.35c0,.13.13.13.26.13.26-.26.13-.52.13-.91-.26.39-.52.52-.39.78ZM417.01,342.1c-.39-.39-.78-.91-1.04-.91-.26-.13-.91.52-.52.91,0,.26.26.78.78.91.78,0,.39-.52.78-.91ZM417.79,340.41c-.13-.26,0-.78-.39-.39-.26.39-.39.65-.39,1.04l.78-.65ZM420,333.78c-.65.52-1.04.65-1.04.91-.26,1.3-1.3,1.95-1.56,3.12-.13.78.13.52.52.52-.13.52-.13.65-.13.78-.13.13-.13.26,0,.39.13,0,.26-.13.52-.13.26-.78.78-1.3.91-1.82.13-.78.26-1.04-.52-.78.13-.91,1.04-1.69,1.3-2.99ZM421.95,316.1c-1.17,1.04-2.21,2.21-3.38,3.38,0-.26.13-.39.26-.65.91-1.04,1.82-2.08,2.86-2.86.13,0,.13.13.26.13ZM423.38,314.28c-.52,0-.65.13-.65.39.39.13.52,0,.65-.39ZM424.29,343.79c.39-.39.65-1.17,1.3-1.56.26,1.3.13,1.43-1.3,1.56ZM465.63,350.68c-1.3,1.43-2.21,2.99-3.38,4.55-.39.78-1.04,1.3-1.69,1.69-.78,1.04-1.43,2.21-1.69,3.25-1.17.26-.91,1.3-1.3,1.95l-1.69,1.82c-.78.52-1.17,1.17-1.56,1.95-1.43,1.69-2.99,3.38-4.81,4.81-.78.78-1.04,1.56-1.82,2.34-1.04.52-1.82,1.3-2.6,1.95-1.04,1.17-2.21,1.95-3.51,2.6-1.56.52-2.99.78-4.94.78-.65-.13-1.56,0-2.08.26-.78.39-1.3.39-1.95,0-.26-.26-.78-.39-1.04.39-.26.39-1.04-.13-1.3-.65-.52-.26-1.04-.78-1.82-1.43l-.13-.13c.13-.78-.26-1.56-.91-2.08-.39-.39-.52-1.43-.78-2.34,0-.52.52-.78,1.04-1.17.26-.13.39-.52.26-.78,0-.78.13-1.56.52-2.34,1.04-2.86,2.47-5.72,3.9-8.45.39-.65.78-1.56,1.82-1.82.39-.13,0-.39.13-.91.78-1.69,1.82-3.51,2.86-5.2.65-1.69,1.82-3.51,2.21-5.46.13-.26.39-.52.78-.78.78-1.17,1.43-2.86,1.95-4.29,1.04-1.82,1.69-3.64,2.73-5.72.65-1.17,1.43-2.47,2.08-4.03.52-2.08,1.82-3.64,2.6-5.46.52-1.04.78-2.47.78-3.77-.13-.78-.91-1.17-1.69-.52-1.43,1.17-2.99,1.95-4.42,2.99-.52.52-1.04.78-1.82,1.3-.26.13-.39.13-.39.52,0,.26-.13.39-.26.39-1.56.39-1.95,2.08-3.12,2.86-.78.39-1.17.65-1.95.78.78-.91,1.82-1.69,2.6-2.47,1.43-1.3,2.86-2.6,4.29-3.77,1.17-1.04,2.08-2.08,2.73-3.38.13-.13.26-.13.39-.13.26,0,.39,0,.26-.13.52-1.3,1.69-2.08,2.86-2.34,1.04,0,2.47-.13,3.38.65,1.04.39,1.82.39,2.86.52.39,0,1.04.13,1.17.65.26.65.78.78,1.56,1.04,1.04.78,1.69,2.86.65,4.03-.52.78-.52,1.95-.78,2.99-.13.52-.13,1.04-.65,1.56-.91,1.3-.91,2.86-1.69,4.16-.39,1.43-1.43,2.73-1.95,4.03-.52,1.17-1.17,2.21-1.17,3.64,0,.52-.13,1.04-.39,1.43-2.08,2.08-2.86,4.68-4.03,7.15-.65,1.3-1.04,2.73-1.82,3.77-.65.91-1.43,1.43-1.43,2.47,0,.52-.39,1.3-.52,1.82-.26,1.3-1.43,2.21-1.82,3.25-.52,1.56-1.3,2.99-1.95,4.55-.26.52-.65.91-.78,1.43-.65,1.3-1.43,2.73-1.95,4.16-.52.39-.91,1.04-1.17,1.69-.26.39-.78,1.17-.26,1.56.26.26.78,0,1.43-.13,1.56-.39,2.73-1.56,3.9-2.6,1.69-1.3,3.25-2.6,4.81-3.9,2.08-1.69,4.16-3.77,5.98-5.72.26-.39.91-.91,1.43-.39.13,0,.26,0,.26-.13,0-.26,0-.39-.13-.39-.52,0-.39-.39-.13-.65.39-.39,1.04-1.17,1.56-1.56.26-.26.78-1.04,1.17-.26.13,0,.26,0,.26-.13.26-1.04,1.43-1.3,1.82-2.34.13-.13,0-.26-.13-.39,1.43-.26,2.34-1.56,2.99-2.73.91-.65,1.56-1.56,2.34-2.34.26-.39.65-.52,1.04-.52ZM433.39,333.52c.39-.26.78-.39,1.04,0,.13.13-.13.26-.39.39-1.43,1.56-3.12,2.99-4.29,4.68-.91.91-1.43,1.95-2.6,2.6-.26.26-.52.26-.52-.13.65-.13.52-.65.78-1.3,1.17-1.43,2.47-2.47,3.77-3.77.65-.91,1.56-1.56,2.21-2.47ZM434.56,333c-.13-.13,0-.65.26-.78.65-.26.91-.65,1.56-1.04-.26.78-.52,1.17-.91,1.82-.39.13-.65.26-.91,0ZM434.56,358.22s0,.13.13.13.26-.13.26-.26c0,0,0-.13-.13-.13l-.26.26ZM444.96,354.97c-.26.13-.26.26-.26.91.26-.52.39-.65.26-.91ZM456.14,360.17c-.26,0-.52.26-.65.65,0,.13.13.13.26.13.26,0,.39-.26.39-.78ZM465.89,349.77c.39.52-.26.65-.26.91-.13-.26,0-.52.26-.91ZM467.06,347.56c0,.13-.13.13-.39.13,0,0-.13-.13-.13-.26s.13-.13.39-.13c.13,0,.13.13.13.26ZM469.27,344.05c-.91.52-.78,1.82-1.82,2.21-.13.26-.26.52-.52.39-.26-.13.13-.39.13-.65.65-1.3,1.69-2.21,2.47-3.64.26.78-.13,1.56-.26,1.69Z"/>
    <path class="st0" d="M466.67,370.7c-2.47-2.34-4.03-5.2-4.94-8.32-.26-.65-.13-1.56-.52-2.08-1.17-1.95-.52-3.9-.26-5.72.26-1.69.65-3.25,1.3-5.07v-.13c1.04-1.04,1.04-4.55,1.69-5.59.13-.26.13-.52.26-.65,2.6-4.68,3.25-6.89,4.55-8.58.78-.91,1.69-1.82,1.95-2.99.13-.39.39-.78.91-1.04.13,0,.13-.13.13-.26.91-2.47,2.99-4.29,4.68-6.37,1.3-1.69,2.99-3.25,4.42-4.94.78-1.04,1.82-1.82,2.6-2.99.78-.78,1.82-1.3,2.73-2.21,1.17-1.04,2.47-1.95,3.9-2.73,0,0,.26-.13.39,0,1.95-.39,4.03-.91,6.11-.26,1.17.39,2.6.26,3.51.91.39.26.65.13.91-.26,0-.13.13-.13.13-.26.13.78.78,1.3,1.43,1.56.39.13.52.26.91.26-.13.26-.13.39.13.65,1.04,1.17,3.12,2.86,2.73,4.29-.39,1.43-1.43,2.86-2.34,4.16-.26.39-.52.52-.91.65-.78.26-.91.65-.65,1.17q.13.13.26.13c-.91.26-1.43.91-1.69,1.56,0-.13-.13-.26-.26-.39,0-.39-.26-.26-.39,0l-.91.39c-.65.91-1.56,1.17-2.21,1.95-.65.65-1.56,1.69-2.73,1.69-.39,0-.65,0-.65.39-.39.78-.91.65-1.56,1.17,1.56.52,2.99.52,4.55.65,1.56.13,3.12.78,4.68.39-1.17.78-2.6.65-3.9.78-1.04.13-2.21,0-3.12.78-.52.26-1.17.13-1.69.13-1.56-.13-5.59,0-7.28,0-.39,0-1.04-.26-1.56-.13-.52.13-1.04,0-1.56.26-.26.26-.91.26-1.3,0-.52-.26-1.04-.39-1.56-.13-.65.13-1.3.52-2.21.52-.52,0-.39.39-.13.52.52.39.13.65,0,1.04-.78.91-1.43,1.82-1.82,2.86-.13,0-.13.13-1.56,3.38-.78.78-1.3,1.69-1.69,2.73q-.52.91-1.82.78c.26.26.65.13.91.65,0,.26-.13.39-.39.65-.13.39-.39.39-.65.39-.52-.13-.91,1.95-1.43,2.34v.13c.39.39,1.17,0,1.04.39-.13.65-.52,1.17-.78,1.69-.39.78-.65,1.43-.65,2.08-.26.39-.52.78-.78.91-.13.26-.91.52-.13.91,0,0,.13.26,0,.39-.52.39-.52,1.3-.65,1.82-.13.65-.13,1.43-.52,2.08,0,.13.13.13.26.26.26.13.26.52.26.65-.52.52-.13,1.04-.13,1.56,0,.13,0,.52-.13.52-.26.39,0,.52.26.78.39.52.26,1.17.52,1.69.26.39.39.91.65,1.17.26.39.65.78.65,1.56.13.26,1.04.78,1.43,1.17,1.82.78,3.77,1.17,5.59,1.04,1.43,0,2.86-.78,4.29-1.04,1.3-.26,2.6-.91,3.77-1.43,1.3-.65,2.47-.65,3.64-1.17.52-.13,1.17-.52,1.69-.78.39-.26.91.13,1.17-.26.39.65-.52,1.17-.39,1.95,0,.13-.52-.13-.91.13.39.39,1.04.78,0,.91-.13.52.26.52.52.39.78-.39,1.69-.39,2.08-1.04h.13c1.3-.26,1.95-1.69,3.25-1.82.65-.26.91-.78.13-1.3-.26-.26-.26-.52,0-1.04.65-1.56,1.04-1.82,2.6-1.43.52.13,1.56-.13,2.08-.78.26-.52,1.17-.91.65-1.69,1.04.39,1.56,0,2.34-.65,1.43-1.17,2.99-4.03,4.03-5.46,1.17-1.17,2.34-2.34,3.64-3.38.91-.78,2.21-1.56,3.12-2.21.39-.26.52.13.91.26-.78.52-1.17,1.43-2.21,1.56-.26-.13-.26,0-.26,0-.39,1.17-1.3,1.69-2.08,2.47l-1.43,1.43-2.34,2.21c-1.17,3.12-2.21,4.42-3.64,5.33-.78.65-1.17,1.17-1.82,1.82l-1.17.65c-1.17.78-2.34,1.69-3.25,2.86l-.52.52c-1.04.52-2.08,1.56-3.25,2.21-1.04.52-1.95,1.17-2.86,1.69-.65.39-1.04.65-1.82.52-.65-.26-1.17.26-1.82.65-1.43.91-2.99,1.56-4.55,1.56-.52,0-1.04.26-1.43.39-1.56.39-2.99,1.04-4.55,0-.13,0-.26-.13-.39,0-.65,1.04-1.69.26-2.34,0-2.34-.65-4.29-1.82-5.98-3.51ZM492.41,325.98l2.21-2.08c.52-.65,1.3-1.17,1.95-1.69,1.17-1.43,2.86-2.73,3.64-4.42.26-.52-1.04-2.34-2.6-1.3-.26-.39-.52-.26-.91,0-.39.52-.78.91-1.43,1.3-1.69.91-3.38,1.69-4.55,3.38-.65.91-1.56,1.56-2.34,2.34-.78.65-1.82,1.17-2.47,1.95-.39.52-.65,1.17-1.56.91-.26,0-.26.26-.26.39.26.65-.13,1.04-.65,1.43-.13.26-.26.26-.39.65,0,.26.13.26.13.52.52,0,.91.39,1.3.13,1.95-1.17,6.11-2.21,7.93-3.51ZM488.12,365.24c0,.39-.39.39-.65.26.13-.13.26-.26.65-.26ZM488.64,364.98c-.13-.13.13-.39.26-.52.26-.26.65-.52,1.04-.52,0,.52-.65.65-.78,1.17l-.52-.13ZM491.63,364.2c-.39-.52-1.17-.13-1.69-.26.52-.52,1.04-1.04,2.08-1.17-.65.39-1.04.91-.26,1.17.26,0,.39.26.13.39-.13.26-.13,0-.26-.13ZM492.28,361.86c.52-.13,1.04-.65,1.43-1.04,1.17-.91,2.34-1.56,3.64-2.21.91-.39,1.69-.91,2.21-1.82.13-.52.65-1.17,1.3-1.04,0,.26-.52.52.13.65-.65.78-1.56,1.43-2.47,2.08-1.17.91-2.47,1.69-3.77,2.47-.91.52-1.69,1.3-2.73,1.56-.13-.39,0-.52.26-.65ZM500.86,355.75c.13-.52.52-.65,1.04-.65.26,0,.65-.26.91-.26-.65.39-.91,1.17-1.56,1.3-.26,0-.26-.26-.39-.39ZM506.58,349.51c.13-.13.26-.13.26-.26s.13-.26.26-.13c.13.26,0,.26-.13.26h.13c-.13.13-.13.26-.26.26-.13.26-.39.39-.52.26,0-.26.13-.26.26-.39ZM508.27,347.3c-.39.52-.52.65-.91.52l.91-.52ZM509.44,346.78c0,1.04-.65,1.04-1.17,1.04.13-.39.91-.52,1.17-1.04ZM511.13,345.22c.65.91-.39.91-.78,1.3,0-.78.52-.91.78-1.3ZM511.91,344.83c-.26.39-.39.52-.78.39.13-.13.39-.13.78-.39ZM512.3,343.14c-.13.52-.26.65-.78.78l.78-.78ZM513.86,342.1c-.26.26-.65.65-1.3.78.52-.52.78-.78,1.3-.78ZM514.51,346.65c0,.26,0,.52-.26.65,0,.13-.26,0-.26,0,0-.39.13-.52.52-.65Z"/>
  </g>
</svg>